<?xml version="1.0" encoding="utf-8"?>
<!-- Generator: Adobe Illustrator 19.0.1, SVG Export Plug-In . SVG Version: 6.00 Build 0)  -->
<svg version="1.1" id="Capa_1" xmlns="http://www.w3.org/2000/svg" xmlns:xlink="http://www.w3.org/1999/xlink" x="0px" y="0px"
	 viewBox="0 0 50 50" style="enable-background:new 0 0 50 50;" xml:space="preserve">
<style type="text/css">
	.st0{fill:#FFFFFF;}
</style>
<g>
	<path class="st0" d="M25,10c8.3,0,15,6.7,15,15s-6.7,15-15,15s-15-6.7-15-15S16.7,10,25,10 M25,0C11.2,0,0,11.2,0,25s11.2,25,25,25
		s25-11.2,25-25S38.8,0,25,0L25,0z"/>
	<polygon class="st0" points="26,14.9 24,14.9 23,25.9 27,25.9 	"/>
	<polygon class="st0" points="29.6,31.1 30.7,30 25.3,23.6 23,25.9 	"/>
</g>
</svg>
