<?xml version="1.0" encoding="utf-8"?>
<!-- Generator: Adobe Illustrator 18.0.0, SVG Export Plug-In . SVG Version: 6.00 Build 0)  -->
<!DOCTYPE svg PUBLIC "-//W3C//DTD SVG 1.1//EN" "http://www.w3.org/Graphics/SVG/1.1/DTD/svg11.dtd">
<svg version="1.1" id="Capa_1" xmlns="http://www.w3.org/2000/svg" xmlns:xlink="http://www.w3.org/1999/xlink" x="0px" y="0px"
	 viewBox="0 0 30 30" enable-background="new 0 0 30 30" xml:space="preserve">
<g>
	<path fill="#818181" d="M28,6H2C0.9,6,0,5.1,0,4V2c0-1.1,0.9-2,2-2h26c1.1,0,2,0.9,2,2v2C30,5.1,29.1,6,28,6z"/>
	<path fill="#818181" d="M28,18H2c-1.1,0-2-0.9-2-2v-2c0-1.1,0.9-2,2-2h26c1.1,0,2,0.9,2,2v2C30,17.1,29.1,18,28,18z"/>
	<path fill="#818181" d="M28,30H2c-1.1,0-2-0.9-2-2v-2c0-1.1,0.9-2,2-2h26c1.1,0,2,0.9,2,2v2C30,29.1,29.1,30,28,30z"/>
</g>
</svg>
