<?xml version="1.0" encoding="utf-8"?>
<!-- Generator: Adobe Illustrator 16.0.0, SVG Export Plug-In . SVG Version: 6.00 Build 0)  -->
<!DOCTYPE svg PUBLIC "-//W3C//DTD SVG 1.1//EN" "http://www.w3.org/Graphics/SVG/1.1/DTD/svg11.dtd">
<svg version="1.1" id="Capa_1" xmlns="http://www.w3.org/2000/svg" xmlns:xlink="http://www.w3.org/1999/xlink" x="0px" y="0px"
	 width="144px" height="36px" viewBox="0.475 144.785 144 36" enable-background="new 0.475 144.785 144 36" xml:space="preserve">
<circle fill="#777777" cx="18.475" cy="162.787" r="18"/>
<circle fill="#777777" cx="54.476" cy="162.787" r="18"/>
<circle fill="#777777" cx="90.476" cy="162.787" r="18"/>
<circle fill="#777777" cx="126.476" cy="162.787" r="18"/>
<g id="Shape_8_2_">
	<g>
		<path fill="#FFFFFF" d="M22.475,154.987l-3-0.2h-0.4l-0.7,0.101c-0.1,0-0.2,0.1-0.3,0.1s-0.2,0.1-0.3,0.1l-0.6,0.4l0,0
			c-0.1,0.1-0.2,0.1-0.2,0.199c-0.1,0.101-0.1,0.2-0.2,0.2c-0.1,0.101-0.1,0.2-0.2,0.301c-0.1,0.3-0.1,0.399-0.1,0.5l-0.1,0.1
			c0,0.101,0,0.101,0,0.2v0.1v0.101v0.2l-0.1,2.899l0,0l0,0h-1.8v2.7h1.8v7.8h3.3l0,0v-7.8l2.1-0.101l0.4-2.699h-2.5v-1.7
			c0-0.101,0-0.101,0-0.2s0-0.1,0-0.2c0-0.1,0-0.1,0.1-0.1c0-0.1,0.1-0.1,0.1-0.1l0.1-0.101c0,0,0.1,0,0.1-0.1l0.2-0.101h0.1h0.2
			l0,0l1.7,0.2l0,0L22.475,154.987L22.475,154.987z"/>
	</g>
</g>
<g id="Shape_11_1_">
	<g>
		<path fill="#F2F1F1" d="M62.175,161.886h-2.4v-2.5c0-0.2-0.1-0.3-0.3-0.3h-0.7c-0.2,0-0.3,0.2-0.3,0.3v2.5h-2.4
			c-0.2,0-0.3,0.2-0.3,0.3v0.7c0,0.2,0.1,0.301,0.3,0.301h2.4v2.6c0,0.2,0.1,0.3,0.3,0.3h0.7c0.2,0,0.3-0.2,0.3-0.3v-2.5h2.4
			c0.2,0,0.3-0.2,0.3-0.3v-0.7C62.476,161.987,62.375,161.886,62.175,161.886z M54.075,164.087c-0.5-0.399-1-0.899-1-1.1
			c0-0.3,0-0.5,0.7-1c0.9-0.7,1.3-1.6,1.3-2.601c0-0.899-0.3-1.699-0.7-2.199h0.3c0.1,0,0.1,0,0.2-0.101l0.9-0.7
			c0.1-0.1,0.2-0.199,0.1-0.399c0-0.101-0.2-0.2-0.3-0.2h-4.2c-0.5,0-0.9,0.1-1.4,0.3c-1.5,0.601-2.6,1.9-2.6,3.3
			c0,2,1.5,3.5,3.5,3.601c0,0.2-0.1,0.3-0.1,0.5c0,0.3,0.1,0.6,0.2,0.899c0,0,0,0-0.1,0c-1.9,0-3.6,1-4.2,2.4
			c-0.2,0.4-0.3,0.8-0.3,1.1c0,0.4,0.1,0.7,0.3,1c0.4,0.801,1.3,1.4,2.5,1.7c0.6,0.2,1.3,0.2,1.9,0.2s1.2-0.101,1.7-0.2
			c1.7-0.5,2.8-1.8,2.8-3.3C55.675,165.787,55.175,164.987,54.075,164.087z M49.575,159.287c-0.1-0.7,0.1-1.399,0.4-1.8
			c0.2-0.3,0.5-0.4,0.9-0.4l0,0c0.9,0,1.8,1.101,2,2.4c0.1,0.7-0.1,1.4-0.4,1.8c-0.2,0.3-0.5,0.399-0.9,0.399l0,0l0,0
			C50.675,161.787,49.775,160.687,49.575,159.287z M51.175,169.386c-1.4,0-2.5-0.899-2.5-2c0-0.999,1.3-2,2.7-2l0,0
			c0.3,0,0.6,0.101,0.9,0.101c0.1,0.1,0.2,0.1,0.3,0.199c0.7,0.501,1.1,0.801,1.2,1.301c0,0.1,0,0.3,0,0.399
			C53.875,168.686,52.976,169.386,51.175,169.386z"/>
	</g>
</g>
<g id="Shape_5_copy_1_">
	<g>
		<path fill="#FFFFFF" d="M98.475,158.287c-0.6,0.3-1.199,0.399-1.899,0.5c0.7-0.4,1.199-1,1.4-1.8c-0.601,0.4-1.301,0.6-2.1,0.8
			c-0.601-0.6-1.5-1-2.401-1c-1.799,0-3.3,1.5-3.3,3.3c0,0.301,0,0.5,0.101,0.7c-2.701-0.1-5.101-1.4-6.8-3.399
			c-0.3,0.5-0.4,0.999-0.4,1.6c0,1.1,0.6,2.1,1.5,2.699c-0.5,0-1-0.199-1.5-0.399l0,0c0,1.6,1.1,2.9,2.601,3.2
			c-0.301,0.1-0.601,0.1-0.901,0.1c-0.199,0-0.4,0-0.6-0.1c0.4,1.3,1.6,2.3,3.1,2.3c-1.1,0.899-2.5,1.399-4.1,1.399
			c-0.3,0-0.5,0-0.8,0c1.5,0.9,3.2,1.501,5,1.501c6,0,9.299-5.001,9.299-9.3c0-0.101,0-0.301,0-0.4
			C97.475,159.587,98.075,158.987,98.475,158.287z"/>
	</g>
</g>
<g id="Shape_8_1_">
	<g>
		<path fill="#FFFFFF" d="M120.375,154.787c-1.2,0-1.9,0.8-1.9,1.9c0,1,0.7,1.899,1.9,1.899l0,0c1.199,0,1.9-0.8,1.9-1.899
			C122.276,155.587,121.575,154.787,120.375,154.787z M118.676,170.787h3.399v-10.8h-3.399V170.787z M130.576,159.787
			c-1.8,0-2.601,1-3.1,1.8l0,0l0,0l0,0v-1.5h-3.4c0,1,0,10.8,0,10.8h3.4v-6c0-0.3,0-0.6,0.1-0.899c0.2-0.6,0.8-1.3,1.8-1.3
			c1.201,0,1.7,1,1.7,2.399v5.7h3.401v-6.2C134.476,161.287,132.776,159.787,130.576,159.787z"/>
	</g>
</g>
</svg>
