<?xml version="1.0" encoding="utf-8"?>
<!-- Generator: Adobe Illustrator 16.0.0, SVG Export Plug-In . SVG Version: 6.00 Build 0)  -->
<!DOCTYPE svg PUBLIC "-//W3C//DTD SVG 1.1//EN" "http://www.w3.org/Graphics/SVG/1.1/DTD/svg11.dtd">
<svg version="1.1" id="Capa_1" xmlns="http://www.w3.org/2000/svg" xmlns:xlink="http://www.w3.org/1999/xlink" x="0px" y="0px"
	 width="28px" height="28px" viewBox="-427.5 518.5 28 28" enable-background="new -427.5 518.5 28 28" xml:space="preserve">
<circle fill="#44558D" cx="-413.5" cy="532.5" r="14"/>
<g id="Shape_8_6_">
	<g>
		<path fill="#FFFFFF" d="M-410.389,526.433l-2.333-0.155h-0.311l-0.544,0.078c-0.078,0-0.156,0.078-0.233,0.078
			s-0.156,0.078-0.233,0.078l-0.467,0.312l0,0c-0.078,0.077-0.155,0.077-0.155,0.155c-0.078,0.078-0.078,0.154-0.156,0.154
			c-0.078,0.079-0.078,0.156-0.155,0.234c-0.078,0.234-0.078,0.311-0.078,0.389l-0.078,0.078c0,0.078,0,0.078,0,0.156v0.077v0.079
			v0.154l-0.078,2.256l0,0l0,0h-1.4v2.1h1.4v6.066h2.567l0,0v-6.066l1.633-0.078l0.312-2.1h-1.945v-1.322c0-0.078,0-0.078,0-0.155
			s0-0.079,0-0.155c0-0.078,0-0.078,0.078-0.078c0-0.078,0.078-0.078,0.078-0.078l0.078-0.078c0,0,0.078,0,0.078-0.078l0.155-0.078
			h0.078h0.156l0,0l1.322,0.155l0,0L-410.389,526.433L-410.389,526.433z"/>
	</g>
</g>
</svg>
