<?xml version="1.0" encoding="utf-8"?>
<!-- Generator: Adobe Illustrator 16.0.0, SVG Export Plug-In . SVG Version: 6.00 Build 0)  -->
<!DOCTYPE svg PUBLIC "-//W3C//DTD SVG 1.1//EN" "http://www.w3.org/Graphics/SVG/1.1/DTD/svg11.dtd">
<svg version="1.1" id="Capa_1" xmlns="http://www.w3.org/2000/svg" xmlns:xlink="http://www.w3.org/1999/xlink" x="0px" y="0px"
	 width="400px" height="400px" viewBox="0 0 400 400" enable-background="new 0 0 400 400" xml:space="preserve">
<g>
	<path fill="#FFFFFF" d="M373.333,80H26.667C12,80,0,68,0,53.333V26.667C0,12,12,0,26.667,0h346.667C388,0,400,12,400,26.667v26.667
		C400,68,388,80,373.333,80z"/>
	<path fill="#FFFFFF" d="M373.333,240H26.667C12,240,0,228,0,213.334v-26.667C0,172,12,160,26.667,160h346.667
		C388,160,400,172,400,186.667v26.667C400,228,388,240,373.333,240z"/>
	<path fill="#FFFFFF" d="M373.333,400H26.667C12,400,0,388,0,373.334v-26.668C0,332,12,320,26.667,320h346.667
		C388,320,400,332,400,346.666v26.668C400,388,388,400,373.333,400z"/>
</g>
</svg>
