<?xml version="1.0" encoding="utf-8"?>
<!-- Generator: Adobe Illustrator 19.0.1, SVG Export Plug-In . SVG Version: 6.00 Build 0)  -->
<svg version="1.1" id="Layer_1" xmlns="http://www.w3.org/2000/svg" xmlns:xlink="http://www.w3.org/1999/xlink" x="0px" y="0px"
	 viewBox="0 0 150 175" enable-background="new 0 0 150 175" xml:space="preserve">
<g>
</g>
<g>
	<g>
		<path d="M662.755,321.057"/>
	</g>
</g>
<rect y="-0.062" fill="#E91D25" width="150" height="175.062"/>
<g>
	<g>
		<g>
			<path fill="none" d="M84.367,72.964c3.532-1.269,7.07-2.54,10.675-3.835c0.206,0.744,0.098,1.116-0.642,1.365
				c-3.308,1.111-6.592,2.295-9.966,3.482C84.411,73.617,84.39,73.31,84.367,72.964z"/>
			<path fill="none" d="M98.882,62.081c-0.044-2.294-0.089-4.589-0.133-6.883c0.138-0.004,0.277-0.008,0.416-0.011
				c0.051,2.292,0.103,4.583,0.154,6.875C99.173,62.069,99.027,62.075,98.882,62.081z"/>
			<path fill="none" d="M101.12,132.982c-0.139,0.002-0.277,0.003-0.416,0.005c-0.021-5.281-0.041-10.562-0.062-15.842
				c0.054-0.001,0.109-0.001,0.163-0.002C100.91,122.423,101.015,127.702,101.12,132.982z"/>
			<path fill="none" d="M89.717,58.28c-1.027,0.325-2.054,0.651-3.081,0.976c0.997-0.41,1.993-0.819,2.99-1.229
				C89.656,58.111,89.687,58.196,89.717,58.28z"/>
			<path fill="none" d="M85.99,59.493c-1.548,0.65-3.094,1.302-4.64,1.953c-0.05-0.133-0.1-0.265-0.15-0.398
				C82.796,60.53,84.393,60.011,85.99,59.493z"/>
			<path fill="none" d="M109.185,66.115c-0.007-0.68,0.421-1.024,1.013-0.93c0.397,0.063,0.744,0.438,1.114,0.673
				c0.005,0.146,0.01,0.292,0.015,0.438c-0.379,0.279-0.732,0.731-1.144,0.794C109.608,67.18,109.191,66.772,109.185,66.115z"/>
		</g>
		<g>
			<path fill="none" d="M74.29,136.45c-0.908,0.75-0.963,0.713-1.428-0.307c-0.527-1.156-1.194-2.255-1.641-3.438
				c-0.638-1.689-1.159-3.424-1.679-5.155c-0.665-2.214-3.264-11.496-3.462-12.481c-0.333-1.656-0.682-3.316-0.882-4.991
				c-0.308-2.583-0.601-5.176-0.703-7.773c-0.085-2.188,0.106-4.387,0.185-6.581c0.048-1.335,0.085-2.672,0.177-4.004
				c0.143-2.068,0.295-4.136,0.506-6.198c0.251-2.449,0.54-4.896,0.865-7.337c0.513-3.848,1.085-7.688,1.607-11.535
				c0.567-4.181,1.143-8.361,1.643-12.55c0.246-2.061,0.33-4.142,0.493-6.213c0.016-0.205,0.128-0.412,0.104-0.607
				c-0.04-0.326-0.153-0.643-0.236-0.963c-0.36,0.154-0.81,0.224-1.055,0.486c-0.268,0.285-0.355,0.745-0.505,1.134
				c-1.071,2.777-2.13,5.559-3.207,8.334c-1.922,4.953-3.857,9.901-5.78,14.854c-1.123,2.893-2.227,5.794-3.35,8.687
				c-0.72,1.857-1.441,3.714-2.213,5.549c-0.093,0.22-0.523,0.445-0.775,0.423c-0.583-0.051-1.146-0.288-1.729-0.384
				c-0.802-0.133-1.066-0.689-1.289-1.372c-0.766-2.342-1.576-4.669-2.362-7.005c-1.344-3.994-2.677-7.992-4.027-11.985
				c-0.732-2.165-1.501-4.318-2.234-6.483c-0.75-2.218-1.495-4.438-2.2-6.67c-0.158-0.499-0.408-0.786-0.874-0.585
				c-0.149,0.064-0.176,0.59-0.135,0.887c0.179,1.291,0.466,2.57,0.597,3.866c0.187,1.846,0.25,3.705,0.406,5.555
				c0.226,2.683,0.507,5.361,0.73,8.044c0.426,5.137,0.933,10.27,1.206,15.415c0.199,3.75,0.085,7.517,0.095,11.276
				c0.01,3.512-0.302,7.009-1.125,10.415c-0.64,2.65-1.514,5.255-2.45,7.82c-1.899,5.205-4.781,9.924-7.483,14.729
				c-0.852,1.514-0.868,1.518-2.511,1.023c-2.62-0.789-5.233-1.6-7.851-2.393c-2.346-0.71-4.696-1.407-7.043-2.114
				c-0.304-0.092-0.6-0.214-1.024-0.366c1.654-2.306,3.233-4.431,4.725-6.614c1.207-1.765,2.309-3.602,3.457-5.407
				c2.134-3.356,3.809-6.936,4.914-10.749c0.582-2.009,0.959-4.089,1.268-6.16c0.287-1.926,0.408-3.882,0.513-5.829
				c0.101-1.869,0.12-3.744,0.116-5.616c-0.006-2.592-0.047-5.185-0.113-7.777c-0.066-2.597-0.13-5.195-0.285-7.787
				c-0.516-8.618-1.08-17.233-1.598-25.85c-0.037-0.623-0.368-0.633-0.763-0.548c-1.532,0.329-3.071,0.645-4.578,1.067
				c-0.571,0.16-0.801,0.101-1.005-0.455c-0.198-0.541-0.524-1.036-0.86-1.678c6.774-1.797,13.414-3.558,20.149-5.345
				c0.225,0.634,0.463,1.265,0.675,1.905c0.841,2.539,1.669,5.082,2.511,7.621c1.551,4.674,3.12,9.343,4.659,14.021
				c1.31,3.981,2.578,7.977,3.885,11.959c0.795,2.422,1.62,4.836,2.466,7.241c0.085,0.243,0.412,0.401,0.627,0.598
				c0.091-0.264,0.176-0.531,0.273-0.793c0.217-0.581,0.425-1.166,0.663-1.739c1.885-4.544,3.78-9.083,5.666-13.627
				c1.909-4.599,3.817-9.198,5.715-13.801c1.268-3.076,2.518-6.16,3.779-9.239c0.258-0.631,0.527-1.257,0.865-2.06
				c4.185,1.981,8.424,3.986,12.689,6.005c-0.572,1.351-2.456,1.785-2.078,3.614c-0.595,0.084-1.142,0.161-1.706,0.241
				c-0.036,0.858-0.033,1.665-0.114,2.463c-0.092,0.905,0.47,1.458,1.028,1.977c0.553,0.514,0.78,1.088,0.778,1.824
				c-0.01,3.288-0.001,6.575,0.009,9.863c0.004,1.436,0.1,2.876,0.023,4.307c-0.13,2.43-0.361,4.854-0.554,7.281
				c-0.124,1.561-0.252,3.123-0.388,4.683c-0.208,2.388-0.468,4.773-0.624,7.164c-0.112,1.722-0.081,3.452-0.135,5.178
				c-0.035,1.124-0.144,2.246-0.157,3.37c-0.012,1.102,0.02,2.207,0.096,3.306c0.232,3.321,0.425,6.647,0.774,9.956
				c0.186,1.763,0.66,3.495,1.008,5.241c0.029,0.145,0.124,0.28,0.137,0.424c0.207,2.291,1.286,4.347,1.768,6.555
				c0.291,1.334,0.247,2.743,0.337,4.12c0.03,0.456,0.063,0.798,0.571,1.087c0.611,0.347,0.523,0.931,0.004,1.417
				c-1.392,1.305-2.748,2.652-4.174,3.918C77.245,134.046,75.758,135.237,74.29,136.45z"/>
			<g>
				<path fill="none" d="M95.512,129.636c-1.26,0.045-2.519,0.111-3.777,0.184c-0.458,0.027-0.614-0.116-0.62-0.611
					c-0.041-3.686-0.123-7.372-0.181-11.058c-0.039-2.515-0.06-5.029-0.089-7.544c-0.05-4.223-0.094-8.445-0.152-12.668
					c-0.056-4.012-0.138-8.024-0.189-12.036c-0.031-2.424-0.043-4.849-0.029-7.274c0.007-1.184-0.597-1.943-1.614-2.35
					c-2.286-0.914-4.63-1.338-7.056-0.536c-0.134,0.044-0.277,0.062-0.475,0.105c-0.068-0.24-0.171-0.431-0.17-0.622
					c0.018-2.66,0.06-5.32,0.073-7.98c0.003-0.689-0.083-1.378-0.109-2.068c-0.044-1.177,0.255-1.445,1.67-1.427
					c0.015,3.045,0.031,6.096,0.046,9.147c0.116,0.029,0.232,0.058,0.348,0.088c0.133-0.207,0.383-0.414,0.38-0.619
					c-0.036-3.14-0.104-6.28-0.169-9.42c-0.001-0.052-0.053-0.104-0.118-0.223c-0.645,0.193-1.308,0.391-1.969,0.588
					c-0.323-1.312-0.237-1.473,0.703-1.801c1.791-0.624,3.579-1.258,5.355-1.922c2.308-0.863,4.603-1.761,6.908-2.635
					c0.186-0.07,0.4-0.068,0.593-0.098c0.481,0.95-0.116,1.272-0.811,1.516c-3.186,1.121-6.368,2.256-9.569,3.33
					c-0.546,0.183-0.696,0.414-0.686,0.946c0.027,1.533-0.019,3.067,0.024,4.599c0.009,0.316,0.274,0.624,0.433,0.962
					c-0.648,0.366-0.792,1.48-0.049,2.033c-0.462,0.51-0.675,3.318-0.272,4.395c3.666-1.28,7.337-2.563,11.166-3.9
					c0.005,1.52-0.004,2.948,0.018,4.374c0.052,3.41,0.276,6.829,0.086,10.226c-0.058,1.038-0.442,2.156-0.467,3.266
					c-0.032,1.462-0.015,2.925-0.01,4.388c0,0.146,0.007,0.378,0.091,0.424c0.967,0.529,0.658,1.445,0.674,2.235
					c0.045,2.242,0.017,4.486,0.068,6.729c0.092,4.01,0.236,8.019,0.332,12.028c0.075,3.112,0.106,6.225,0.167,9.337
					c0.033,1.705,0.065,3.41,0.141,5.113C96.229,129.405,96.046,129.617,95.512,129.636z"/>
				<path fill="none" d="M94.27,49.698c-1.894,0.639-3.789,1.277-5.808,1.958c0.251-0.679,0.426-1.167,1.136-1.398
					c1.712-0.555,3.388-1.218,5.105-1.847C95.018,49.038,94.944,49.471,94.27,49.698z"/>
				<path fill="none" d="M94.979,50.87c-0.192,0.228-0.338,0.567-0.583,0.667c-1.533,0.628-3.087,1.203-4.73,1.832
					c-0.234-0.255-0.452-0.492-0.701-0.763c1.953-0.668,3.87-1.323,5.787-1.978C94.827,50.709,94.903,50.789,94.979,50.87z"/>
				<path fill="none" d="M94.44,47.525c-1.769,0.662-3.572,1.233-5.363,1.834c-0.083-0.061-0.166-0.121-0.249-0.182
					c0.159-0.304,0.246-0.788,0.487-0.883c1.763-0.694,3.556-1.31,5.34-1.95c0.112,0.076,0.223,0.152,0.335,0.227
					C94.811,46.899,94.705,47.426,94.44,47.525z"/>
				<path fill="none" d="M88.439,46.638c2.065-0.753,4.139-1.508,6.218-2.266c0.373,0.697,0.199,1.056-0.456,1.288
					c-1.562,0.553-3.108,1.15-4.666,1.717C88.896,47.609,88.588,47.269,88.439,46.638z"/>
				<path fill="none" d="M94.405,43.504c-2.279,0.832-4.568,1.636-6.859,2.433c-0.134,0.047-0.31-0.026-0.511-0.257
					c2.54-0.993,5.08-1.987,7.62-2.98c0.077,0.088,0.154,0.176,0.231,0.264C94.727,43.149,94.604,43.431,94.405,43.504z"/>
				<path fill="none" d="M87.208,46.754c0.477,0.183,0.762,0.868,1.17,1.365c-0.372,1.466-0.628,2.809-1.06,4.093
					c-0.5,1.488-1.137,2.931-1.755,4.376c-0.135,0.315-0.391,0.677-0.684,0.801c-0.481,0.205-1.037,0.233-1.561,0.336
					c-0.08-0.47-0.185-0.938-0.23-1.412c-0.031-0.321,0.035-0.65,0.037-0.976c0.011-2.052-0.157-4.123,0.071-6.15
					C83.429,47.112,85.056,45.927,87.208,46.754z"/>
				<path fill="none" d="M91.677,51.027c0.018,0.053,0.036,0.106,0.054,0.159c-1.249,0.455-2.498,0.91-3.746,1.365
					c-0.031-0.085-0.062-0.169-0.093-0.254C89.153,51.874,90.415,51.451,91.677,51.027z"/>
				<path fill="none" d="M89.688,54.398c1.67-0.678,3.385-1.246,5.192-1.893c0.031,0.561,0.317,1.05-0.454,1.301
					c-1.695,0.551-3.364,1.179-5.047,1.767c-0.132,0.046-0.287,0.024-0.74,0.054C89.085,55.085,89.309,54.551,89.688,54.398z"/>
				<path fill="none" d="M94.193,41.932c0.151-0.062,0.328-0.057,0.722-0.12c-0.249,0.302-0.334,0.51-0.478,0.564
					c-3.148,1.197-6.304,2.373-9.455,3.563c-1.242,0.469-2.071,1.399-2.27,2.667c-0.215,1.375-0.184,2.79-0.232,4.188
					c-0.05,1.457-0.043,2.916-0.108,4.372c-0.041,0.905,0.522,1.619,1.437,1.544c1.528-0.125,2.839-0.813,4.088-1.782
					c0.688,0.494,1.33,0.543,1.737-0.415c0.039-0.093,0.174-0.17,0.281-0.206c1.623-0.547,3.248-1.086,4.933-1.647
					c0.143,0.581,0.235,1.053-0.476,1.303c-4.333,1.525-8.661,3.063-13.189,4.666c-0.025-1.309-0.027-2.474-0.074-3.637
					c-0.05-1.247-0.119-2.495-0.228-3.738c-0.039-0.443-0.067-0.741,0.492-0.846c0.174-0.032,0.388-0.395,0.405-0.621
					c0.063-0.803,0.064-1.613,0.058-2.42c-0.002-0.329,0.101-0.79-0.507-0.713c-0.027-0.355-0.213-0.857-0.048-1.035
					c0.37-0.401,0.88-0.72,1.391-0.935C86.504,45.082,90.349,43.509,94.193,41.932z"/>
			</g>
			<g>
				<path fill="none" d="M95.541,140.255c-0.867,0.008-1.736,0.076-2.599,0.169c-0.383,0.041-1.846,0.08-1.864,0.082
					c-1.938,0.18-3.883,0.289-5.989,0.429c0.027-0.545,0.071-0.999,0.067-1.453c-0.011-1.373,0.103-2.757-0.067-4.12
					c-0.819-6.542,5.448-4.308,6.795-4.869c0.999-0.416-2.107-0.49-4.582-0.656c-0.92-0.062-1.759,0.057-2.258-0.139
					c-0.503-0.197-0.18-1.747-0.225-2.146c-0.405-3.655-0.189-7.352-0.275-11.029c-0.077-3.286-0.133-6.572-0.218-9.857
					c-0.102-3.948-0.217-7.896-0.351-11.843c-0.018-0.527-0.183-1.048-0.319-1.785c1.159,0.069,2.177,0.129,3.267,0.193
					c-0.237-1.028-0.982-1.576-1.612-2.229c-0.294-0.305-0.557-0.785-0.571-1.194c-0.139-4.199-0.224-8.399-0.324-12.599
					c-0.004-0.18-0.065-0.381-0.005-0.535c0.095-0.241,0.271-0.45,0.413-0.673c0.122,0.224,0.346,0.446,0.35,0.671
					c0.07,4.286,0.103,8.572,0.179,12.858c0.009,0.501,0.227,0.998,0.349,1.497c0.121-0.018,0.243-0.035,0.364-0.053
					c0.058-0.75,0.144-1.499,0.167-2.25c0.031-1.046,0.027-2.093,0.015-3.139c-0.033-2.813-0.089-5.626-0.105-8.439
					c-0.002-0.302,0.196-0.604,0.301-0.907c0.244,0.266,0.632,0.498,0.702,0.804c0.153,0.666,0.188,1.368,0.193,2.056
					c0.026,3.687-0.022,7.376,0.062,11.061c0.037,1.599,0.347,3.19,0.499,4.787c0.125,1.314,0.251,2.631,0.291,3.949
					c0.112,3.686,0.166,7.373,0.267,11.059c0.107,3.924,0.258,7.848,0.357,11.772c0.058,2.306,0.066,4.614,0.068,6.921
					c0.002,1.481,0.122,1.74,1.579,1.94c0.112,0.015,9.639-0.16,10.337,4.562C101.447,139.531,95.914,140.251,95.541,140.255z"/>
				<path fill="none" d="M85.164,64.087c3.136-1.095,6.247-2.262,9.37-3.398c0.106-0.039,0.233-0.02,0.384-0.03
					c0.204,0.525,0.256,1.008-0.391,1.233c-3.388,1.18-6.782,2.345-10.212,3.528C83.951,64.474,84.484,64.325,85.164,64.087z"/>
				<path fill="none" d="M84.207,62.286c3.545-1.253,7.072-2.5,10.641-3.761c0.262,0.842-0.022,1.172-0.675,1.391
					c-3.249,1.088-6.486,2.213-9.812,3.354C84.314,62.968,84.27,62.689,84.207,62.286z"/>
				<path fill="none" d="M84.784,66.347c3.25-1.133,6.483-2.313,9.724-3.471c0.102-0.037,0.224-0.019,0.342-0.027
					c0.306,0.681,0.107,1.072-0.579,1.306c-3.086,1.049-6.165,2.12-9.248,3.178c-0.239,0.082-0.494,0.119-0.792,0.188
					C84.106,66.898,84.171,66.561,84.784,66.347z"/>
				<path fill="none" d="M84.899,68.428c3.245-1.133,6.487-2.271,9.731-3.406c0.082-0.029,0.171-0.04,0.326-0.075
					c0.234,0.662,0.159,1.052-0.544,1.292c-3.335,1.136-6.654,2.316-10.026,3.497C84.118,69.112,84.21,68.668,84.899,68.428z"/>
				<path fill="none" d="M84.642,70.691c3.398-1.231,6.816-2.406,10.273-3.61c0.252,0.748,0.133,1.108-0.698,1.377
					c-2.986,0.965-5.935,2.044-8.9,3.076c-0.304,0.106-0.617,0.189-0.926,0.282c-0.094-0.076-0.189-0.152-0.283-0.228
					C84.282,71.28,84.389,70.783,84.642,70.691z"/>
				<path fill="none" d="M96.033,58.185c0.041-0.945,0.035-1.893,0.05-2.888c1.352-0.32,1.498-0.19,1.405,1.061
					c-0.044,0.592-0.027,1.191-0.002,1.785c0.02,0.477-0.12,0.73-0.65,0.706C96.38,58.829,96.006,58.806,96.033,58.185z"/>
				<path fill="none" d="M99.493,84.032c-0.144-0.077-0.279-0.105-0.338-0.188c-0.502-0.711-1.163-1.094-2.049-1.005
					c-0.656,0.066-0.815-0.268-0.817-0.857c-0.011-2.42-0.065-4.84-0.081-7.26c-0.031-4.607-0.046-9.215-0.069-13.822
					c-0.002-0.445-0.011-0.891-0.018-1.398c1.35-0.202,1.324-0.202,1.33,1.019c0.013,2.57,0.069,5.141,0.072,7.711
					c0.001,0.454-0.105,0.934-0.271,1.359c-0.574,1.462,0.395,2.949,1.967,2.968c0.173,0.002,0.346,0.023,0.585,0.041
					c-0.03,0.719-0.06,1.395-0.086,2.072c-0.053,1.373-0.113,2.746-0.152,4.119c-0.034,1.193,0.327,2.231,1.244,3.044
					c0.423,0.374,0.825,0.772,1.406,1.319C101.032,83.005,100.051,82.955,99.493,84.032z"/>
				<path fill="none" d="M102.597,84.985c0.013,0.664-0.646,1.381-1.278,1.388c-0.699,0.008-1.302-0.562-1.343-1.27
					c-0.045-0.785,0.41-1.321,1.172-1.379C101.893,83.668,102.582,84.268,102.597,84.985z"/>
				<path fill="none" d="M96.359,84.28c0.01-0.834,0.261-1.141,0.982-0.795c0.584,0.28,1.196,0.799,1.465,1.368
					c0.401,0.849-0.07,1.622-0.81,2.153c-0.656,0.47-1.328,0.425-1.786,0.098C96.272,86.003,96.349,85.142,96.359,84.28z"/>
				<path fill="none" d="M99.203,71.873c-0.653,0.011-1.484-0.782-1.477-1.409c0.008-0.675,0.788-1.457,1.45-1.455
					c0.761,0.003,1.409,0.661,1.419,1.44C100.606,71.244,100.003,71.86,99.203,71.873z"/>
				<path fill="none" d="M99.635,63.309c-0.29,0.299-0.444,0.457-0.599,0.615c-0.168-0.189-0.425-0.358-0.474-0.574
					c-0.033-0.146,0.233-0.511,0.356-0.506C99.117,62.851,99.308,63.08,99.635,63.309z"/>
				<path fill="none" d="M99.393,64.623c-0.032,0.386-0.061,0.731-0.099,1.195c-0.386-0.057-0.718-0.106-1.072-0.158
					c-0.002-0.328-0.003-0.591-0.005-0.959C98.591,64.676,98.963,64.652,99.393,64.623z"/>
				<path fill="none" d="M98.391,66.431c0.01-0.048,0.845-0.042,0.87,0.053c0.142,0.527,0.272,1.118,0.154,1.628
					c-0.056,0.242-0.672,0.354-1.035,0.525c-0.09-0.065-0.18-0.13-0.27-0.195C98.191,67.769,98.251,67.092,98.391,66.431z"/>
				<path fill="none" d="M102.898,86.561c-2.531,1.96-4.319,4.481-4.94,7.588c-0.423,2.113-0.371,4.343-0.356,6.519
					c0.039,5.935,0.174,11.869,0.266,17.803c0.08,5.156-0.113,6.522-0.007,11.677c0.015,0.734-0.728,1.015-0.648-0.936
					c0.016-0.389,0.063-0.779,0.053-1.167c-0.112-4.284-0.25-8.568-0.345-12.852c-0.107-4.852-0.18-9.704-0.26-14.556
					c-0.037-2.212-0.05-4.424-0.087-6.636c-0.008-0.491,0.075-1.043-0.571-1.268c-0.083-0.029-0.169-0.194-0.168-0.294
					c0.016-1.517,0.046-3.034,0.074-4.67c1.663,0.467,2.921,0.109,3.502-1.344c0.771,0.196,1.489,0.593,2.115,0.48
					c0.64-0.115,1.19-0.729,1.903-1.209C103.24,86.013,103.137,86.375,102.898,86.561z"/>
			</g>
			<g>
				<path fill="none" d="M133.612,58.013c-3.249,0.796-6.481,1.662-9.72,2.501c-2.492,0.645-4.978,1.312-7.476,1.933
					c-2.09,0.52-3.538,1.638-4.008,3.857c-0.112,0.528-0.435,1.072-0.808,1.471c-0.635,0.678-1.382,0.515-2.131,0.016
					c0.574-0.137,1.205-0.122,1.581-0.424c0.392-0.315,0.677-0.915,0.754-1.429c0.1-0.665-0.758-1.45-1.409-1.475
					c-1.213-0.047-1.73,0.462-2.019,2.057c-1.306-1.297-2.842-1.706-4.548-1.139c-1.681,0.559-2.618,1.898-3.23,3.518
					c-0.105-0.003-0.211-0.006-0.316-0.009c-0.091-0.409-0.253-0.817-0.262-1.227c-0.089-4.097-0.153-8.195-0.226-12.292
					c-0.004-0.238-0.03-0.475-0.05-0.774c-1.04-0.031-2.046-0.097-3.051-0.077c-0.57,0.011-0.713-0.195-0.715-0.733
					c-0.02-4.613-0.069-9.225-0.089-13.838c-0.001-0.294,0.167-0.589,0.256-0.883c0.099,0.023,0.199,0.045,0.298,0.068
					c0.028,2.836,0.056,5.672,0.085,8.508c0.114,0.001,0.229,0.002,0.343,0.003c0.031-2.759,0.063-5.518,0.094-8.276
					c2.154,3.688,5.303,5.619,9.59,5.95c-0.816,0.375-1.619,0.785-2.452,1.117c-2.049,0.817-4.101,1.63-6.177,2.375
					c-0.791,0.283-1.043,0.71-0.992,1.529c0.068,1.1-0.002,2.208-0.015,3.511c1.076-0.134,2.045-0.213,2.997-0.386
					c0.795-0.144,1.116,0.006,1.118,0.916c0.004,3.087,0.094,6.173,0.163,9.259c0.026,1.155,0.279,1.422,1.427,1.187
					c1.989-0.406,3.966-0.88,5.928-1.399c4.562-1.207,9.109-2.469,13.668-3.687c4.503-1.202,9.017-2.363,13.517-3.574
					c1.144-0.308,1.052,0.761,1.593,1.217C136.001,57.603,134.786,57.725,133.612,58.013z"/>
				<path fill="none" d="M134.132,37.896c-0.175,4.407,0.339,8.75,1.285,13.051C133.776,46.72,133.165,42.389,134.132,37.896z"/>
				<path fill="none" d="M115.273,49.922c0.595,1.304,1.522,2.056,2.966,1.88c1.451-0.177,2.146-1.151,2.368-2.542
					c0.261,1.034-0.11,1.848-0.864,2.503c-0.842,0.733-1.843,0.889-2.846,0.467C115.918,51.817,115.257,51.075,115.273,49.922z"/>
				<path fill="none" d="M141.178,59.425c0.009,0.195-0.02,0.391-0.042,0.763c-1.336-1.423-3.126-2.163-3.817-3.984
					c-0.099-0.26-0.215-0.553-0.186-0.816c0.126-1.143,0.488-2.29,0.429-3.419c-0.283-5.364-0.666-10.722-1.034-16.081
					c-0.109-1.583-0.139-1.581,1.461-1.674c1.202-0.07,1.518,0.15,1.617,1.357c0.402,4.927,0.806,9.854,1.143,14.786
					C140.954,53.375,141.042,56.402,141.178,59.425z"/>
				<path fill="none" d="M112.478,72.771c-1.133-1.277-2.322-2.618-3.582-4.039c0.821-0.476,1.473,0.113,2.085,0.559
					C112.214,70.191,112.792,71.741,112.478,72.771z"/>
			</g>
		</g>
	</g>
	<g>
		<path fill="#FFFFFF" d="M134.132,37.898c-0.175,4.407,0.339,8.75,1.285,13.051C133.776,46.722,133.165,42.391,134.132,37.898z"/>
		<path fill="#FFFFFF" d="M115.273,49.923c0.595,1.304,1.522,2.056,2.966,1.88c1.451-0.177,2.146-1.151,2.368-2.542
			c0.261,1.034-0.11,1.848-0.864,2.503c-0.842,0.733-1.843,0.889-2.846,0.467C115.918,51.818,115.257,51.077,115.273,49.923z"/>
		<path fill="#FFFFFF" d="M96.041,58.187c0.041-0.945,0.035-1.893,0.05-2.888c1.352-0.32,1.498-0.19,1.405,1.061
			c-0.044,0.592-0.027,1.191-0.002,1.785c0.02,0.477-0.12,0.73-0.65,0.706C96.387,58.831,96.014,58.808,96.041,58.187z"/>
		<path fill="#FFFFFF" d="M99.5,84.033c-0.144-0.077-0.279-0.105-0.338-0.188c-0.502-0.711-1.163-1.094-2.049-1.005
			c-0.656,0.066-0.815-0.268-0.817-0.857c-0.011-2.42-0.065-4.84-0.081-7.26c-0.031-4.607-0.046-9.215-0.069-13.822
			c-0.002-0.445-0.011-0.891-0.018-1.398c1.35-0.202,1.324-0.202,1.33,1.019c0.013,2.57,0.069,5.141,0.072,7.711
			c0.001,0.454-0.105,0.934-0.271,1.359c-0.574,1.462,0.395,2.949,1.967,2.968c0.173,0.002,0.346,0.023,0.585,0.041
			c-0.03,0.719-0.06,1.395-0.086,2.072c-0.053,1.373-0.113,2.746-0.152,4.119c-0.034,1.193,0.327,2.231,1.244,3.044
			c0.423,0.374,0.825,0.772,1.406,1.319C101.039,83.007,100.059,82.957,99.5,84.033z"/>
		<path fill="#FFFFFF" d="M102.604,84.986c0.013,0.664-0.646,1.381-1.278,1.388c-0.699,0.008-1.302-0.562-1.343-1.27
			c-0.045-0.785,0.41-1.321,1.172-1.379C101.9,83.67,102.59,84.27,102.604,84.986z"/>
		<path fill="#FFFFFF" d="M85.164,64.089c3.136-1.095,6.247-2.262,9.37-3.398c0.106-0.039,0.233-0.02,0.384-0.03
			c0.204,0.525,0.256,1.008-0.391,1.233c-3.388,1.18-6.782,2.345-10.212,3.528C83.951,64.475,84.484,64.326,85.164,64.089z"/>
		<path fill="#FFFFFF" d="M84.208,62.288c3.545-1.253,7.072-2.5,10.641-3.761c0.262,0.842-0.022,1.172-0.675,1.391
			c-3.249,1.088-6.486,2.213-9.812,3.354C84.314,62.97,84.27,62.691,84.208,62.288z"/>
		<path fill="#FFFFFF" d="M84.784,66.349c3.25-1.133,6.483-2.313,9.724-3.471c0.102-0.037,0.224-0.019,0.342-0.027
			c0.306,0.681,0.107,1.072-0.579,1.306c-3.086,1.049-6.165,2.12-9.248,3.178c-0.239,0.082-0.494,0.119-0.792,0.188
			C84.106,66.899,84.171,66.563,84.784,66.349z"/>
		<path fill="#FFFFFF" d="M84.899,68.429c3.245-1.133,6.487-2.271,9.731-3.406c0.082-0.029,0.171-0.04,0.326-0.075
			c0.234,0.662,0.159,1.052-0.544,1.292c-3.335,1.136-6.654,2.316-10.026,3.497C84.118,69.114,84.21,68.67,84.899,68.429z"/>
		<path fill="#FFFFFF" d="M84.642,70.693c3.398-1.231,6.816-2.406,10.273-3.61c0.251,0.748,0.133,1.108-0.698,1.377
			c-2.986,0.965-5.936,2.044-8.9,3.076c-0.304,0.106-0.617,0.189-0.926,0.282c-0.094-0.076-0.189-0.152-0.283-0.228
			C84.283,71.281,84.389,70.784,84.642,70.693z"/>
		<path fill="#FFFFFF" d="M84.368,72.966c3.532-1.269,7.07-2.54,10.675-3.835c0.206,0.744,0.098,1.116-0.642,1.365
			c-3.308,1.111-6.592,2.295-9.966,3.482C84.411,73.619,84.391,73.312,84.368,72.966z"/>
		<path fill="#FFFFFF" d="M96.367,84.281c0.01-0.834,0.261-1.141,0.982-0.795c0.584,0.28,1.196,0.799,1.465,1.368
			c0.401,0.849-0.07,1.622-0.81,2.153c-0.656,0.471-1.328,0.425-1.786,0.098C96.279,86.005,96.357,85.143,96.367,84.281z"/>
		<path fill="#FFFFFF" d="M94.277,49.699c-1.894,0.639-3.789,1.277-5.808,1.958c0.251-0.679,0.426-1.167,1.136-1.398
			c1.712-0.555,3.388-1.218,5.105-1.847C95.025,49.039,94.951,49.472,94.277,49.699z"/>
		<path fill="#FFFFFF" d="M94.986,50.871c-0.192,0.228-0.338,0.567-0.583,0.667c-1.533,0.628-3.087,1.203-4.73,1.832
			c-0.234-0.255-0.452-0.492-0.701-0.763c1.953-0.668,3.87-1.323,5.787-1.978C94.835,50.71,94.91,50.791,94.986,50.871z"/>
		<path fill="#FFFFFF" d="M94.447,47.526c-1.769,0.662-3.572,1.233-5.363,1.834c-0.083-0.061-0.166-0.121-0.249-0.182
			c0.159-0.304,0.246-0.788,0.487-0.883c1.763-0.694,3.556-1.31,5.34-1.95c0.112,0.076,0.223,0.152,0.335,0.227
			C94.818,46.9,94.713,47.427,94.447,47.526z"/>
		<path fill="#FFFFFF" d="M88.446,46.639c2.065-0.753,4.139-1.508,6.218-2.266c0.373,0.697,0.199,1.056-0.456,1.288
			c-1.562,0.553-3.108,1.15-4.666,1.717C88.903,47.61,88.595,47.27,88.446,46.639z"/>
		<path fill="#FFFFFF" d="M94.412,43.506c-2.279,0.832-4.568,1.636-6.859,2.433c-0.134,0.047-0.31-0.026-0.511-0.257
			c2.54-0.993,5.08-1.987,7.62-2.98c0.077,0.088,0.154,0.176,0.231,0.264C94.735,43.15,94.612,43.433,94.412,43.506z"/>
		<path fill="#FFFFFF" d="M87.215,46.755c0.477,0.183,0.762,0.868,1.17,1.365c-0.372,1.466-0.628,2.809-1.06,4.093
			c-0.5,1.488-1.137,2.931-1.755,4.376c-0.135,0.315-0.391,0.677-0.684,0.801c-0.481,0.205-1.037,0.233-1.561,0.336
			c-0.08-0.47-0.185-0.938-0.23-1.412c-0.031-0.321,0.035-0.65,0.037-0.976c0.011-2.052-0.157-4.123,0.071-6.15
			C83.436,47.113,85.063,45.928,87.215,46.755z"/>
		<path fill="#FFFFFF" d="M91.684,51.029c0.018,0.053,0.036,0.106,0.054,0.159c-1.249,0.455-2.498,0.91-3.746,1.365
			c-0.031-0.085-0.062-0.169-0.093-0.254C89.16,51.875,90.422,51.452,91.684,51.029z"/>
		<path fill="#FFFFFF" d="M89.695,54.399c1.67-0.678,3.385-1.246,5.192-1.893c0.031,0.561,0.317,1.05-0.454,1.301
			c-1.695,0.551-3.364,1.179-5.047,1.767c-0.132,0.046-0.287,0.024-0.74,0.054C89.092,55.087,89.316,54.553,89.695,54.399z"/>
		<path fill="#FFFFFF" d="M99.21,71.875c-0.653,0.011-1.484-0.782-1.477-1.409c0.008-0.675,0.788-1.457,1.45-1.455
			c0.761,0.003,1.409,0.661,1.419,1.44C100.613,71.245,100.011,71.861,99.21,71.875z"/>
		<path fill="#FFFFFF" d="M99.642,63.31c-0.29,0.299-0.444,0.457-0.599,0.615c-0.168-0.189-0.425-0.358-0.474-0.574
			c-0.033-0.146,0.233-0.511,0.356-0.506C99.124,62.852,99.315,63.082,99.642,63.31z"/>
		<path fill="#FFFFFF" d="M98.889,62.083c-0.044-2.294-0.089-4.589-0.133-6.883c0.138-0.004,0.277-0.008,0.416-0.011
			c0.051,2.292,0.103,4.583,0.154,6.875C99.18,62.07,99.035,62.076,98.889,62.083z"/>
		<path fill="#FFFFFF" d="M99.401,64.625c-0.032,0.386-0.061,0.731-0.099,1.195c-0.386-0.057-0.718-0.106-1.072-0.158
			c-0.002-0.328-0.003-0.591-0.005-0.959C98.598,64.678,98.97,64.653,99.401,64.625z"/>
		<path fill="#FFFFFF" d="M98.398,66.433c0.01-0.048,0.845-0.042,0.87,0.053c0.142,0.527,0.272,1.118,0.154,1.628
			c-0.056,0.242-0.672,0.354-1.035,0.525c-0.09-0.065-0.18-0.13-0.27-0.195C98.198,67.771,98.259,67.093,98.398,66.433z"/>
		<path fill="#FFFFFF" d="M94.2,41.933c0.151-0.062,0.328-0.057,0.722-0.12c-0.249,0.302-0.334,0.51-0.478,0.564
			c-3.148,1.197-6.304,2.373-9.455,3.563c-1.242,0.469-2.071,1.399-2.27,2.667c-0.215,1.375-0.184,2.79-0.232,4.188
			c-0.05,1.457-0.043,2.916-0.108,4.372c-0.041,0.905,0.522,1.619,1.437,1.544c1.528-0.125,2.839-0.813,4.088-1.782
			c0.688,0.494,1.33,0.543,1.737-0.415c0.039-0.093,0.174-0.17,0.281-0.206c1.623-0.547,3.248-1.086,4.933-1.647
			c0.143,0.581,0.235,1.053-0.476,1.303c-4.333,1.525-8.661,3.063-13.189,4.666c-0.025-1.309-0.027-2.474-0.074-3.637
			c-0.05-1.247-0.119-2.495-0.228-3.738c-0.039-0.443-0.067-0.741,0.492-0.846c0.174-0.032,0.388-0.395,0.405-0.621
			c0.063-0.803,0.064-1.613,0.058-2.42c-0.002-0.329,0.101-0.79-0.507-0.713c-0.027-0.355-0.213-0.857-0.048-1.035
			c0.37-0.401,0.88-0.72,1.391-0.935C86.512,45.083,90.357,43.51,94.2,41.933z"/>
		<path fill="#FFFFFF" d="M89.717,58.282c-1.027,0.325-2.054,0.651-3.081,0.976c0.997-0.41,1.993-0.819,2.99-1.229
			C89.656,58.113,89.687,58.197,89.717,58.282z"/>
		<path fill="#FFFFFF" d="M85.989,59.495c-1.548,0.65-3.094,1.302-4.64,1.953c-0.05-0.133-0.1-0.265-0.15-0.398
			C82.796,60.532,84.393,60.013,85.989,59.495z"/>
		<path fill="#FFFFFF" d="M74.29,136.452c-0.908,0.75-0.963,0.713-1.428-0.307c-0.527-1.156-1.194-2.255-1.641-3.438
			c-0.638-1.689-1.159-3.424-1.679-5.155c-0.665-2.214-3.264-11.496-3.462-12.481c-0.333-1.656-0.682-3.316-0.882-4.991
			c-0.308-2.583-0.601-5.176-0.703-7.773c-0.085-2.188,0.106-4.387,0.185-6.581c0.048-1.335,0.085-2.672,0.177-4.004
			c0.143-2.068,0.295-4.136,0.506-6.198c0.251-2.449,0.54-4.896,0.865-7.337c0.513-3.848,1.085-7.688,1.607-11.535
			c0.567-4.181,1.143-8.361,1.643-12.55c0.246-2.061,0.33-4.142,0.493-6.213c0.016-0.205,0.128-0.412,0.104-0.607
			c-0.04-0.326-0.153-0.643-0.236-0.963c-0.36,0.154-0.81,0.224-1.055,0.486c-0.268,0.285-0.355,0.745-0.505,1.134
			c-1.071,2.777-2.13,5.559-3.207,8.334c-1.922,4.953-3.857,9.901-5.78,14.854c-1.123,2.893-2.227,5.794-3.35,8.687
			c-0.72,1.857-1.441,3.714-2.213,5.549c-0.093,0.22-0.523,0.445-0.775,0.423c-0.583-0.051-1.146-0.288-1.729-0.384
			c-0.802-0.133-1.066-0.689-1.289-1.372c-0.766-2.342-1.576-4.669-2.362-7.005c-1.344-3.994-2.677-7.992-4.027-11.985
			c-0.732-2.165-1.501-4.318-2.234-6.483c-0.75-2.218-1.495-4.438-2.2-6.67c-0.158-0.499-0.408-0.786-0.874-0.585
			c-0.149,0.064-0.176,0.59-0.135,0.887c0.179,1.291,0.466,2.57,0.597,3.866c0.187,1.846,0.25,3.705,0.406,5.555
			c0.226,2.683,0.507,5.361,0.73,8.044c0.426,5.137,0.933,10.27,1.206,15.415c0.199,3.75,0.085,7.517,0.095,11.276
			c0.01,3.512-0.302,7.009-1.125,10.415c-0.64,2.65-1.514,5.255-2.45,7.82c-1.899,5.205-4.781,9.924-7.483,14.729
			c-0.852,1.514-0.868,1.518-2.511,1.023c-2.62-0.789-5.233-1.6-7.851-2.393c-2.346-0.71-4.696-1.407-7.043-2.114
			c-0.304-0.092-0.6-0.214-1.024-0.366c1.654-2.306,3.233-4.431,4.725-6.614c1.207-1.765,2.309-3.602,3.457-5.407
			c2.134-3.356,3.809-6.936,4.914-10.749c0.582-2.009,0.959-4.089,1.268-6.16c0.287-1.926,0.408-3.882,0.513-5.829
			c0.101-1.869,0.12-3.744,0.116-5.616c-0.006-2.592-0.047-5.185-0.113-7.777c-0.066-2.597-0.13-5.195-0.285-7.787
			c-0.516-8.618-1.08-17.233-1.598-25.85c-0.037-0.623-0.368-0.633-0.763-0.548c-1.532,0.329-3.071,0.645-4.578,1.067
			c-0.571,0.16-0.801,0.101-1.005-0.455c-0.198-0.541-0.524-1.036-0.86-1.678c6.774-1.797,13.414-3.558,20.149-5.345
			c0.225,0.634,0.463,1.265,0.675,1.905c0.841,2.539,1.669,5.082,2.511,7.621c1.551,4.674,3.12,9.343,4.659,14.021
			c1.31,3.981,2.578,7.977,3.885,11.959c0.795,2.422,1.62,4.836,2.466,7.241c0.085,0.243,0.412,0.401,0.627,0.598
			c0.091-0.264,0.176-0.531,0.273-0.793c0.217-0.581,0.425-1.166,0.663-1.739c1.885-4.544,3.78-9.083,5.666-13.627
			c1.909-4.599,3.817-9.198,5.715-13.801c1.268-3.076,2.518-6.16,3.779-9.239c0.258-0.631,0.527-1.257,0.865-2.06
			c4.185,1.981,8.424,3.986,12.689,6.005c-0.572,1.351-2.456,1.785-2.078,3.614c-0.595,0.084-1.142,0.161-1.706,0.241
			c-0.036,0.858-0.033,1.665-0.114,2.463c-0.092,0.905,0.47,1.458,1.028,1.977c0.553,0.514,0.78,1.088,0.778,1.824
			c-0.01,3.288-0.001,6.575,0.009,9.863c0.004,1.436,0.1,2.876,0.023,4.307c-0.13,2.43-0.361,4.854-0.554,7.281
			c-0.124,1.561-0.252,3.123-0.388,4.683c-0.208,2.388-0.468,4.773-0.624,7.164c-0.112,1.722-0.081,3.452-0.135,5.178
			c-0.035,1.124-0.144,2.246-0.157,3.37c-0.012,1.102,0.02,2.207,0.096,3.306c0.232,3.321,0.425,6.647,0.774,9.956
			c0.186,1.763,0.66,3.495,1.008,5.241c0.029,0.145,0.124,0.28,0.137,0.424c0.207,2.291,1.286,4.347,1.768,6.555
			c0.291,1.334,0.247,2.743,0.337,4.12c0.03,0.456,0.063,0.798,0.571,1.087c0.611,0.347,0.523,0.931,0.004,1.417
			c-1.392,1.305-2.748,2.652-4.174,3.918C77.245,134.047,75.758,135.239,74.29,136.452z"/>
		<path fill="#FFFFFF" d="M95.541,140.256c-0.867,0.008-1.736,0.076-2.599,0.169c-0.383,0.041-1.846,0.08-1.864,0.082
			c-1.938,0.18-3.883,0.289-5.989,0.429c0.027-0.545,0.071-0.999,0.067-1.453c-0.011-1.373,0.103-2.757-0.067-4.12
			c-0.819-6.542,5.448-4.308,6.795-4.869c0.999-0.416-2.107-0.49-4.582-0.656c-0.92-0.062-1.759,0.057-2.258-0.139
			c-0.503-0.197-0.181-1.747-0.225-2.146c-0.405-3.655-0.189-7.352-0.275-11.029c-0.077-3.286-0.133-6.572-0.218-9.857
			c-0.102-3.948-0.217-7.896-0.351-11.843c-0.018-0.527-0.183-1.048-0.319-1.785c1.159,0.069,2.177,0.129,3.267,0.193
			c-0.237-1.028-0.982-1.576-1.612-2.229c-0.294-0.305-0.557-0.785-0.571-1.194c-0.139-4.199-0.224-8.399-0.324-12.599
			c-0.004-0.18-0.065-0.381-0.005-0.535c0.095-0.241,0.271-0.45,0.413-0.673c0.122,0.224,0.346,0.446,0.35,0.671
			c0.07,4.286,0.103,8.572,0.179,12.858c0.009,0.501,0.227,0.998,0.349,1.497c0.121-0.018,0.243-0.035,0.364-0.053
			c0.058-0.75,0.144-1.499,0.167-2.25c0.031-1.046,0.027-2.093,0.015-3.139c-0.033-2.813-0.089-5.626-0.105-8.439
			c-0.002-0.302,0.196-0.604,0.301-0.907c0.244,0.266,0.632,0.498,0.702,0.804c0.153,0.666,0.188,1.368,0.193,2.056
			c0.026,3.687-0.022,7.376,0.062,11.061c0.037,1.599,0.347,3.19,0.499,4.787c0.125,1.314,0.251,2.631,0.291,3.949
			c0.112,3.686,0.166,7.373,0.267,11.059c0.107,3.924,0.258,7.848,0.357,11.772c0.058,2.306,0.066,4.614,0.068,6.921
			c0.002,1.481,0.122,1.74,1.579,1.94c0.112,0.015,9.639-0.16,10.337,4.562C101.447,139.533,95.914,140.253,95.541,140.256z"/>
		<path fill="#FFFFFF" d="M95.512,129.637c-1.26,0.045-2.519,0.111-3.777,0.184c-0.458,0.027-0.614-0.116-0.62-0.611
			c-0.041-3.686-0.123-7.372-0.181-11.058c-0.039-2.515-0.06-5.029-0.089-7.544c-0.05-4.223-0.094-8.445-0.152-12.668
			c-0.056-4.012-0.138-8.024-0.189-12.036c-0.031-2.424-0.043-4.849-0.029-7.274c0.007-1.184-0.597-1.943-1.614-2.35
			c-2.286-0.914-4.63-1.338-7.056-0.536c-0.134,0.044-0.277,0.062-0.475,0.105c-0.068-0.24-0.171-0.431-0.17-0.622
			c0.018-2.66,0.06-5.32,0.073-7.98c0.003-0.689-0.083-1.378-0.109-2.068c-0.044-1.177,0.255-1.445,1.67-1.427
			c0.015,3.045,0.031,6.096,0.046,9.147c0.116,0.029,0.232,0.058,0.348,0.088c0.133-0.207,0.383-0.414,0.38-0.619
			c-0.036-3.14-0.104-6.28-0.169-9.42c-0.001-0.052-0.053-0.104-0.118-0.223c-0.645,0.193-1.308,0.391-1.969,0.588
			c-0.323-1.312-0.237-1.473,0.703-1.801c1.791-0.624,3.579-1.258,5.355-1.922c2.308-0.863,4.603-1.761,6.908-2.635
			c0.186-0.07,0.4-0.068,0.593-0.098c0.481,0.95-0.116,1.272-0.811,1.516c-3.186,1.121-6.368,2.256-9.569,3.33
			c-0.546,0.183-0.696,0.414-0.686,0.946c0.027,1.533-0.019,3.067,0.024,4.599c0.009,0.316,0.274,0.624,0.433,0.962
			c-0.648,0.366-0.792,1.48-0.049,2.033c-0.462,0.51-0.675,3.318-0.272,4.395c3.666-1.28,7.337-2.563,11.166-3.9
			c0.005,1.52-0.004,2.948,0.018,4.374c0.052,3.41,0.276,6.829,0.086,10.226c-0.058,1.038-0.442,2.156-0.467,3.266
			c-0.032,1.462-0.015,2.925-0.011,4.388c0,0.146,0.007,0.378,0.091,0.424c0.967,0.529,0.658,1.445,0.674,2.235
			c0.045,2.242,0.017,4.486,0.068,6.729c0.092,4.01,0.236,8.019,0.332,12.028c0.075,3.112,0.106,6.225,0.167,9.337
			c0.033,1.705,0.065,3.41,0.141,5.113C96.229,129.407,96.046,129.618,95.512,129.637z"/>
		<path fill="#FFFFFF" d="M101.127,132.983c-0.139,0.002-0.277,0.004-0.416,0.005c-0.021-5.281-0.041-10.562-0.062-15.842
			c0.054-0.001,0.109-0.001,0.163-0.002C100.917,122.424,101.022,127.704,101.127,132.983z"/>
		<path fill="#FFFFFF" d="M102.905,86.562c-2.531,1.96-4.319,4.481-4.94,7.588c-0.423,2.113-0.371,4.343-0.356,6.519
			c0.039,5.935,0.174,11.869,0.266,17.803c0.08,5.156-0.113,6.522-0.007,11.677c0.015,0.734-0.728,1.015-0.648-0.936
			c0.016-0.389,0.063-0.779,0.053-1.167c-0.112-4.284-0.25-8.568-0.345-12.852c-0.107-4.852-0.18-9.704-0.26-14.556
			c-0.037-2.212-0.05-4.424-0.087-6.636c-0.008-0.491,0.075-1.043-0.571-1.268c-0.083-0.029-0.169-0.194-0.168-0.294
			c0.016-1.517,0.046-3.034,0.074-4.67c1.663,0.467,2.921,0.109,3.502-1.344c0.771,0.196,1.489,0.593,2.115,0.48
			c0.64-0.115,1.19-0.729,1.903-1.209C103.248,86.014,103.145,86.376,102.905,86.562z"/>
		<path fill="#FFFFFF" d="M112.478,72.772c-1.133-1.277-2.322-2.618-3.582-4.039c0.82-0.476,1.473,0.113,2.085,0.559
			C112.214,70.192,112.792,71.743,112.478,72.772z"/>
		<path fill="#FFFFFF" d="M109.185,66.117c-0.007-0.68,0.421-1.024,1.013-0.93c0.397,0.063,0.744,0.438,1.114,0.673
			c0.005,0.146,0.01,0.292,0.015,0.438c-0.379,0.279-0.732,0.731-1.144,0.794C109.608,67.181,109.191,66.773,109.185,66.117z"/>
		<path fill="#FFFFFF" d="M133.619,58.014c-3.249,0.796-6.481,1.662-9.72,2.501c-2.492,0.645-4.978,1.312-7.476,1.933
			c-2.09,0.52-3.538,1.638-4.008,3.857c-0.112,0.528-0.435,1.072-0.808,1.471c-0.635,0.678-1.382,0.515-2.131,0.016
			c0.574-0.137,1.205-0.122,1.581-0.424c0.392-0.315,0.677-0.915,0.754-1.429c0.1-0.665-0.758-1.45-1.409-1.475
			c-1.213-0.047-1.73,0.462-2.019,2.057c-1.306-1.297-2.842-1.706-4.548-1.139c-1.681,0.559-2.618,1.898-3.23,3.518
			c-0.105-0.003-0.211-0.006-0.316-0.009c-0.091-0.409-0.253-0.817-0.262-1.227c-0.089-4.097-0.153-8.195-0.226-12.292
			c-0.004-0.238-0.03-0.475-0.05-0.774c-1.04-0.031-2.046-0.097-3.051-0.077c-0.57,0.011-0.713-0.195-0.715-0.733
			c-0.02-4.613-0.069-9.225-0.089-13.838c-0.001-0.294,0.167-0.589,0.256-0.883c0.099,0.023,0.199,0.045,0.298,0.068
			c0.028,2.836,0.056,5.672,0.085,8.508c0.114,0.001,0.229,0.002,0.343,0.003c0.031-2.759,0.063-5.518,0.094-8.276
			c2.154,3.688,5.303,5.619,9.59,5.95c-0.816,0.375-1.619,0.785-2.452,1.117c-2.049,0.817-4.101,1.63-6.177,2.375
			c-0.791,0.283-1.043,0.71-0.992,1.529c0.068,1.1-0.002,2.208-0.015,3.511c1.076-0.134,2.045-0.213,2.997-0.386
			c0.795-0.144,1.116,0.006,1.118,0.916c0.004,3.087,0.094,6.173,0.163,9.259c0.026,1.155,0.279,1.422,1.427,1.187
			c1.989-0.406,3.966-0.88,5.928-1.399c4.562-1.207,9.109-2.469,13.668-3.687c4.503-1.202,9.017-2.363,13.517-3.574
			c1.144-0.308,1.052,0.761,1.593,1.217C136.009,57.604,134.793,57.726,133.619,58.014z"/>
		<path fill="#FFFFFF" d="M141.178,59.426c0.009,0.195-0.02,0.391-0.042,0.763c-1.336-1.423-3.126-2.163-3.817-3.984
			c-0.099-0.26-0.215-0.553-0.186-0.816c0.126-1.143,0.488-2.29,0.429-3.419c-0.283-5.364-0.666-10.722-1.034-16.081
			c-0.109-1.583-0.139-1.581,1.461-1.674c1.202-0.07,1.518,0.15,1.617,1.357c0.402,4.927,0.806,9.854,1.143,14.786
			C140.954,53.377,141.042,56.403,141.178,59.426z"/>
	</g>
	<path d="M84.507,140.03c0.072,0.928-0.298,1.119-1.231,0.904c-0.049-2.484-0.099-4.935-0.145-7.385
		c-0.006-0.329,0.029-0.661-0.001-0.988c-0.121-1.316-0.061-2.575,0.583-3.799c0.202-0.385,0.173-1.212-0.098-1.469
		c-1.021-0.966-0.666-2.172-0.761-3.285c-0.087-1.023-0.003-2.059-0.03-3.088c-0.114-4.464-0.244-8.928-0.361-13.393
		c-0.032-1.228-0.034-2.457-0.061-3.686c-0.018-0.816-0.067-4.735-0.071-4.988c-0.032-2.036-0.021-4.073-0.017-6.11
		c0-0.105,0.061-0.209,0.166-0.548c0.836,1.588,1.107,3.073,1.054,4.638c-0.009,0.267-0.057,0.535-0.048,0.801
		c0.095,2.661,0.225,5.322,0.294,7.984c0.091,3.491,0.131,6.983,0.203,10.475c0.064,3.077,0.149,6.153,0.215,9.229
		c0.076,3.559,0.142,7.119,0.212,10.678C84.436,137.343,84.403,138.692,84.507,140.03z"/>
	<g>
		<path d="M141.851,38.681c-0.048-0.828-0.26-1.402-1.227-1.397c-0.045-0.671-0.015-1.282-0.137-1.862
			c-0.397-1.892-0.312-2.55-2.715-2.366c-1.022,0.079-2.06,0.388-3.033-0.252c-0.157-0.103-0.416-0.127-0.608-0.089
			c-1.229,0.24-2.524,0.336-3.663,0.804c-2.176,0.895-4.257,2.018-6.386,3.029c-4.041,1.919-8.082,3.839-12.138,5.727
			c-0.723,0.337-1.571,0.423-2.267,0.799c-1.957,1.054-4.488,0.828-6.029-0.674c-1.12-1.091-1.643-2.513-1.842-4.002
			c-0.229-1.715-0.252-3.457-0.375-5.186c-0.081-1.132-0.544-2.083-1.462-2.764c-0.753-0.559-1.461-0.499-1.854,0.311
			c-0.541,1.115-0.944,2.307-1.303,3.497c-0.29,0.96-0.325,2.003-0.659,2.943c-0.542,1.528-2.053,1.849-3.341,2.459
			c-0.816,0.386-1.539,0.36-2.304-0.012c-1.099-0.534-2.177-1.117-3.299-1.597c-1.22-0.522-2.535,0.137-2.69,1.469
			c-0.096,0.828,0.185,1.727,0.424,2.558c0.162,0.563-0.062,0.762-0.479,0.967c-0.578,0.284-1.145,0.592-1.813,0.94
			c-4.474-2.137-9.08-4.337-13.783-6.583c-5.105,12.401-10.199,24.775-15.37,37.336c-0.582-1.596-1.102-2.95-1.569-4.321
			c-0.835-2.446-1.624-4.908-2.459-7.354c-0.72-2.11-1.458-4.214-2.223-6.308c-1.122-3.07-2.181-6.168-3.442-9.181
			c-1.559-3.727-3.32-7.368-4.933-11.073c-0.304-0.697-0.675-0.93-1.355-0.772c-1.904,0.442-3.818,0.849-5.706,1.352
			c-2.333,0.621-4.636,1.352-6.966,1.984c-2.654,0.72-5.32,1.396-7.989,2.059c-0.697,0.173-0.838,0.484-0.468,1.074
			c0.802,1.279,1.565,2.585,2.412,3.834c1.523,2.244,3.112,4.444,4.636,6.687c0.39,0.574,0.872,1.229,0.913,1.872
			c0.305,4.778,0.513,9.563,0.746,14.346c0.186,3.827,0.4,7.653,0.535,11.482c0.094,2.651,0.195,5.312,0.076,7.959
			c-0.122,2.71-0.547,5.405-0.767,8.112c-0.229,2.807-0.953,5.503-1.911,8.116c-1.386,3.783-3.247,7.34-5.575,10.65
			c-2.292,3.26-4.511,6.571-6.783,9.845c-0.329,0.474-0.375,0.828,0.065,1.246c1.005,0.957,1.791,2.105,2.752,3.113
			c2.315,2.429,4.417,5.06,6.666,7.553c0.68,0.753,1.123,1.784,2.387,1.963c1.013,0.143,1.982,0.604,2.968,0.931
			c2.938,0.975,5.874,1.957,8.814,2.925c0.584,0.192,1.351,0.633,1.734,0.42c0.444-0.246,0.551-1.091,0.814-1.671
			c1.537-3.392,3.099-6.773,4.609-10.176c1.371-3.09,2.809-6.144,3.88-9.369c1.458-4.391,2.817-8.791,3.079-13.442
			c0.188-3.347,0.401-6.699,0.389-10.048c-0.01-3.057-0.297-6.113-0.481-9.168c-0.148-2.458-0.324-4.914-0.483-7.371
			c-0.014-0.219,0.005-0.44,0.008-0.66c0.31,0.335,0.467,0.7,0.587,1.077c0.34,1.075,0.502,2.243,1.026,3.217
			c1.406,2.614,2.957,5.151,4.475,7.705c0.151,0.254,0.435,0.505,0.711,0.595c1.409,0.461,2.847,0.834,4.249,1.314
			c0.553,0.189,0.821-0.036,1.001-0.438c0.934-2.093,1.846-4.196,2.758-6.299c0.551-1.269,1.089-2.544,1.633-3.816
			c0.185,0.17,0.215,0.306,0.2,0.437c-0.161,1.384-0.351,2.766-0.488,4.152c-0.134,1.357-0.224,2.719-0.319,4.079
			c-0.129,1.86-0.384,3.725-0.333,5.581c0.086,3.149,0.308,6.299,0.593,9.438c0.171,1.887,0.541,3.758,0.873,5.627
			c0.337,1.903,1.662,6.66,1.735,6.913c0.522,1.819,0.923,3.676,1.524,5.468c1.024,3.055,2.077,6.106,3.293,9.088
			c0.622,1.524,1.566,2.93,2.473,4.319c0.539,0.826,1.289,1.514,2.105,2.448c0,0,19.804-1.118,21.621-1.477
			c1.868-0.369,3.954-2.662,4.641-3.604c0.436-0.597,0.809-1.383,0.843-2.101c0.081-1.701-0.045-3.414-0.108-5.121
			c-0.097-2.637-0.208-5.273-0.319-7.909c-0.165-3.895-0.34-7.79-0.502-11.686c-0.136-3.265-0.266-6.53-0.383-9.796
			c-0.049-1.376-0.07-2.754-0.081-4.131c-0.009-1.139-0.086-2.291,0.055-3.414c0.135-1.08,0.35-2.207,0.813-3.178
			c1.16-2.435,3.301-3.696,5.877-4.056c1.523-0.213,3.101-0.628,4.664,0.203c0.938,0.499,1.624-0.069,1.621-1.134
			c-0.006-2.395-0.025-4.79-0.046-7.184c-0.011-1.317-0.113-2.64-0.028-3.95c0.058-0.897-0.057-1.697-0.446-2.496
			c-0.47-0.966-0.205-1.911,0.358-2.711c1.022-1.451,2.482-2.359,4.188-2.764c3.37-0.8,6.759-1.521,10.142-2.266
			c4.395-0.968,8.793-1.918,13.182-2.912c0.276-0.063,0.685-0.444,0.686-0.68c0.014-2.814,0.045-5.632-0.09-8.441
			C142.448,47.189,142.1,42.938,141.851,38.681z M134.132,37.896c-0.175,4.407,0.339,8.75,1.285,13.051
			C133.776,46.72,133.165,42.389,134.132,37.896z M115.273,49.922c0.595,1.304,1.522,2.056,2.966,1.88
			c1.451-0.177,2.146-1.151,2.368-2.542c0.261,1.034-0.11,1.848-0.864,2.503c-0.842,0.733-1.843,0.889-2.846,0.467
			C115.918,51.817,115.257,51.075,115.273,49.922z M96.041,58.185c0.041-0.945,0.035-1.893,0.05-2.888
			c1.352-0.32,1.498-0.19,1.405,1.061c-0.044,0.592-0.027,1.191-0.002,1.785c0.02,0.477-0.12,0.73-0.65,0.706
			C96.387,58.829,96.014,58.806,96.041,58.185z M99.5,84.032c-0.144-0.077-0.279-0.105-0.338-0.188
			c-0.502-0.711-1.163-1.094-2.049-1.005c-0.656,0.066-0.815-0.268-0.817-0.857c-0.011-2.42-0.065-4.84-0.081-7.26
			c-0.031-4.607-0.046-9.215-0.069-13.822c-0.002-0.445-0.011-0.891-0.018-1.398c1.35-0.202,1.324-0.202,1.33,1.019
			c0.013,2.57,0.069,5.141,0.072,7.711c0.001,0.454-0.105,0.934-0.271,1.359c-0.574,1.462,0.395,2.949,1.967,2.968
			c0.173,0.002,0.346,0.023,0.585,0.041c-0.03,0.719-0.06,1.395-0.086,2.072c-0.053,1.373-0.113,2.746-0.152,4.119
			c-0.034,1.193,0.327,2.231,1.244,3.044c0.423,0.374,0.825,0.772,1.406,1.319C101.039,83.005,100.059,82.955,99.5,84.032z
			 M102.604,84.985c0.013,0.664-0.646,1.381-1.278,1.388c-0.699,0.008-1.302-0.562-1.343-1.27c-0.045-0.785,0.41-1.321,1.172-1.379
			C101.9,83.668,102.59,84.268,102.604,84.985z M85.164,64.087c3.136-1.095,6.247-2.262,9.37-3.398
			c0.106-0.039,0.233-0.02,0.384-0.03c0.204,0.525,0.256,1.008-0.391,1.233c-3.388,1.18-6.782,2.345-10.212,3.528
			C83.951,64.474,84.484,64.325,85.164,64.087z M84.208,62.286c3.545-1.253,7.072-2.5,10.641-3.761
			c0.262,0.842-0.022,1.172-0.675,1.391c-3.249,1.088-6.486,2.213-9.812,3.354C84.314,62.968,84.27,62.689,84.208,62.286z
			 M84.784,66.347c3.25-1.133,6.483-2.313,9.724-3.471c0.102-0.037,0.224-0.019,0.342-0.027c0.306,0.681,0.107,1.072-0.579,1.306
			c-3.086,1.049-6.165,2.12-9.248,3.178c-0.239,0.082-0.494,0.119-0.792,0.188C84.106,66.898,84.171,66.561,84.784,66.347z
			 M84.899,68.428c3.245-1.133,6.487-2.271,9.731-3.406c0.082-0.029,0.171-0.04,0.326-0.075c0.234,0.662,0.159,1.052-0.544,1.292
			c-3.335,1.136-6.654,2.316-10.026,3.497C84.118,69.112,84.21,68.668,84.899,68.428z M84.642,70.691
			c3.398-1.231,6.816-2.406,10.273-3.61c0.251,0.748,0.133,1.108-0.698,1.377c-2.986,0.965-5.935,2.044-8.9,3.076
			c-0.305,0.106-0.617,0.189-0.926,0.282c-0.094-0.076-0.189-0.152-0.283-0.228C84.283,71.28,84.389,70.783,84.642,70.691z
			 M84.368,72.964c3.532-1.269,7.07-2.54,10.675-3.835c0.206,0.744,0.098,1.116-0.642,1.365c-3.308,1.111-6.592,2.295-9.966,3.482
			C84.411,73.617,84.391,73.31,84.368,72.964z M96.367,84.279c0.01-0.834,0.261-1.141,0.982-0.795
			c0.584,0.28,1.196,0.799,1.465,1.368c0.401,0.849-0.07,1.622-0.81,2.153c-0.656,0.471-1.328,0.425-1.786,0.098
			C96.279,86.003,96.357,85.142,96.367,84.279z M94.277,49.698c-1.894,0.639-3.789,1.277-5.808,1.958
			c0.251-0.679,0.426-1.167,1.136-1.398c1.712-0.555,3.388-1.218,5.105-1.847C95.025,49.037,94.951,49.47,94.277,49.698z
			 M94.986,50.87c-0.192,0.228-0.338,0.567-0.583,0.667c-1.533,0.628-3.087,1.203-4.73,1.832c-0.234-0.255-0.452-0.492-0.701-0.763
			c1.953-0.668,3.87-1.323,5.787-1.978C94.835,50.708,94.91,50.789,94.986,50.87z M94.448,47.525
			c-1.769,0.662-3.572,1.233-5.363,1.834c-0.083-0.061-0.166-0.121-0.249-0.182c0.159-0.304,0.246-0.788,0.487-0.883
			c1.763-0.694,3.556-1.31,5.34-1.95c0.112,0.076,0.223,0.152,0.335,0.227C94.818,46.899,94.713,47.425,94.448,47.525z
			 M88.446,46.638c2.065-0.753,4.139-1.508,6.218-2.266c0.373,0.697,0.199,1.056-0.456,1.288c-1.562,0.553-3.108,1.15-4.666,1.717
			C88.903,47.609,88.595,47.269,88.446,46.638z M94.412,43.504c-2.279,0.832-4.568,1.636-6.859,2.433
			c-0.134,0.047-0.31-0.026-0.511-0.257c2.54-0.993,5.08-1.987,7.62-2.98c0.077,0.088,0.154,0.176,0.231,0.264
			C94.735,43.149,94.612,43.431,94.412,43.504z M87.215,46.753c0.477,0.183,0.762,0.868,1.17,1.365
			c-0.372,1.466-0.628,2.809-1.06,4.093c-0.5,1.488-1.137,2.931-1.755,4.376c-0.135,0.315-0.391,0.677-0.684,0.801
			c-0.481,0.205-1.037,0.233-1.561,0.336c-0.08-0.47-0.185-0.938-0.23-1.412c-0.031-0.321,0.035-0.65,0.037-0.976
			c0.011-2.052-0.157-4.123,0.071-6.15C83.436,47.112,85.063,45.927,87.215,46.753z M91.684,51.027
			c0.018,0.053,0.036,0.106,0.054,0.159c-1.249,0.455-2.498,0.91-3.746,1.365c-0.031-0.085-0.062-0.169-0.093-0.254
			C89.161,51.874,90.422,51.45,91.684,51.027z M89.695,54.397c1.67-0.678,3.385-1.246,5.192-1.893
			c0.031,0.561,0.317,1.05-0.454,1.301c-1.695,0.551-3.364,1.179-5.047,1.767c-0.132,0.046-0.287,0.024-0.74,0.054
			C89.092,55.085,89.317,54.551,89.695,54.397z M99.21,71.873c-0.653,0.011-1.484-0.782-1.477-1.409
			c0.008-0.675,0.788-1.457,1.45-1.455c0.761,0.003,1.409,0.661,1.419,1.44C100.613,71.244,100.011,71.86,99.21,71.873z
			 M99.642,63.309c-0.29,0.299-0.444,0.457-0.599,0.615c-0.168-0.189-0.425-0.358-0.474-0.574c-0.033-0.146,0.233-0.511,0.356-0.506
			C99.124,62.85,99.315,63.08,99.642,63.309z M98.889,62.081c-0.044-2.294-0.089-4.589-0.133-6.883
			c0.138-0.004,0.277-0.008,0.416-0.011c0.051,2.292,0.103,4.583,0.154,6.875C99.18,62.068,99.035,62.075,98.889,62.081z
			 M99.401,64.623c-0.032,0.386-0.061,0.731-0.099,1.195c-0.386-0.057-0.718-0.106-1.072-0.158
			c-0.002-0.328-0.003-0.591-0.005-0.959C98.598,64.676,98.971,64.651,99.401,64.623z M98.398,66.431
			c0.01-0.048,0.845-0.042,0.87,0.053c0.142,0.527,0.272,1.118,0.154,1.628c-0.056,0.242-0.672,0.354-1.035,0.525
			c-0.09-0.065-0.18-0.13-0.27-0.195C98.198,67.769,98.259,67.092,98.398,66.431z M86.787,39.135
			c1.242,0.548,2.453,1.166,3.904,1.864c-1.54,0.618-2.932,1.177-4.398,1.765c-0.265-1.002-0.524-1.852-0.706-2.717
			C85.453,39.413,86.162,38.859,86.787,39.135z M94.2,41.931c0.151-0.062,0.328-0.057,0.722-0.12
			c-0.249,0.302-0.334,0.51-0.478,0.564c-3.148,1.197-6.304,2.373-9.455,3.563c-1.242,0.469-2.071,1.399-2.27,2.667
			c-0.215,1.375-0.184,2.79-0.232,4.188c-0.05,1.457-0.043,2.916-0.108,4.372c-0.041,0.905,0.522,1.619,1.437,1.544
			c1.527-0.125,2.839-0.813,4.088-1.782c0.688,0.494,1.33,0.543,1.737-0.415c0.039-0.093,0.174-0.17,0.281-0.206
			c1.623-0.547,3.248-1.086,4.933-1.647c0.143,0.581,0.235,1.053-0.476,1.303c-4.333,1.525-8.661,3.063-13.189,4.666
			c-0.025-1.309-0.027-2.474-0.074-3.637c-0.05-1.247-0.119-2.495-0.228-3.738c-0.039-0.443-0.067-0.741,0.492-0.846
			c0.174-0.032,0.388-0.395,0.405-0.621c0.063-0.803,0.064-1.613,0.058-2.42c-0.002-0.329,0.101-0.79-0.507-0.713
			c-0.027-0.355-0.213-0.857-0.048-1.035c0.37-0.401,0.88-0.72,1.391-0.935C86.512,45.081,90.357,43.508,94.2,41.931z M89.717,58.28
			c-1.027,0.325-2.054,0.651-3.081,0.976c0.997-0.41,1.993-0.819,2.99-1.229C89.656,58.111,89.687,58.196,89.717,58.28z
			 M85.99,59.493c-1.548,0.65-3.094,1.302-4.64,1.953c-0.05-0.133-0.1-0.265-0.15-0.398C82.796,60.53,84.393,60.011,85.99,59.493z
			 M74.29,136.45c-0.908,0.75-0.963,0.713-1.428-0.307c-0.527-1.156-1.194-2.255-1.641-3.438c-0.638-1.689-1.159-3.424-1.679-5.155
			c-0.665-2.214-3.264-11.496-3.462-12.481c-0.333-1.656-0.682-3.316-0.882-4.991c-0.308-2.583-0.601-5.176-0.703-7.773
			c-0.085-2.188,0.106-4.387,0.185-6.581c0.048-1.335,0.085-2.672,0.177-4.004c0.143-2.068,0.295-4.136,0.506-6.198
			c0.251-2.449,0.54-4.896,0.865-7.337c0.513-3.848,1.085-7.688,1.607-11.535c0.567-4.181,1.143-8.361,1.643-12.55
			c0.246-2.061,0.33-4.142,0.493-6.213c0.016-0.205,0.128-0.412,0.104-0.607c-0.04-0.326-0.153-0.643-0.236-0.963
			c-0.36,0.154-0.81,0.224-1.055,0.486c-0.268,0.285-0.355,0.745-0.505,1.134c-1.071,2.777-2.13,5.559-3.207,8.334
			c-1.922,4.953-3.857,9.901-5.78,14.854c-1.123,2.893-2.227,5.794-3.35,8.687c-0.72,1.857-1.441,3.714-2.213,5.549
			c-0.093,0.22-0.523,0.445-0.775,0.423c-0.583-0.051-1.146-0.288-1.729-0.384c-0.802-0.133-1.066-0.689-1.289-1.372
			c-0.766-2.342-1.576-4.669-2.362-7.005c-1.344-3.994-2.677-7.992-4.027-11.985c-0.732-2.165-1.501-4.318-2.234-6.483
			c-0.75-2.218-1.495-4.438-2.2-6.67c-0.158-0.499-0.408-0.786-0.874-0.585c-0.149,0.064-0.176,0.59-0.135,0.887
			c0.179,1.291,0.466,2.57,0.597,3.866c0.187,1.846,0.25,3.705,0.406,5.555c0.226,2.683,0.507,5.361,0.73,8.044
			c0.426,5.137,0.933,10.27,1.206,15.415c0.199,3.75,0.085,7.517,0.095,11.276c0.01,3.512-0.302,7.009-1.125,10.415
			c-0.64,2.65-1.514,5.255-2.45,7.82c-1.899,5.205-4.781,9.924-7.483,14.729c-0.852,1.514-0.868,1.518-2.511,1.023
			c-2.62-0.789-5.233-1.6-7.851-2.393c-2.346-0.71-4.696-1.407-7.043-2.114c-0.304-0.092-0.6-0.214-1.024-0.366
			c1.654-2.306,3.233-4.431,4.725-6.614c1.207-1.765,2.309-3.602,3.457-5.407c2.134-3.356,3.809-6.936,4.914-10.749
			c0.582-2.009,0.959-4.089,1.268-6.16c0.287-1.926,0.408-3.882,0.513-5.829c0.101-1.869,0.12-3.744,0.116-5.616
			c-0.006-2.592-0.047-5.185-0.113-7.777c-0.066-2.597-0.13-5.195-0.285-7.787c-0.516-8.618-1.08-17.233-1.598-25.85
			c-0.037-0.623-0.368-0.633-0.763-0.548c-1.532,0.329-3.071,0.645-4.578,1.067c-0.571,0.16-0.801,0.101-1.005-0.455
			c-0.198-0.541-0.524-1.036-0.86-1.678c6.774-1.797,13.414-3.558,20.149-5.345c0.225,0.634,0.463,1.265,0.675,1.905
			c0.841,2.539,1.669,5.082,2.511,7.621c1.551,4.674,3.12,9.343,4.659,14.021c1.31,3.981,2.578,7.977,3.885,11.959
			c0.795,2.422,1.62,4.836,2.466,7.241c0.085,0.243,0.412,0.401,0.627,0.598c0.091-0.264,0.176-0.531,0.273-0.793
			c0.217-0.581,0.425-1.166,0.663-1.739c1.885-4.544,3.78-9.083,5.666-13.627c1.909-4.599,3.817-9.198,5.715-13.801
			c1.268-3.076,2.518-6.16,3.779-9.239c0.258-0.631,0.527-1.257,0.865-2.06c4.185,1.981,8.424,3.986,12.689,6.005
			c-0.572,1.351-2.456,1.785-2.078,3.614c-0.595,0.084-1.142,0.161-1.706,0.241c-0.036,0.858-0.033,1.665-0.114,2.463
			c-0.092,0.905,0.47,1.458,1.028,1.977c0.553,0.514,0.78,1.088,0.778,1.824c-0.01,3.288-0.001,6.575,0.009,9.863
			c0.004,1.436,0.1,2.876,0.023,4.307c-0.13,2.43-0.361,4.854-0.554,7.281c-0.124,1.561-0.252,3.123-0.388,4.683
			c-0.208,2.388-0.468,4.773-0.624,7.164c-0.112,1.722-0.081,3.452-0.135,5.178c-0.035,1.124-0.144,2.246-0.157,3.37
			c-0.012,1.102,0.02,2.207,0.096,3.306c0.232,3.321,0.425,6.647,0.774,9.956c0.186,1.763,0.66,3.495,1.008,5.241
			c0.029,0.145,0.124,0.28,0.137,0.424c0.207,2.291,1.286,4.347,1.768,6.555c0.291,1.334,0.247,2.743,0.337,4.12
			c0.03,0.456,0.063,0.798,0.571,1.087c0.611,0.347,0.523,0.931,0.004,1.417c-1.392,1.305-2.748,2.652-4.174,3.918
			C77.245,134.046,75.758,135.237,74.29,136.45z M84.507,140.03c0.072,0.928-0.298,1.119-1.231,0.904
			c-0.049-2.484-0.099-4.935-0.145-7.385c-0.006-0.329,0.029-0.661-0.001-0.988c-0.121-1.316-0.061-2.575,0.583-3.799
			c0.202-0.385,0.173-1.212-0.098-1.469c-1.021-0.966-0.666-2.172-0.761-3.285c-0.087-1.023-0.003-2.059-0.03-3.088
			c-0.114-4.464-0.244-8.928-0.361-13.393c-0.032-1.228-0.034-2.457-0.061-3.686c-0.018-0.816-0.067-4.735-0.071-4.988
			c-0.032-2.036-0.021-4.073-0.017-6.11c0-0.105,0.061-0.209,0.166-0.548c0.836,1.588,1.107,3.073,1.054,4.638
			c-0.009,0.267-0.057,0.535-0.048,0.801c0.095,2.661,0.225,5.322,0.294,7.984c0.091,3.491,0.131,6.983,0.203,10.475
			c0.064,3.077,0.149,6.153,0.215,9.229c0.076,3.559,0.142,7.119,0.212,10.678C84.436,137.343,84.403,138.692,84.507,140.03z
			 M95.541,140.255c-0.867,0.008-1.736,0.076-2.599,0.169c-0.383,0.041-1.846,0.08-1.864,0.082c-1.938,0.18-3.883,0.289-5.989,0.429
			c0.027-0.545,0.071-0.999,0.067-1.453c-0.011-1.373,0.103-2.757-0.067-4.12c-0.819-6.542,5.448-4.308,6.795-4.869
			c0.999-0.416-2.107-0.49-4.582-0.656c-0.92-0.062-1.759,0.057-2.258-0.139c-0.503-0.197-0.18-1.747-0.225-2.146
			c-0.405-3.655-0.189-7.352-0.275-11.029c-0.077-3.286-0.133-6.572-0.218-9.857c-0.102-3.948-0.217-7.896-0.351-11.843
			c-0.018-0.527-0.183-1.048-0.319-1.785c1.159,0.069,2.177,0.129,3.267,0.193c-0.237-1.028-0.982-1.576-1.612-2.229
			c-0.294-0.305-0.557-0.785-0.571-1.194c-0.139-4.199-0.224-8.399-0.324-12.599c-0.004-0.18-0.065-0.381-0.005-0.535
			c0.095-0.241,0.271-0.45,0.413-0.673c0.122,0.224,0.346,0.446,0.35,0.671c0.07,4.286,0.103,8.572,0.179,12.858
			c0.009,0.501,0.227,0.998,0.349,1.497c0.121-0.018,0.243-0.035,0.364-0.053c0.058-0.75,0.144-1.499,0.167-2.25
			c0.031-1.046,0.027-2.093,0.015-3.139c-0.033-2.813-0.089-5.626-0.105-8.439c-0.002-0.302,0.196-0.604,0.301-0.907
			c0.244,0.266,0.632,0.498,0.702,0.804c0.153,0.666,0.188,1.368,0.193,2.056c0.026,3.687-0.022,7.376,0.062,11.061
			c0.037,1.599,0.347,3.19,0.499,4.787c0.125,1.314,0.251,2.631,0.291,3.949c0.112,3.686,0.166,7.373,0.267,11.059
			c0.107,3.924,0.258,7.848,0.357,11.772c0.058,2.306,0.066,4.614,0.068,6.921c0.002,1.481,0.122,1.74,1.579,1.94
			c0.112,0.015,9.639-0.16,10.337,4.562C101.447,139.531,95.914,140.251,95.541,140.255z M95.512,129.636
			c-1.26,0.045-2.519,0.111-3.777,0.184c-0.458,0.027-0.614-0.116-0.62-0.611c-0.041-3.686-0.123-7.372-0.181-11.058
			c-0.039-2.515-0.06-5.029-0.089-7.544c-0.05-4.223-0.094-8.445-0.152-12.668c-0.056-4.012-0.138-8.024-0.189-12.036
			c-0.031-2.424-0.043-4.849-0.029-7.274c0.007-1.184-0.597-1.943-1.614-2.35c-2.286-0.914-4.63-1.338-7.056-0.536
			c-0.134,0.044-0.277,0.062-0.475,0.105c-0.068-0.24-0.171-0.431-0.17-0.622c0.018-2.66,0.06-5.32,0.073-7.98
			c0.003-0.689-0.083-1.378-0.109-2.068c-0.044-1.177,0.255-1.445,1.67-1.427c0.015,3.045,0.031,6.096,0.046,9.147
			c0.116,0.029,0.232,0.058,0.348,0.088c0.133-0.207,0.383-0.414,0.38-0.619c-0.036-3.14-0.104-6.28-0.169-9.42
			c-0.001-0.052-0.053-0.104-0.118-0.223c-0.645,0.193-1.308,0.391-1.969,0.588c-0.323-1.312-0.237-1.473,0.703-1.801
			c1.791-0.624,3.579-1.258,5.355-1.922c2.308-0.863,4.603-1.761,6.908-2.635c0.186-0.07,0.4-0.068,0.593-0.098
			c0.481,0.95-0.116,1.272-0.811,1.516c-3.186,1.121-6.368,2.256-9.569,3.33c-0.546,0.183-0.696,0.414-0.686,0.946
			c0.027,1.533-0.019,3.067,0.024,4.599c0.009,0.316,0.274,0.624,0.433,0.962c-0.648,0.366-0.792,1.48-0.049,2.033
			c-0.462,0.51-0.675,3.318-0.272,4.395c3.666-1.28,7.337-2.563,11.166-3.9c0.005,1.52-0.004,2.948,0.018,4.374
			c0.052,3.41,0.276,6.829,0.086,10.226c-0.058,1.038-0.442,2.156-0.467,3.266c-0.032,1.462-0.015,2.925-0.01,4.388
			c0,0.146,0.007,0.378,0.091,0.424c0.967,0.529,0.658,1.445,0.674,2.235c0.045,2.242,0.017,4.486,0.068,6.729
			c0.092,4.01,0.236,8.019,0.332,12.028c0.075,3.112,0.106,6.225,0.167,9.337c0.033,1.705,0.065,3.41,0.141,5.113
			C96.229,129.405,96.046,129.617,95.512,129.636z M101.127,132.982c-0.139,0.002-0.277,0.004-0.416,0.005
			c-0.021-5.281-0.041-10.562-0.062-15.842c0.054-0.001,0.109-0.001,0.163-0.002C100.917,122.422,101.022,127.702,101.127,132.982z
			 M102.905,86.56c-2.532,1.96-4.319,4.481-4.94,7.588c-0.423,2.113-0.371,4.343-0.356,6.519c0.039,5.935,0.174,11.869,0.266,17.803
			c0.08,5.156-0.113,6.522-0.007,11.677c0.015,0.734-0.728,1.015-0.648-0.936c0.016-0.389,0.063-0.779,0.053-1.167
			c-0.112-4.284-0.25-8.568-0.345-12.852c-0.107-4.852-0.18-9.704-0.26-14.556c-0.037-2.212-0.05-4.424-0.087-6.636
			c-0.008-0.491,0.075-1.043-0.571-1.268c-0.083-0.029-0.169-0.194-0.168-0.294c0.016-1.517,0.046-3.034,0.074-4.67
			c1.663,0.467,2.921,0.109,3.502-1.344c0.771,0.196,1.489,0.593,2.115,0.48c0.64-0.115,1.19-0.729,1.903-1.209
			C103.248,86.012,103.145,86.375,102.905,86.56z M112.582,81.898c-0.043,1.592-0.563,2.018-2.185,2.064
			c-1.345,0.038-2.692,0.013-4.037,0.063c-2.306,0.085-4.116-1.798-4.225-3.988c-0.07-1.401-0.062-2.806-0.067-4.209
			c-0.004-1.01,0.714-1.564,1.452-2.016c2.407-1.475,4.845-1.659,7.341-0.133c0.417,0.255,1.036,0.18,1.679,0.274
			c-0.004-0.02,0.063,0.147,0.063,0.313C112.607,76.81,112.652,79.355,112.582,81.898z M101.731,73.012
			c-0.137-1.932,1.132-3.305,2.814-3.672c3.033-0.662,5.07,0.601,6.661,2.998c0.202,0.304,0.419,0.598,0.563,0.999
			C108.48,71.253,105.174,71.094,101.731,73.012z M112.478,72.771c-1.133-1.277-2.322-2.618-3.582-4.039
			c0.821-0.476,1.473,0.113,2.085,0.559C112.214,70.191,112.792,71.741,112.478,72.771z M109.185,66.115
			c-0.007-0.68,0.421-1.024,1.013-0.93c0.397,0.063,0.744,0.438,1.114,0.673c0.005,0.146,0.01,0.292,0.015,0.438
			c-0.379,0.279-0.732,0.731-1.144,0.794C109.608,67.18,109.191,66.772,109.185,66.115z M133.619,58.012
			c-3.249,0.796-6.481,1.662-9.72,2.501c-2.492,0.645-4.978,1.312-7.476,1.933c-2.09,0.52-3.538,1.638-4.008,3.857
			c-0.112,0.528-0.435,1.072-0.808,1.471c-0.635,0.678-1.382,0.515-2.131,0.016c0.574-0.137,1.205-0.122,1.581-0.424
			c0.392-0.315,0.677-0.915,0.754-1.429c0.1-0.665-0.758-1.45-1.409-1.475c-1.213-0.047-1.73,0.462-2.019,2.057
			c-1.306-1.297-2.842-1.706-4.548-1.139c-1.681,0.559-2.618,1.898-3.23,3.518c-0.105-0.003-0.211-0.006-0.316-0.009
			c-0.091-0.409-0.253-0.817-0.262-1.227c-0.089-4.097-0.153-8.195-0.226-12.292c-0.004-0.238-0.03-0.475-0.05-0.774
			c-1.04-0.031-2.046-0.097-3.051-0.077c-0.57,0.011-0.713-0.195-0.715-0.733c-0.02-4.613-0.069-9.225-0.089-13.838
			c-0.001-0.294,0.167-0.589,0.256-0.883c0.099,0.023,0.199,0.045,0.298,0.068c0.028,2.836,0.056,5.672,0.085,8.508
			c0.114,0.001,0.229,0.002,0.343,0.003c0.031-2.759,0.063-5.518,0.094-8.276c2.154,3.688,5.303,5.619,9.59,5.95
			c-0.816,0.375-1.619,0.785-2.452,1.117c-2.049,0.817-4.101,1.63-6.177,2.375c-0.791,0.283-1.043,0.71-0.992,1.529
			c0.068,1.1-0.002,2.208-0.015,3.511c1.076-0.134,2.045-0.213,2.997-0.386c0.795-0.144,1.116,0.006,1.118,0.916
			c0.004,3.087,0.094,6.173,0.163,9.259c0.026,1.155,0.279,1.422,1.427,1.187c1.989-0.406,3.966-0.88,5.928-1.399
			c4.562-1.207,9.109-2.469,13.668-3.687c4.503-1.202,9.017-2.363,13.517-3.574c1.144-0.308,1.052,0.761,1.593,1.217
			C136.009,57.602,134.793,57.724,133.619,58.012z M141.178,59.425c0.009,0.195-0.02,0.391-0.042,0.763
			c-1.336-1.423-3.126-2.163-3.817-3.984c-0.099-0.26-0.215-0.553-0.186-0.816c0.126-1.143,0.488-2.29,0.429-3.419
			c-0.283-5.364-0.666-10.722-1.034-16.081c-0.109-1.583-0.139-1.581,1.461-1.674c1.202-0.07,1.518,0.15,1.617,1.357
			c0.402,4.927,0.806,9.854,1.143,14.786C140.954,53.375,141.042,56.402,141.178,59.425z"/>
		<ellipse transform="matrix(0.9978 -0.0664 0.0664 0.9978 -8.8226 6.3386)" cx="91.007" cy="135.981" rx="4.715" ry="2.481"/>
	</g>
</g>
</svg>
