<?xml version="1.0" encoding="utf-8"?>
<!-- Generator: Adobe Illustrator 19.0.1, SVG Export Plug-In . SVG Version: 6.00 Build 0)  -->
<svg version="1.1" id="Layer_1" xmlns="http://www.w3.org/2000/svg" xmlns:xlink="http://www.w3.org/1999/xlink" x="0px" y="0px"
	 viewBox="0 0 30 30" enable-background="new 0 0 30 30" xml:space="preserve">
<g>
	<path fill="#FFFFFF" d="M15.001,0.004c3.484,0,6.967-0.007,10.451,0.002C28.095,0.013,29.981,1.768,30,4.216
		c0.02,2.547-1.83,4.339-4.553,4.344c-7.012,0.014-14.023,0.012-21.035,0C1.822,8.556-0.024,6.715,0,4.216
		c0.024-2.411,1.882-4.198,4.416-4.208C7.944-0.007,11.472,0.004,15.001,0.004z"/>
	<path fill="#FFFFFF" d="M14.993,19.28c-3.528,0-7.056,0.011-10.585-0.004C1.82,19.265-0.026,17.427,0,14.927
		c0.025-2.41,1.884-4.2,4.42-4.204c7.056-0.011,14.113-0.012,21.169,0c2.528,0.004,4.393,1.809,4.411,4.212
		c0.018,2.492-1.824,4.323-4.423,4.339C22.049,19.295,18.521,19.28,14.993,19.28z"/>
	<path fill="#FFFFFF" d="M15.001,21.434c3.483,0,6.967-0.007,10.45,0.002c2.643,0.007,4.529,1.762,4.549,4.21
		c0.02,2.547-1.835,4.341-4.552,4.345c-7.012,0.012-14.023,0.012-21.035,0C1.821,29.986-0.024,28.145,0,25.646
		c0.024-2.411,1.882-4.198,4.416-4.208C7.944,21.423,11.472,21.434,15.001,21.434z"/>
</g>
</svg>
