<?xml version="1.0" encoding="utf-8"?>
<!-- Generator: Adobe Illustrator 16.0.0, SVG Export Plug-In . SVG Version: 6.00 Build 0)  -->
<!DOCTYPE svg PUBLIC "-//W3C//DTD SVG 1.1//EN" "http://www.w3.org/Graphics/SVG/1.1/DTD/svg11.dtd">
<svg version="1.1" id="Layer_1" xmlns="http://www.w3.org/2000/svg" xmlns:xlink="http://www.w3.org/1999/xlink" x="0px" y="0px"
	 width="40px" height="40px" viewBox="15.5 25.5 40 40" enable-background="new 15.5 25.5 40 40" xml:space="preserve">
<rect x="15.5" y="41.5" fill="#212121" width="10" height="2"/>
<rect x="15.5" y="47.5" fill="#212121" width="18" height="2"/>
<rect x="15.5" y="51.5" fill="#212121" width="18" height="2"/>
<rect x="15.5" y="55.5" fill="#212121" width="18" height="2"/>
<rect x="15.5" y="59.5" fill="#212121" width="18" height="2"/>
<g>
	<rect x="38" y="26" fill="#656565" width="17" height="17"/>
	<g>
		<path fill="#212121" d="M54.5,26.5v16h-16v-16H54.5 M55.5,25.5h-18v18h18V25.5L55.5,25.5z"/>
	</g>
</g>
<rect x="15.5" y="63.5" fill="#212121" width="5.831" height="2"/>
<rect x="37.5" y="63.5" fill="#212121" width="13" height="2"/>
<rect x="15.5" y="29.5" fill="#212121" width="18" height="2"/>
<rect x="15.5" y="33.5" fill="#212121" width="18" height="2"/>
<rect x="37.5" y="51.5" fill="#212121" width="18" height="2"/>
<rect x="37.5" y="55.5" fill="#212121" width="18" height="2"/>
<rect x="15.5" y="25.5" fill="#212121" width="18" height="2"/>
<rect x="37.5" y="47.5" fill="#212121" width="18" height="2"/>
<rect x="37.5" y="59.5" fill="#212121" width="18" height="2"/>
<rect x="15.5" y="37.5" fill="#212121" width="18" height="2"/>
</svg>
