<?xml version="1.0" encoding="utf-8"?>
<!-- Generator: Adobe Illustrator 16.0.0, SVG Export Plug-In . SVG Version: 6.00 Build 0)  -->
<!DOCTYPE svg PUBLIC "-//W3C//DTD SVG 1.1//EN" "http://www.w3.org/Graphics/SVG/1.1/DTD/svg11.dtd">
<svg version="1.1" id="Layer_1" xmlns="http://www.w3.org/2000/svg" xmlns:xlink="http://www.w3.org/1999/xlink" x="0px" y="0px"
	 width="40px" height="40px" viewBox="0 0 40 40" enable-background="new 0 0 40 40" xml:space="preserve">
<g>
	<g>
		<path fill="#656565" d="M3,34.5c-1.378,0-2.5-1.121-2.5-2.5V8c0-1.379,1.122-2.5,2.5-2.5h34c1.378,0,2.5,1.121,2.5,2.5v24
			c0,1.379-1.122,2.5-2.5,2.5H3z M15.5,26.883L26.973,20L15.5,13.117V26.883z"/>
	</g>
	<g>
		<path fill="#212121" d="M37,6c1.104,0,2,0.896,2,2v24c0,1.104-0.896,2-2,2H3c-1.103,0-2-0.896-2-2V8c0-1.104,0.897-2,2-2H37
			 M15,27.768l1.515-0.908l10-6l1.428-0.857l-1.428-0.856l-10-6L15,12.235v1.767v12V27.768 M37,5H3C1.343,5,0,6.343,0,8v24
			c0,1.657,1.343,3,3,3h34c1.657,0,3-1.343,3-3V8C40,6.343,38.657,5,37,5L37,5z M16,26V14l10,6L16,26L16,26z"/>
	</g>
</g>
</svg>
