<?xml version="1.0" encoding="utf-8"?>
<!-- Generator: Adobe Illustrator 16.0.0, SVG Export Plug-In . SVG Version: 6.00 Build 0)  -->
<!DOCTYPE svg PUBLIC "-//W3C//DTD SVG 1.1//EN" "http://www.w3.org/Graphics/SVG/1.1/DTD/svg11.dtd">
<svg version="1.1" id="Layer_1" xmlns="http://www.w3.org/2000/svg" xmlns:xlink="http://www.w3.org/1999/xlink" x="0px" y="0px"
	 width="40px" height="40px" viewBox="0 0 40 40" enable-background="new 0 0 40 40" xml:space="preserve">
<g>
	<polygon fill="#656565" points="5.5,30.697 5.5,15.814 19.5,22.813 19.5,37.693 	"/>
	<path fill="#212121" d="M6,16.624l13,6.497v13.764L6,30.389V16.624 M5,15.006v16l15,7.497v-16L5,15.006L5,15.006z"/>
</g>
<g>
	<polygon fill="#DBDBDB" points="21.5,22.813 35.5,15.811 35.5,30.693 21.5,37.693 	"/>
	<path fill="#212121" d="M35,16.62v13.764l-13,6.501V23.121L35,16.62 M36,15.002l-15,7.501v16l15-7.501V15.002L36,15.002z"/>
</g>
<g>
	<polygon fill="#DBDBDB" points="0.853,9.243 17.778,3.602 20.279,7.77 5.144,14.392 	"/>
	<path fill="#212121" d="M17.555,4.202l2.002,3.338L5.286,13.783L1.705,9.485L17.555,4.202 M18,3L0,9l5,6l16-7L18,3L18,3z"/>
</g>
<g>
	<polygon fill="#656565" points="21.641,7.747 23.286,3.631 39.229,9.258 35.822,14.365 	"/>
	<path fill="#212121" d="M23.572,4.263l14.882,5.252l-2.81,4.217L22.279,7.494L23.572,4.263 M23,3l-2,5l15,7l4-6L23,3L23,3z"/>
</g>
</svg>
