<?xml version="1.0" encoding="utf-8"?>
<!-- Generator: Adobe Illustrator 16.0.0, SVG Export Plug-In . SVG Version: 6.00 Build 0)  -->
<!DOCTYPE svg PUBLIC "-//W3C//DTD SVG 1.1//EN" "http://www.w3.org/Graphics/SVG/1.1/DTD/svg11.dtd">
<svg version="1.1" id="Layer_1" xmlns="http://www.w3.org/2000/svg" xmlns:xlink="http://www.w3.org/1999/xlink" x="0px" y="0px"
	 width="40px" height="40px" viewBox="0 0 40 40" enable-background="new 0 0 40 40" xml:space="preserve">
<g>
	<path fill="#656565" d="M20,39.5c-9.649,0-17.5-5.654-17.5-12.604c0-5.092,4.223-9.655,10.759-11.627l0.727-0.219l-0.489-0.581
		C12.209,12.938,11.5,10.997,11.5,9c0-4.687,3.813-8.5,8.5-8.5c4.688,0,8.5,3.813,8.5,8.5c0,1.997-0.709,3.938-1.997,5.469
		l-0.489,0.581l0.729,0.219C33.277,17.241,37.5,21.805,37.5,26.896C37.5,33.846,29.648,39.5,20,39.5z"/>
	<path fill="#212121" d="M20,1c4.411,0,8,3.589,8,8c0,1.879-0.667,3.707-1.88,5.146l-0.979,1.163l1.455,0.439
		C32.917,17.655,37,22.031,37,26.896C37,33.57,29.374,39,20,39S3,33.57,3,26.896c0-4.867,4.083-9.244,10.404-11.148l1.455-0.439
		l-0.979-1.163C12.667,12.707,12,10.879,12,9C12,4.589,15.589,1,20,1 M20,0c-4.971,0-9,4.029-9,9c0,2.207,0.797,4.225,2.115,5.791
		C6.591,16.759,2,21.436,2,26.896C2,34.133,10.059,40,20,40c9.941,0,18-5.867,18-13.104c0-5.461-4.591-10.14-11.115-12.106
		C28.203,13.225,29,11.207,29,9C29,4.029,24.971,0,20,0L20,0z"/>
</g>
</svg>
