<?xml version="1.0" encoding="utf-8"?>
<!-- Generator: Adobe Illustrator 16.0.0, SVG Export Plug-In . SVG Version: 6.00 Build 0)  -->
<!DOCTYPE svg PUBLIC "-//W3C//DTD SVG 1.1//EN" "http://www.w3.org/Graphics/SVG/1.1/DTD/svg11.dtd">
<svg version="1.1" id="Layer_1" xmlns="http://www.w3.org/2000/svg" xmlns:xlink="http://www.w3.org/1999/xlink" x="0px" y="0px"
	 width="40px" height="40px" viewBox="0 0 40 40" enable-background="new 0 0 40 40" xml:space="preserve">
<g>
	<path fill="#656565" d="M12.506,15.743c-1.87,0-3.629-0.739-4.952-2.083c-2.736-2.779-2.736-7.299,0-10.077
		C8.877,2.24,10.637,1.5,12.505,1.5c1.87,0,3.629,0.74,4.954,2.083c2.734,2.778,2.734,7.299,0,10.077
		C16.135,15.004,14.375,15.743,12.506,15.743z"/>
	<path fill="#212121" d="M12.505,2L12.505,2c1.735,0,3.368,0.688,4.596,1.934c2.545,2.586,2.545,6.791,0,9.376
		c-1.229,1.247-2.86,1.935-4.595,1.935c-1.735,0-3.367-0.688-4.596-1.935c-2.545-2.586-2.545-6.791,0-9.376
		C9.139,2.688,10.771,2,12.505,2 M12.505,1c-1.92,0-3.841,0.744-5.307,2.232c-2.932,2.977-2.931,7.802,0,10.777
		c1.466,1.488,3.387,2.232,5.308,2.232s3.842-0.744,5.308-2.232c2.932-2.978,2.932-7.802,0-10.777C16.349,1.744,14.428,1,12.505,1
		L12.505,1z"/>
</g>
<g>
	<g>
		<path fill="#656565" d="M14.856,17.359c1.552-0.312,2.976-1.073,4.093-2.208c1.113-1.13,1.861-2.568,2.168-4.136l8.209,9.754
			L24.471,25.7L14.856,17.359z"/>
		<path fill="#212121" d="M21.359,12.082l7.291,8.662l-4.207,4.271l-8.542-7.414c1.279-0.413,2.447-1.129,3.404-2.1
			C20.254,14.54,20.953,13.366,21.359,12.082 M20.764,9.818c-0.096,1.82-0.813,3.604-2.172,4.981
			c-1.356,1.378-3.112,2.106-4.906,2.204l10.813,9.381l5.506-5.589L20.764,9.818L20.764,9.818z"/>
	</g>
	<g>
		<polygon fill="#656565" points="27.135,28.014 31.604,23.477 33.674,25.936 29.559,30.115 		"/>
		<path fill="#212121" d="M31.574,24.218l1.424,1.691l-3.467,3.521l-1.666-1.445L31.574,24.218 M31.633,22.732l-5.227,5.309
			l3.18,2.76l4.766-4.839L31.633,22.732L31.633,22.732z"/>
	</g>
</g>
<path fill="none" stroke="#212121" stroke-miterlimit="10" d="M9.662,35.279c0,0,5.411-7.063,11.596,0
	c6.184,7.063,9.275,3.14,12.367,0c3.092-3.141,0-6.279,0-6.279"/>
</svg>
