<?xml version="1.0" encoding="utf-8"?>
<!-- Generator: Adobe Illustrator 16.0.0, SVG Export Plug-In . SVG Version: 6.00 Build 0)  -->
<!DOCTYPE svg PUBLIC "-//W3C//DTD SVG 1.1//EN" "http://www.w3.org/Graphics/SVG/1.1/DTD/svg11.dtd">
<svg version="1.1" id="Layer_1" xmlns="http://www.w3.org/2000/svg" xmlns:xlink="http://www.w3.org/1999/xlink" x="0px" y="0px"
	 width="40px" height="40px" viewBox="0 0 40 40" enable-background="new 0 0 40 40" xml:space="preserve">
<g>
	<path fill="#656565" d="M20,39.5C9.248,39.5,0.5,30.752,0.5,20S9.248,0.5,20,0.5S39.5,9.248,39.5,20S30.752,39.5,20,39.5z M20,9.5
		C14.21,9.5,9.5,14.21,9.5,20S14.21,30.5,20,30.5S30.5,25.79,30.5,20S25.79,9.5,20,9.5z"/>
	<path fill="#212121" d="M20,1c10.477,0,19,8.523,19,19c0,10.477-8.523,19-19,19C9.523,39,1,30.477,1,20C1,9.523,9.523,1,20,1
		 M20,31c6.064,0,11-4.936,11-11c0-6.065-4.936-11-11-11C13.935,9,9,13.935,9,20C9,26.064,13.935,31,20,31 M20,0
		C8.954,0,0,8.954,0,20s8.954,20,20,20s20-8.954,20-20S31.046,0,20,0L20,0z M20,30c-5.523,0-10-4.479-10-10c0-5.521,4.477-10,10-10
		c5.523,0,10,4.479,10,10C30,25.521,25.523,30,20,30L20,30z"/>
</g>
<g>
	<path fill="#656565" d="M20,28.5c-4.687,0-8.5-3.813-8.5-8.5c0-4.687,3.813-8.5,8.5-8.5c4.688,0,8.5,3.813,8.5,8.5
		C28.5,24.688,24.688,28.5,20,28.5z M20,15c-2.757,0-5,2.243-5,5s2.243,5,5,5s5-2.243,5-5S22.757,15,20,15z"/>
	<path fill="#212121" d="M20,12c4.411,0,8,3.589,8,8s-3.589,8-8,8s-8-3.589-8-8S15.589,12,20,12 M20,25.5c3.033,0,5.5-2.468,5.5-5.5
		s-2.467-5.5-5.5-5.5s-5.5,2.468-5.5,5.5S16.967,25.5,20,25.5 M20,11c-4.971,0-9,4.03-9,9s4.029,9,9,9c4.971,0,9-4.03,9-9
		S24.971,11,20,11L20,11z M20,24.5c-2.485,0-4.5-2.016-4.5-4.5c0-2.485,2.015-4.5,4.5-4.5c2.484,0,4.5,2.015,4.5,4.5
		C24.5,22.484,22.484,24.5,20,24.5L20,24.5z"/>
</g>
<polygon fill="#212121" points="9.5,18 1,16 3,11 10,16 "/>
<polygon fill="#212121" points="12,27 5,32 2,28 1,24 10,22 "/>
</svg>
