<?xml version="1.0" encoding="utf-8"?>
<!-- Generator: Adobe Illustrator 16.0.0, SVG Export Plug-In . SVG Version: 6.00 Build 0)  -->
<!DOCTYPE svg PUBLIC "-//W3C//DTD SVG 1.1//EN" "http://www.w3.org/Graphics/SVG/1.1/DTD/svg11.dtd">
<svg version="1.1" id="Layer_1" xmlns="http://www.w3.org/2000/svg" xmlns:xlink="http://www.w3.org/1999/xlink" x="0px" y="0px"
	 width="100px" height="108px" viewBox="-297.5 421 100 108" enable-background="new -297.5 421 100 108" xml:space="preserve">
<path fill-rule="evenodd" clip-rule="evenodd" fill="#7D7D7D" d="M-246.672,498.78c-8.994-8.866,0.811-14.106-6.079-21.721
	c1.751,7.862-5.812,10.503-5.442,14.781C-257.721,497.309-246.672,498.78-246.672,498.78z"/>
<path fill-rule="evenodd" clip-rule="evenodd" fill="#7D7D7D" d="M-261.684,490.818c0,0-1.072-2.776,3.983-9.116
	c2.867-3.598,4.242-10.433,1.286-16.945c0,0,10.371-0.746,12.724,9.207c2.667,11.276,2.272,14.059,12.442,19.616
	c-4.234-13.865,9.775-16.923,11.207-28.734c1.835-15.141-4.439-22.329-14.054-31.14c1.147,5.95,1.88,7.291-0.193,14.615
	C-236.852,435.407-250.673,421-250.673,421c-8.333,17.964-10.107,15.041-19.76,24.201
	C-280.087,454.361-285.149,473.776-261.684,490.818z"/>
<g>
	<path fill="#7D7D7D" d="M-287.666,515.998h-8.419v8.08h-1.415v-17.225h11.048v1.206h-9.633v6.732h8.419V515.998z"/>
	<path fill="#7D7D7D" d="M-282.254,524.078h-1.415v-18.455h1.415V524.078z"/>
	<path fill="#7D7D7D" d="M-270.172,524.078c-0.096-0.434-0.163-0.808-0.202-1.123c-0.041-0.315-0.06-0.634-0.06-0.957
		c-0.476,0.669-1.11,1.226-1.903,1.667c-0.793,0.442-1.684,0.663-2.676,0.663c-1.252,0-2.226-0.331-2.919-0.994
		c-0.694-0.663-1.041-1.551-1.041-2.663c0-1.183,0.513-2.129,1.541-2.838c1.026-0.711,2.411-1.065,4.156-1.065h2.842v-1.586
		c0-0.913-0.295-1.632-0.886-2.152c-0.59-0.52-1.417-0.781-2.48-0.781c-0.991,0-1.813,0.25-2.467,0.746
		c-0.654,0.497-0.981,1.104-0.981,1.821l-1.309-0.012l-0.023-0.071c-0.047-0.954,0.39-1.809,1.313-2.561
		c0.924-0.754,2.099-1.13,3.526-1.13c1.419,0,2.561,0.358,3.425,1.076s1.296,1.747,1.296,3.087v6.294
		c0,0.449,0.025,0.889,0.078,1.315c0.051,0.424,0.136,0.848,0.255,1.264H-270.172z M-274.846,523.073
		c1.024,0,1.927-0.238,2.712-0.715c0.785-0.479,1.352-1.087,1.701-1.829v-2.673h-2.866c-1.293,0-2.325,0.273-3.098,0.821
		c-0.773,0.548-1.16,1.229-1.16,2.041c0,0.694,0.241,1.26,0.72,1.698C-276.358,522.854-275.694,523.073-274.846,523.073z"/>
	<path fill="#7D7D7D" d="M-259.303,512.498l-1.059-0.072c-0.895,0-1.631,0.252-2.205,0.751c-0.576,0.501-0.985,1.189-1.231,2.065
		v8.836h-1.427v-12.801h1.248l0.179,2.131v0.142c0.373-0.789,0.872-1.404,1.499-1.846c0.626-0.441,1.371-0.662,2.236-0.662
		c0.182,0,0.358,0.014,0.529,0.041c0.17,0.027,0.31,0.057,0.422,0.089L-259.303,512.498z"/>
	<path fill="#7D7D7D" d="M-252.333,524.328c-1.611,0-2.948-0.592-4.014-1.775c-1.066-1.184-1.601-2.683-1.601-4.496v-0.65
		c0-1.829,0.53-3.348,1.588-4.554c1.059-1.208,2.341-1.811,3.848-1.811c1.577,0,2.819,0.497,3.721,1.49
		c0.905,0.994,1.356,2.318,1.356,3.976v1.207h-9.085v0.341c0,1.44,0.384,2.646,1.154,3.613c0.768,0.969,1.779,1.451,3.033,1.451
		c0.887,0,1.645-0.121,2.271-0.366c0.626-0.243,1.162-0.595,1.605-1.052l0.607,0.969c-0.484,0.507-1.096,0.909-1.837,1.209
		C-250.43,524.178-251.311,524.328-252.333,524.328z M-252.512,512.248c-1.055,0-1.938,0.399-2.653,1.198
		c-0.713,0.798-1.13,1.799-1.248,3.002l0.023,0.06h7.54v-0.354c0-1.109-0.329-2.037-0.987-2.784
		C-250.496,512.621-251.386,512.248-252.512,512.248z"/>
	<path fill="#7D7D7D" d="M-244.116,524.078v-17.225h4.792c1.99,0,3.679,0.71,5.067,2.131c1.386,1.419,2.081,3.229,2.081,5.43v2.106
		c0,2.208-0.694,4.02-2.081,5.434c-1.388,1.416-3.077,2.124-5.067,2.124H-244.116z M-243.475,507.494v15.945h4.15
		c1.8,0,3.334-0.655,4.603-1.964s1.902-2.962,1.902-4.955v-2.143c0-1.972-0.634-3.612-1.902-4.922
		c-1.268-1.309-2.803-1.962-4.603-1.962H-243.475z"/>
	<path fill="#7D7D7D" d="M-222.842,511.74l-0.833-0.071c-1.148,0-2.082,0.368-2.8,1.105c-0.718,0.737-1.183,1.71-1.397,2.917v8.387
		h-0.643v-12.801h0.523l0.12,2.226v0.438c0.357-0.915,0.888-1.627,1.594-2.136c0.705-0.509,1.574-0.763,2.604-0.763
		c0.183,0,0.352,0.014,0.505,0.041c0.157,0.027,0.289,0.057,0.399,0.089L-222.842,511.74z"/>
	<path fill="#7D7D7D" d="M-221.677,517.431c0-1.877,0.521-3.412,1.564-4.603c1.042-1.191,2.397-1.786,4.06-1.786
		c1.673,0,3.031,0.595,4.074,1.786c1.042,1.19,1.563,2.726,1.563,4.603v0.495c0,1.886-0.521,3.425-1.563,4.614
		c-1.043,1.191-2.392,1.788-4.048,1.788c-1.674,0-3.034-0.597-4.08-1.788c-1.047-1.189-1.57-2.729-1.57-4.614V517.431z
		 M-221.034,517.926c0,1.61,0.452,2.973,1.355,4.088c0.904,1.118,2.12,1.675,3.652,1.675c1.504,0,2.71-0.559,3.614-1.68
		c0.904-1.119,1.355-2.48,1.355-4.083v-0.495c0-1.57-0.455-2.921-1.367-4.053c-0.913-1.132-2.121-1.696-3.627-1.696
		c-1.514,0-2.722,0.564-3.626,1.696c-0.903,1.132-1.355,2.482-1.355,4.053V517.926z"/>
	<path fill="#7D7D7D" d="M-197.5,517.915c0,1.972-0.429,3.533-1.284,4.684c-0.857,1.152-2.039,1.729-3.545,1.729
		c-1.006,0-1.885-0.201-2.634-0.604c-0.749-0.403-1.334-0.947-1.753-1.633V529h-0.643v-17.723h0.499l0.131,2.296
		c0.428-0.789,1.012-1.407,1.749-1.857c0.736-0.45,1.614-0.674,2.628-0.674c1.514,0,2.701,0.598,3.562,1.792
		c0.859,1.195,1.29,2.806,1.29,4.832V517.915z M-198.154,517.666c0-1.773-0.359-3.215-1.077-4.323
		c-0.717-1.108-1.754-1.661-3.11-1.661c-1.245,0-2.211,0.311-2.901,0.933c-0.689,0.624-1.183,1.389-1.474,2.297v5.986
		c0.316,0.85,0.848,1.529,1.593,2.034c0.745,0.503,1.68,0.757,2.806,0.757c1.356,0,2.389-0.521,3.097-1.562
		c0.709-1.04,1.065-2.445,1.065-4.212V517.666z"/>
</g>
</svg>
