<?xml version="1.0" encoding="utf-8"?>
<!-- Generator: Adobe Illustrator 16.0.0, SVG Export Plug-In . SVG Version: 6.00 Build 0)  -->
<!DOCTYPE svg PUBLIC "-//W3C//DTD SVG 1.1//EN" "http://www.w3.org/Graphics/SVG/1.1/DTD/svg11.dtd">
<svg version="1.1" id="Layer_1" xmlns="http://www.w3.org/2000/svg" xmlns:xlink="http://www.w3.org/1999/xlink" x="0px" y="0px"
	 width="10px" height="10px" viewBox="0 0 10 10" enable-background="new 0 0 10 10" xml:space="preserve">
<path fill="#ABABAB" d="M9.83,9.043L6.652,5.875C7.11,5.262,7.391,4.509,7.391,3.686C7.391,1.65,5.736,0,3.695,0S0,1.65,0,3.686
	c0,2.035,1.654,3.685,3.695,3.685c0.81,0,1.552-0.267,2.161-0.708l3.18,3.171c0.222,0.221,0.581,0.22,0.801,0
	C10.06,9.614,10.051,9.264,9.83,9.043z M1,3.686C1,2.205,2.209,1,3.695,1s2.695,1.205,2.695,2.686c0,1.48-1.209,2.685-2.695,2.685
	S1,5.166,1,3.686z"/>
</svg>
