<?xml version="1.0" encoding="utf-8"?>
<!-- Generator: Adobe Illustrator 16.0.0, SVG Export Plug-In . SVG Version: 6.00 Build 0)  -->
<!DOCTYPE svg PUBLIC "-//W3C//DTD SVG 1.1//EN" "http://www.w3.org/Graphics/SVG/1.1/DTD/svg11.dtd">
<svg version="1.1" id="Layer_1" xmlns="http://www.w3.org/2000/svg" xmlns:xlink="http://www.w3.org/1999/xlink" x="0px" y="0px"
	 width="40px" height="40px" viewBox="15.5 25.5 40 40" enable-background="new 15.5 25.5 40 40" xml:space="preserve">
<g>
	<polygon fill="#72C717" points="41,65 41,53 30,53 30,65 21,65 21,50.707 35.5,36.207 50,50.707 50,65 	"/>
	<path fill="#51920B" d="M35.5,36.914l14,14V64.5h-8v-11v-1h-1h-10h-1v1v11h-8V50.914L35.5,36.914 M35.5,35.5l-15,15v15h10v-12h10
		v12h10v-15L35.5,35.5L35.5,35.5z"/>
</g>
<g>
	<polygon fill="#A5E55A" points="35.5,32.793 19.5,48.793 16.207,45.5 35.5,26.207 54.793,45.5 51.5,48.793 	"/>
	<path fill="#51920B" d="M35.5,26.914L54.086,45.5L51.5,48.086L36.207,32.793L35.5,32.086l-0.707,0.707L19.5,48.086L16.914,45.5
		L35.5,26.914 M35.5,25.5l-20,20l4,4l16-16l16,16l4-4L35.5,25.5L35.5,25.5z"/>
</g>
</svg>
