<?xml version="1.0" encoding="utf-8"?>
<!-- Generator: Adobe Illustrator 16.0.0, SVG Export Plug-In . SVG Version: 6.00 Build 0)  -->
<!DOCTYPE svg PUBLIC "-//W3C//DTD SVG 1.1//EN" "http://www.w3.org/Graphics/SVG/1.1/DTD/svg11.dtd">
<svg version="1.1" id="Layer_1" xmlns="http://www.w3.org/2000/svg" xmlns:xlink="http://www.w3.org/1999/xlink" x="0px" y="0px"
	 width="40px" height="40px" viewBox="0 0 40 40" enable-background="new 0 0 40 40" xml:space="preserve">
<g>
	<path fill="#72C717" d="M3.604,39.5c-1.711,0-3.104-1.57-3.104-3.501v-9.998c0-1.931,1.392-3.501,3.104-3.501h10.793
		c1.711,0,3.104,1.57,3.104,3.501v9.998c0,1.931-1.392,3.501-3.104,3.501H3.604z"/>
	<g>
		<path fill="#51920B" d="M14.396,23C15.832,23,17,24.348,17,26.001v9.998C17,37.652,15.832,39,14.396,39H3.604
			C2.168,39,1,37.652,1,35.999v-9.998C1,24.348,2.168,23,3.604,23H14.396 M14.396,22H3.604C1.614,22,0,23.792,0,26.001v9.998
			C0,38.208,1.614,40,3.604,40h10.793C16.386,40,18,38.208,18,35.999v-9.998C18,23.792,16.386,22,14.396,22L14.396,22z"/>
	</g>
</g>
<g opacity="0.9">
	<path fill="#A5E55A" d="M3.6,17.5c-1.709,0-3.1-1.57-3.1-3.5V4c0-1.93,1.391-3.5,3.1-3.5h10.8c1.709,0,3.1,1.57,3.1,3.5v10
		c0,1.93-1.391,3.5-3.1,3.5H3.6z"/>
	<g>
		<path fill="#51920B" d="M14.4,1C15.833,1,17,2.346,17,4v10c0,1.654-1.167,3-2.6,3H3.6C2.167,17,1,15.654,1,14V4
			c0-1.654,1.167-3,2.6-3H14.4 M14.4,0H3.6C1.612,0,0,1.792,0,4v10c0,2.209,1.612,4,3.6,4h10.8c1.988,0,3.6-1.792,3.6-4V4
			C18,1.792,16.388,0,14.4,0L14.4,0z"/>
	</g>
</g>
<g>
	<path fill="#72C717" d="M25.604,17.5c-1.711,0-3.104-1.57-3.104-3.5V4c0-1.93,1.393-3.5,3.104-3.5h10.793
		C38.107,0.5,39.5,2.07,39.5,4v10c0,1.93-1.393,3.5-3.104,3.5H25.604z"/>
	<g>
		<path fill="#51920B" d="M36.396,1C37.832,1,39,2.346,39,4v10c0,1.654-1.168,3-2.604,3H25.604C24.168,17,23,15.654,23,14V4
			c0-1.654,1.168-3,2.604-3H36.396 M36.396,0H25.604C23.614,0,22,1.792,22,4v10c0,2.208,1.614,4,3.604,4h10.793
			C38.386,18,40,16.208,40,14V4C40,1.792,38.386,0,36.396,0L36.396,0z"/>
	</g>
</g>
<g opacity="0.9">
	<path fill="#A5E55A" d="M25.602,39.5c-1.711,0-3.102-1.57-3.102-3.501v-9.998c0-1.931,1.391-3.501,3.102-3.501H36.4
		c1.709,0,3.101,1.57,3.101,3.501v9.998c0,1.931-1.392,3.501-3.101,3.501H25.602z"/>
	<g>
		<path fill="#51920B" d="M36.398,23C37.833,23,39,24.348,39,26.001v9.998C39,37.652,37.833,39,36.398,39H25.602
			C24.167,39,23,37.652,23,35.999v-9.998C23,24.348,24.167,23,25.602,23H36.398 M36.398,22H25.602C23.611,22,22,23.791,22,26.001
			v9.998C22,38.208,23.611,40,25.602,40H36.4c1.988,0,3.6-1.792,3.6-4.001v-9.998C40,23.791,38.389,22,36.398,22L36.398,22z"/>
	</g>
</g>
</svg>
