<?xml version="1.0" encoding="utf-8"?>
<!-- Generator: Adobe Illustrator 16.0.0, SVG Export Plug-In . SVG Version: 6.00 Build 0)  -->
<!DOCTYPE svg PUBLIC "-//W3C//DTD SVG 1.1//EN" "http://www.w3.org/Graphics/SVG/1.1/DTD/svg11.dtd">
<svg version="1.1" id="Layer_1" xmlns="http://www.w3.org/2000/svg" xmlns:xlink="http://www.w3.org/1999/xlink" x="0px" y="0px"
	 width="40px" height="20px" viewBox="0 0 40 20" enable-background="new 0 0 40 20" xml:space="preserve">
<g>
	<path fill="#A74DE5" d="M2,19.5c-0.827,0-1.5-0.673-1.5-1.5V2c0-0.827,0.673-1.5,1.5-1.5h4c0.795,0,1.152,0.632,1.606,1.595
		C7.932,2.786,8.269,3.5,9,3.5h6c0.729,0,1.5,0.771,1.5,1.5v13c0,0.827-0.673,1.5-1.5,1.5H2z"/>
	<g>
		<path fill="#551B7E" d="M6,1c0.456,0,0.699,0.343,1.154,1.309C7.491,3.022,7.952,4,9,4h6c0.449,0,1,0.551,1,1v13
			c0,0.551-0.449,1-1,1H2c-0.551,0-1-0.449-1-1V2c0-0.551,0.449-1,1-1H6 M6,0H2C0.896,0,0,0.896,0,2v16c0,1.104,0.896,2,2,2h13
			c1.104,0,2-0.896,2-2c0,0,0-11,0-13c0-1-1-2-2-2c-2,0-5,0-6,0S8,0,6,0L6,0z"/>
	</g>
</g>
<g opacity="0.9">
	<path fill="#CF9BF4" d="M8,19.5c-0.827,0-1.5-0.673-1.5-1.5V9c0-0.827,0.673-1.5,1.5-1.5h10c0.827,0,1.5,0.673,1.5,1.5v9
		c0,0.827-0.673,1.5-1.5,1.5H8z"/>
	<g>
		<path fill="#551B7E" d="M18,8c0.551,0,1,0.449,1,1v9c0,0.551-0.449,1-1,1H8c-0.551,0-1-0.449-1-1V9c0-0.551,0.449-1,1-1H18 M18,7
			H8C6.896,7,6,7.896,6,9v9c0,1.104,0.896,2,2,2h10c1.104,0,2-0.896,2-2V9C20,7.896,19.104,7,18,7L18,7z"/>
	</g>
</g>
<g>
	<path fill="#A74DE5" d="M22,19.5c-0.827,0-1.5-0.673-1.5-1.5V2c0-0.827,0.673-1.5,1.5-1.5h4c0.795,0,1.152,0.632,1.605,1.595
		C27.932,2.785,28.27,3.5,29,3.5h6.001c0.729,0,1.5,0.771,1.5,1.5v13c0,0.827-0.673,1.5-1.5,1.5H22z"/>
	<g>
		<path fill="#551B7E" d="M26.001,1c0.456,0,0.699,0.343,1.153,1.309C27.492,3.022,27.953,4,29.001,4h6.001c0.449,0,1,0.551,1,1v13
			c0,0.551-0.449,1-1,1H22c-0.552,0-1-0.449-1-1V2c0-0.551,0.449-1,1-1H26.001 M26.001,0h-4c-1.104,0-2,0.896-2,2v16
			c0,1.104,0.896,2,2,2h13.002c1.104,0,2-0.896,2-2c0,0,0-11,0-13c0-1-1-2-2-2c-2,0-5.001,0-6.001,0C28.001,3,28.001,0,26.001,0
			L26.001,0z"/>
	</g>
</g>
<g opacity="0.9">
	<path fill="#CF9BF4" d="M25.998,19.5c-0.797,0-1.451-0.625-1.498-1.41c0.247-0.615,1.607-4.011,1.963-4.904
		c0.413-1.041,0.813-1.686,1.535-1.686H38c0.797,0,1.451,0.625,1.498,1.41l-1.962,4.904C37.107,18.882,36.721,19.5,36,19.5H25.998z"
		/>
	<g>
		<path fill="#551B7E" d="M38,12c0.497,0,0.911,0.364,0.988,0.839l-1.918,4.789C36.609,18.781,36.339,19,36,19H25.998
			c-0.497,0-0.911-0.364-0.988-0.839c0.338-0.841,1.581-3.943,1.917-4.792C27.38,12.229,27.672,12,27.998,12H38 M38,11H27.998
			c-1.104,0-1.609,1.016-2,2s-2,5-2,5c0,1.104,0.896,2,2,2H36c1.104,0,1.594-0.984,2-2c0.407-1.016,2-5,2-5
			C40,11.896,39.104,11,38,11L38,11z"/>
	</g>
</g>
</svg>
