<?xml version="1.0" encoding="utf-8"?>
<!-- Generator: Adobe Illustrator 16.0.0, SVG Export Plug-In . SVG Version: 6.00 Build 0)  -->
<!DOCTYPE svg PUBLIC "-//W3C//DTD SVG 1.1//EN" "http://www.w3.org/Graphics/SVG/1.1/DTD/svg11.dtd">
<svg version="1.1" id="Layer_1" xmlns="http://www.w3.org/2000/svg" xmlns:xlink="http://www.w3.org/1999/xlink" x="0px" y="0px"
	 width="40px" height="40px" viewBox="15.5 25.5 40 40" enable-background="new 15.5 25.5 40 40" xml:space="preserve">
<g>
	<g>
		<g>
			<path fill="#A74DE5" d="M49.706,65c-0.208,0-0.427-0.039-0.648-0.114c-1.027-0.351-2.053-1.051-2.742-1.87
				c-2.021-2.4-4.004-4.916-5.92-7.35c-0.76-0.965-1.521-1.93-2.284-2.891c-0.152-0.191-0.313-0.377-0.489-0.584l-0.688-0.81
				l-1.332,1.738c-0.797,1.038-1.572,2.05-2.354,3.057c-0.49,0.634-0.977,1.271-1.464,1.906c-1.272,1.666-2.588,3.39-3.957,4.997
				c-0.667,0.784-1.59,1.438-2.47,1.748c-0.274,0.099-0.547,0.148-0.805,0.148c-0.574,0-1.074-0.246-1.406-0.691
				c-0.424-0.566-0.521-1.381-0.267-2.23c0.298-1,0.907-2.035,1.675-2.841c2.135-2.252,4.361-4.481,6.516-6.637
				c0.848-0.849,1.693-1.696,2.539-2.548c0.189-0.193,0.908-0.947,0.908-0.947l0.316-0.329l-1.188-1.373
				c-0.853-0.989-1.656-1.925-2.508-2.83c-0.268-0.28-0.713-0.382-1.039-0.382c-0.162,0-0.397,0.023-0.602,0.141
				c-0.896,0.521-1.643,0.771-2.281,0.771c-0.922,0-1.76-0.52-2.718-1.682c-1.897-2.31-3.793-4.621-5.687-6.934
				c0.177,0.174,0.354,0.346,0.529,0.52c1.321,1.297,2.641,2.593,3.977,3.871c0.084,0.082,0.167,0.172,0.251,0.265
				c0.35,0.381,0.786,0.856,1.456,0.856c0.242,0,0.49-0.065,0.738-0.193l0.42-0.217l-0.19-0.431
				c-0.087-0.196-0.163-0.403-0.239-0.61c-0.183-0.496-0.371-1.01-0.706-1.433c-1.265-1.606-2.561-3.184-3.854-4.76
				c-0.176-0.213-0.352-0.426-0.525-0.64c0.473,0.461,0.944,0.925,1.416,1.387c1.13,1.105,2.26,2.212,3.393,3.313
				c0.406,0.393,0.836,0.729,1.279,1.004c0.213,0.131,0.461,0.149,0.592,0.149c0.303,0,0.551-0.101,0.7-0.278
				c0.271-0.33,0.277-0.93,0.114-1.264c-0.211-0.434-0.499-0.875-0.855-1.311c-0.98-1.209-1.969-2.412-2.955-3.617
				c-0.508-0.617-1.014-1.235-1.52-1.854c0.314,0.309,0.629,0.617,0.943,0.926c1.316,1.293,2.634,2.586,3.964,3.861
				c0.086,0.083,0.169,0.174,0.253,0.268c0.35,0.383,0.785,0.857,1.458,0.857c0.239,0,0.485-0.064,0.733-0.189l0.42-0.215
				L30.416,36.3c-0.084-0.194-0.157-0.397-0.231-0.604c-0.183-0.498-0.369-1.016-0.707-1.439c-1.281-1.629-2.596-3.229-3.91-4.828
				c-0.162-0.197-0.324-0.396-0.486-0.594c2.279,2.246,4.559,4.496,6.816,6.768c1.545,1.553,1.756,3.293,0.644,5.324
				c-0.073,0.137-0.144,0.274-0.224,0.438l-0.291,0.584l4.771,4.956l0.734-0.729c0.263-0.257,0.512-0.502,0.749-0.762l3.72-4.067
				c4.113-4.498,8.229-8.998,12.346-13.49c0.186-0.201,0.404-0.379,0.639-0.562c-0.002,0.16-0.002,0.322-0.004,0.483
				c0,0.746-0.002,1.451-0.133,2.121c-1.73,8.842-6.406,14.66-13.896,17.297c-0.435,0.152-0.813,0.416-1.216,0.695
				c-0.189,0.131-0.391,0.271-0.614,0.411l-0.546,0.341l4.377,4.188l6.773,6.443c0.994,0.945,1.524,1.934,1.668,3.106
				c0.104,0.831-0.088,1.591-0.523,2.084C50.563,64.814,50.161,65,49.706,65z"/>
			<path fill="#551B7E" d="M54.476,28.455c-0.008,0.473-0.035,0.924-0.117,1.348C52.64,38.58,48.2,44.116,40.787,46.725
				c-0.498,0.176-0.904,0.459-1.335,0.758c-0.184,0.127-0.378,0.263-0.594,0.396l-1.092,0.682l0.93,0.891l1.496,1.434
				c0.841,0.805,1.628,1.559,2.416,2.311c1.291,1.229,2.582,2.457,3.873,3.687l2.902,2.759c0.904,0.861,1.387,1.752,1.516,2.808
				c0.086,0.688-0.062,1.305-0.402,1.69c-0.213,0.241-0.479,0.363-0.791,0.363c-0.152,0-0.316-0.029-0.486-0.088
				c-0.945-0.322-1.889-0.965-2.522-1.721c-2.015-2.394-3.994-4.905-5.909-7.336c-0.762-0.965-1.521-1.932-2.285-2.892
				c-0.156-0.196-0.318-0.387-0.502-0.599l-0.283-0.332l-0.801-0.948l-0.756,0.983l-0.955,1.246c-0.796,1.039-1.57,2.05-2.352,3.056
				c-0.49,0.634-0.979,1.271-1.465,1.909c-1.271,1.66-2.582,3.378-3.941,4.977c-0.612,0.721-1.455,1.318-2.256,1.602
				c-0.223,0.08-0.437,0.119-0.639,0.119c-0.418,0-0.767-0.17-1.005-0.49c-0.327-0.438-0.396-1.092-0.188-1.789
				c0.271-0.912,0.854-1.898,1.559-2.641c2.13-2.246,4.354-4.474,6.507-6.627c0.848-0.848,1.694-1.695,2.541-2.55
				c0.192-0.194,0.383-0.394,0.592-0.614l0.322-0.336l0.633-0.66l-0.6-0.688c-0.302-0.347-0.596-0.688-0.886-1.026
				c-0.856-0.994-1.664-1.933-2.525-2.849c-0.472-0.498-1.192-0.537-1.401-0.537c-0.322,0-0.607,0.069-0.854,0.21
				c-0.814,0.473-1.479,0.701-2.027,0.701c-0.511,0-1.236-0.17-2.33-1.499c-0.213-0.258-0.424-0.517-0.637-0.774
				c0.227,0.104,0.483,0.17,0.776,0.17c0.321,0,0.647-0.084,0.968-0.248l0.838-0.432l-0.382-0.861
				c-0.082-0.188-0.153-0.386-0.228-0.582c-0.121-0.326-0.25-0.681-0.431-1.021c0.229,0.179,0.464,0.343,0.701,0.489
				c0.315,0.195,0.669,0.225,0.853,0.225c0.453,0,0.84-0.163,1.088-0.462c0.41-0.497,0.41-1.321,0.178-1.798
				c-0.084-0.172-0.178-0.344-0.283-0.518c0.301,0.209,0.669,0.367,1.121,0.367c0.318,0,0.643-0.082,0.961-0.246l0.839-0.427
				l-0.376-0.862c-0.081-0.186-0.15-0.379-0.222-0.574c-0.089-0.245-0.185-0.506-0.302-0.766c0.398,0.398,0.797,0.797,1.19,1.194
				c1.388,1.392,1.563,2.896,0.558,4.731c-0.076,0.142-0.147,0.285-0.23,0.455l-0.131,0.266l-0.317,0.632l0.49,0.51l1.354,1.407
				l2.817,2.928l0.707,0.735l0.722-0.724c0.125-0.125,0.25-0.246,0.369-0.364c0.271-0.265,0.525-0.517,0.77-0.781l3.72-4.067
				C46.403,37.271,50.437,32.859,54.476,28.455 M22.224,25.5c-0.063,0.076-0.123,0.152-0.188,0.229
				c0.385,0.531,0.747,1.082,1.156,1.588c1.965,2.418,3.965,4.801,5.895,7.252c0.416,0.524,0.59,1.281,0.872,1.933
				c-0.187,0.095-0.354,0.136-0.507,0.136c-0.586,0-0.957-0.595-1.365-0.984c-2.249-2.158-4.46-4.364-6.697-6.538
				c-0.463-0.449-0.986-0.826-1.481-1.237c0.267,0.77,0.659,1.357,1.103,1.9c1.965,2.418,3.947,4.816,5.912,7.233
				c0.303,0.369,0.581,0.778,0.793,1.214c0.094,0.191,0.07,0.578-0.05,0.725c-0.056,0.066-0.183,0.099-0.315,0.099
				c-0.121,0-0.248-0.026-0.328-0.075c-0.424-0.263-0.827-0.582-1.193-0.937c-2.238-2.173-4.459-4.366-6.696-6.539
				c-0.424-0.412-0.896-0.763-1.347-1.142c-0.059,0.072-0.117,0.144-0.175,0.213c0.383,0.529,0.745,1.08,1.155,1.584
				c1.963,2.418,3.965,4.801,5.895,7.252c0.417,0.527,0.593,1.283,0.881,1.936c-0.188,0.098-0.355,0.139-0.51,0.139
				c-0.583,0-0.956-0.593-1.362-0.98c-2.276-2.184-4.514-4.415-6.778-6.612c-0.433-0.42-0.924-0.765-1.392-1.145
				c0.042,0.423,0.187,0.688,0.374,0.915c2.745,3.357,5.492,6.712,8.246,10.062c1.039,1.263,2.004,1.864,3.104,1.864
				c0.758,0,1.578-0.285,2.528-0.836c0.091-0.053,0.218-0.075,0.354-0.075c0.255,0,0.541,0.083,0.675,0.226
				c1.136,1.207,2.202,2.485,3.383,3.844c-0.347,0.361-0.623,0.656-0.903,0.941c-3.029,3.055-6.099,6.063-9.063,9.19
				c-0.779,0.819-1.459,1.927-1.791,3.042c-0.587,1.968,0.51,3.564,2.15,3.564c0.309,0,0.635-0.057,0.974-0.177
				c0.985-0.349,1.974-1.063,2.683-1.896c1.893-2.225,3.637-4.602,5.436-6.922c1.09-1.404,2.17-2.819,3.31-4.305
				c0.298,0.354,0.539,0.622,0.767,0.907c2.727,3.427,5.398,6.907,8.213,10.249c0.767,0.912,1.882,1.653,2.963,2.021
				c0.281,0.098,0.554,0.143,0.812,0.143c1.427,0,2.408-1.393,2.187-3.178c-0.172-1.415-0.86-2.497-1.819-3.408
				c-2.257-2.148-4.519-4.295-6.772-6.443c-1.237-1.18-2.473-2.365-3.912-3.742c0.688-0.43,1.175-0.863,1.731-1.061
				c7.958-2.801,12.501-8.893,14.222-17.673c0.203-1.05,0.111-2.166,0.156-3.253c-0.121-0.068-0.242-0.137-0.363-0.206
				c-0.388,0.325-0.813,0.608-1.154,0.981c-5.36,5.848-10.713,11.705-16.066,17.56c-0.342,0.374-0.711,0.717-1.107,1.114
				c-1.438-1.49-2.807-2.916-4.172-4.334c0.145-0.287,0.239-0.492,0.348-0.689c1.211-2.211,0.996-4.188-0.727-5.917
				c-2.877-2.894-5.785-5.749-8.688-8.608C23.144,26.229,22.673,25.879,22.224,25.5L22.224,25.5z"/>
		</g>
	</g>
</g>
</svg>
