<?xml version="1.0" encoding="utf-8"?>
<!-- Generator: Adobe Illustrator 16.0.0, SVG Export Plug-In . SVG Version: 6.00 Build 0)  -->
<!DOCTYPE svg PUBLIC "-//W3C//DTD SVG 1.1//EN" "http://www.w3.org/Graphics/SVG/1.1/DTD/svg11.dtd">
<svg version="1.1" id="Layer_1" xmlns="http://www.w3.org/2000/svg" xmlns:xlink="http://www.w3.org/1999/xlink" x="0px" y="0px"
	 width="40px" height="40px" viewBox="-479.5 520.5 40 40" enable-background="new -479.5 520.5 40 40" xml:space="preserve">
<g>
	<path fill="#A74DE5" d="M-476.5,555c-1.378,0-2.5-1.121-2.5-2.5v-24c0-1.379,1.122-2.5,2.5-2.5h34c1.378,0,2.5,1.121,2.5,2.5v24
		c0,1.379-1.122,2.5-2.5,2.5H-476.5z"/>
	<g>
		<path fill="#551B7E" d="M-442.5,526.5c1.103,0,2,0.897,2,2v24c0,1.103-0.897,2-2,2h-34c-1.103,0-2-0.897-2-2v-24
			c0-1.103,0.897-2,2-2H-442.5 M-442.5,525.5h-34c-1.657,0-3,1.343-3,3v24c0,1.657,1.343,3,3,3h34c1.657,0,3-1.343,3-3v-24
			C-439.5,526.843-440.843,525.5-442.5,525.5L-442.5,525.5z"/>
	</g>
</g>
<polygon fill="#551B7E" points="-470.5,552.5 -442.5,552.5 -449.5,535.5 -455.5,544.5 -461.5,540.5 "/>
<circle fill="#551B7E" cx="-471.5" cy="533.5" r="4"/>
</svg>
