<?xml version="1.0" encoding="utf-8"?>
<!-- Generator: Adobe Illustrator 16.0.0, SVG Export Plug-In . SVG Version: 6.00 Build 0)  -->
<!DOCTYPE svg PUBLIC "-//W3C//DTD SVG 1.1//EN" "http://www.w3.org/Graphics/SVG/1.1/DTD/svg11.dtd">
<svg version="1.1" id="Layer_1" xmlns="http://www.w3.org/2000/svg" xmlns:xlink="http://www.w3.org/1999/xlink" x="0px" y="0px"
	 width="40px" height="40px" viewBox="15.5 25.5 40 40" enable-background="new 15.5 25.5 40 40" xml:space="preserve">
<g>
	<g>
		<g>
			<g>
				<path fill="#A74DE5" d="M35.791,42.383c0.493,0.341,1.355-0.241,1.407-0.233c0.137-0.069,2.011-1.188,3.95-3.559
					c1.938-2.371,0.439-9.347-1.722-12.066c-0.405-0.518-0.887-0.813-1.524-0.278c-0.332,0.278-4.473,4.282-5.037,6.731
					c-0.564,2.451-0.438,3.492,0.082,5.289C33.465,40.063,35.771,42.324,35.791,42.383z"/>
				<path fill="#551B7E" d="M36.171,42.952C36.17,42.952,36.17,42.952,36.171,42.952c-0.257,0-0.481-0.066-0.67-0.195l-0.226-0.229
					c-0.576-0.619-2.33-2.504-2.803-4.139c-0.559-1.93-0.656-3.052-0.088-5.512c0.588-2.549,4.739-6.602,5.191-6.979
					c0.316-0.266,0.646-0.399,0.979-0.399c0.68,0,1.121,0.563,1.268,0.749c2.178,2.741,3.85,10.018,1.716,12.626
					c-2.104,2.571-4.088,3.673-4.106,3.683l-0.119,0.057C37.025,42.756,36.604,42.952,36.171,42.952z M36.104,42.015l0.065,0.012
					c0.224,0.002,0.544-0.163,0.683-0.233c0.049-0.024,0.09-0.046,0.135-0.063c0.205-0.121,1.949-1.189,3.772-3.42
					c1.709-2.088,0.392-8.843-1.726-11.506c-0.321-0.412-0.492-0.471-0.807-0.211c-0.354,0.299-4.363,4.23-4.885,6.483
					c-0.557,2.423-0.404,3.403,0.077,5.069c0.272,0.947,1.146,2.217,2.593,3.77C36.048,41.953,36.08,41.985,36.104,42.015z"/>
			</g>
		</g>
		<g>
			<g>
				<path fill="#A74DE5" d="M49.208,40.165c-2.366-0.71-4.731-0.891-7.063,0.033c-2.33,0.924-4.773,5.404-4.168,6.211
					c0.607,0.809,2.297,1.02,3.408,1.061c0.301,0,0.6,0,0.897,0c0.276,0.029,1.112-0.135,1.265-0.16
					c0.159,0.025,1.962-0.715,2.221-0.972c2.023-1.133,3.23-2.868,4.1-4.876C50.18,40.74,49.992,40.399,49.208,40.165z"/>
				<path fill="#551B7E" d="M42.361,47.937l-0.978-0.004c-1.356-0.051-3.097-0.309-3.808-1.256
					c-0.232-0.307-0.245-0.787-0.041-1.467c0.529-1.751,2.468-4.667,4.419-5.439c2.202-0.869,4.588-0.893,7.401-0.047
					c0.346,0.104,0.828,0.289,1.041,0.719c0.209,0.426,0.056,0.886-0.078,1.195c-1.041,2.408-2.397,4.023-4.27,5.08
					c-0.456,0.34-2.127,1.055-2.492,1.055l0,0C43.129,47.856,42.654,47.937,42.361,47.937z M42.282,47.006l0.079,0.003
					c0.238,0,0.815-0.104,1.006-0.14l0.136-0.021c0.291-0.057,1.701-0.658,1.916-0.836l0.099-0.074
					c1.694-0.948,2.933-2.428,3.895-4.652c0.138-0.319,0.109-0.428,0.096-0.452c-0.013-0.024-0.082-0.118-0.447-0.228
					c-2.606-0.781-4.726-0.772-6.725,0.019c-2.141,0.849-4.211,4.913-3.947,5.531c0.353,0.47,1.485,0.792,3.018,0.85H42.282z"/>
			</g>
		</g>
		<g>
			<g>
				<path fill="#A74DE5" d="M36.318,48.349c-0.06-0.117-0.262-3.326,0.137-4.358c0.072-0.19,0.006-0.491-0.282-0.554
					c-0.325-0.07-0.479,0.155-0.571,0.416c-0.125,0.352-0.287,2.334-0.297,2.453c-0.004,0.17-0.006,0.34-0.009,0.51
					c-0.001,0.561,0.345,5.027,0.529,5.828c1.021,4.412,3.004,8.394,6.036,11.894c0.576,0.668,1.503,0.651,2.207,0.03
					c0.729-0.643,0.718-1.272,0.013-1.973C40.016,58.565,37.177,53.937,36.318,48.349z"/>
				<path fill="#551B7E" d="M42.925,65.499L42.925,65.499c-0.559,0-1.069-0.238-1.444-0.669c-3.021-3.491-5.086-7.558-6.135-12.088
					c-0.199-0.86-0.541-5.368-0.541-5.929l0.01-0.52c0.187-2.21,0.287-2.497,0.32-2.592c0.229-0.646,0.678-0.743,0.924-0.743
					c0.072,0,0.149,0.008,0.225,0.024c0.25,0.054,0.453,0.199,0.574,0.41c0.131,0.229,0.152,0.508,0.061,0.752
					c-0.32,0.83-0.202,3.564-0.128,4.051l0.017,0.085c0.783,5.102,3.277,9.679,7.631,13.993c0.463,0.459,0.682,0.906,0.666,1.369
					c-0.013,0.438-0.248,0.863-0.696,1.26C43.971,65.288,43.443,65.499,42.925,65.499z M35.928,48.983
					c0.116,1.441,0.277,3.131,0.377,3.561c1.016,4.389,3.012,8.322,5.938,11.699c0.186,0.215,0.421,0.328,0.684,0.328l0,0
					c0.27,0,0.559-0.121,0.811-0.344c0.25-0.222,0.381-0.428,0.387-0.61c0.007-0.199-0.127-0.437-0.396-0.703
					C39.389,58.617,36.834,54.054,35.928,48.983z"/>
			</g>
		</g>
		<g>
			<g>
				<path fill="#A74DE5" d="M31.251,49.911c-1.793-0.551-3.408-0.229-4.801,1.018c-0.336,0.301-0.399,0.536-0.153,0.938
					c0.893,1.472,2.199,2.252,4.001,2.274c1.356,0.008,2.577-0.398,3.726-1.05c0.604-0.342,0.771-0.682,0.223-1.245
					C33.396,50.979,32.436,50.274,31.251,49.911z"/>
				<path fill="#551B7E" d="M30.342,54.604L30.342,54.604h-0.048c-1.94-0.023-3.43-0.867-4.424-2.506
					c-0.347-0.572-0.271-1.052,0.241-1.508c1.506-1.345,3.312-1.73,5.291-1.121c1.143,0.352,2.188,1.025,3.201,2.063
					c0.36,0.366,0.51,0.71,0.457,1.051c-0.069,0.454-0.48,0.733-0.783,0.906C32.951,54.24,31.665,54.604,30.342,54.604z
					 M29.623,50.116c-1.029,0-1.982,0.387-2.835,1.148c-0.19,0.168-0.188,0.172-0.067,0.371c0.823,1.354,1.995,2.021,3.584,2.041
					l0.037,0.465v-0.465c1.141,0,2.262-0.32,3.432-0.982c0.278-0.157,0.314-0.242,0.316-0.245l0,0c-0.001,0-0.014-0.091-0.206-0.287
					c-0.907-0.931-1.795-1.506-2.784-1.81C30.588,50.194,30.092,50.116,29.623,50.116z"/>
			</g>
		</g>
		<g>
			<g>
				<path fill="#A74DE5" d="M44.091,49.781c0.267-0.907,0.202-1.007-0.81-1.081c-0.148-0.012-0.299-0.014-0.446-0.02
					c-2.422-0.031-4.138,1.239-4.42,3.23c-0.073,0.518,0.078,0.732,0.616,0.91C41.064,53.49,43.432,52.021,44.091,49.781z"/>
				<path fill="#551B7E" d="M40.055,53.448L40.055,53.448c-0.408,0-0.806-0.063-1.185-0.188c-0.765-0.25-1.047-0.672-0.94-1.409
					c0.311-2.207,2.202-3.635,4.816-3.635l0.255,0.006c0.104,0.004,0.213,0.008,0.319,0.017c0.576,0.042,1.005,0.098,1.246,0.424
					c0.26,0.351,0.125,0.803-0.004,1.241C43.959,51.957,42.063,53.448,40.055,53.448z M42.813,49.144
					c-2.189,0-3.664,1.084-3.91,2.832c-0.041,0.282-0.043,0.299,0.291,0.409c0.274,0.091,0.564,0.138,0.861,0.138
					c1.551,0,3.082-1.232,3.563-2.865c0.059-0.202,0.096-0.35,0.11-0.439c-0.099-0.02-0.26-0.037-0.485-0.055
					c-0.093-0.007-0.185-0.01-0.276-0.012L42.813,49.144z"/>
			</g>
		</g>
		<g>
			<g>
				<path fill="#A74DE5" d="M30.766,47.827c0.489,0.02,2.91-0.799,3.422-0.697c0.207,0.042,0.207-0.232,0.207-0.393
					c0.006-1.325-0.033-2.646-0.735-3.85c0.001,0-0.763-1.461-0.91-1.522c-1.556-1.974-3.746-2.9-6.213-3.394
					c-1.412-0.281-2.827,0.008-4.246-0.07c-1.231-0.067-1.44,0.295-1.22,1.344c0.402,1.906,1.147,3.679,2.498,5.186
					c1.2,1.625,2.807,2.698,4.846,3.188C28.477,47.627,30.029,47.921,30.766,47.827z"/>
				<path fill="#551B7E" d="M30.424,48.31c-0.49,0-1.174-0.074-2.033-0.224l-0.099-0.019c-2.128-0.512-3.853-1.646-5.128-3.373
					c-1.265-1.404-2.115-3.168-2.576-5.359c-0.113-0.537-0.172-1.087,0.172-1.48c0.33-0.379,0.88-0.424,1.263-0.424
					c0.092,0,0.189,0.002,0.295,0.01c0.542,0.031,1.081,0.004,1.618-0.021c0.979-0.047,1.938-0.051,2.701,0.102
					c2.987,0.596,5.057,1.729,6.506,3.567l-0.018,0.013c0.288,0.338,0.766,1.112,0.945,1.574l0.018-0.009
					c0.749,1.282,0.805,2.657,0.797,4.074c0,0.091,0,0.229-0.035,0.362c-0.096,0.365-0.396,0.494-0.623,0.494l-0.141-0.014
					c-0.302,0.001-1.135,0.218-1.744,0.378c-0.783,0.204-1.279,0.329-1.56,0.329C30.71,48.302,30.573,48.31,30.424,48.31z
					 M22.022,38.356c-0.426,0-0.5,0.08-0.504,0.084c-0.016,0.02-0.089,0.141,0.031,0.715c0.428,2.031,1.21,3.658,2.394,4.974
					c1.161,1.574,2.699,2.587,4.59,3.041c1.382,0.236,1.847,0.237,2.166,0.198c0.244-0.004,0.9-0.176,1.381-0.301
					c0.82-0.213,1.418-0.364,1.822-0.401c0.006-1.313-0.049-2.483-0.674-3.553l-0.142-0.24l0.009-0.011
					c-0.191-0.355-0.506-0.922-0.644-1.114l-0.022-0.011l-0.076-0.096c-1.297-1.647-3.181-2.67-5.922-3.217
					c-0.673-0.134-1.56-0.124-2.447-0.08c-0.574,0.024-1.148,0.051-1.726,0.02C22.175,38.358,22.097,38.356,22.022,38.356z"/>
			</g>
		</g>
	</g>
</g>
</svg>
