<?xml version="1.0" encoding="utf-8"?>
<!-- Generator: Adobe Illustrator 16.0.0, SVG Export Plug-In . SVG Version: 6.00 Build 0)  -->
<!DOCTYPE svg PUBLIC "-//W3C//DTD SVG 1.1//EN" "http://www.w3.org/Graphics/SVG/1.1/DTD/svg11.dtd">
<svg version="1.1" id="Layer_1" xmlns="http://www.w3.org/2000/svg" xmlns:xlink="http://www.w3.org/1999/xlink" x="0px" y="0px"
	 width="40px" height="40px" viewBox="15.5 25.5 40 40" enable-background="new 15.5 25.5 40 40" xml:space="preserve">
<g>
	<path fill="#EE3A31" d="M25.021,65l1.011-25.271l-7.229,3.099l-2.705-8.115L29.646,26h0.424c0.4,1.717,2.656,3,5.43,3
		s5.029-1.283,5.43-3h0.424l13.549,8.711l-2.704,8.115l-7.229-3.098L45.979,65H25.021z"/>
	<g>
		<path fill="#8B1513" d="M41.277,26.546l13.027,8.375l-2.41,7.231l-6.002-2.571l-1.455-0.624L44.5,40.54l0.958,23.96H25.541
			l0.958-23.96l0.063-1.583l-1.457,0.624l-6,2.571l-2.412-7.231l13.029-8.375c0.694,1.72,2.998,2.954,5.776,2.954
			S40.582,28.266,41.277,26.546 M41.5,25.5h-1.008c-0.042,1.66-2.258,3-4.992,3s-4.95-1.34-4.992-3H29.5l-14,9l3,9l7-3l-1,25h22
			l-1-25l7,3l3-9L41.5,25.5L41.5,25.5z"/>
	</g>
</g>
</svg>
