<?xml version="1.0" encoding="utf-8"?>
<!-- Generator: Adobe Illustrator 16.0.0, SVG Export Plug-In . SVG Version: 6.00 Build 0)  -->
<!DOCTYPE svg PUBLIC "-//W3C//DTD SVG 1.1//EN" "http://www.w3.org/Graphics/SVG/1.1/DTD/svg11.dtd">
<svg version="1.1" id="Layer_1" xmlns="http://www.w3.org/2000/svg" xmlns:xlink="http://www.w3.org/1999/xlink" x="0px" y="0px"
	 width="40px" height="40px" viewBox="-479.5 520.5 40 40" enable-background="new -479.5 520.5 40 40" xml:space="preserve">
<g>
	<polygon fill="#BC2828" points="-474,551.197 -474,536.314 -460,543.312 -460,558.194 	"/>
	<g>
		<path fill="#8B1513" d="M-473.5,537.124l13,6.497v13.764l-13-6.497V537.124 M-474.5,535.506v16l15,7.497v-16L-474.5,535.506
			L-474.5,535.506z"/>
	</g>
</g>
<g>
	<polygon fill="#EE3A31" points="-458,543.312 -444,536.311 -444,551.193 -458,558.194 	"/>
	<path fill="#8B1513" d="M-444.5,537.12v13.764l-13,6.501v-13.764L-444.5,537.12 M-443.5,535.502l-15,7.501v16l15-7.501V535.502
		L-443.5,535.502z"/>
</g>
<g>
	<polygon fill="#EE3A31" points="-478.647,529.743 -461.722,524.102 -459.221,528.27 -474.356,534.892 	"/>
	<g>
		<path fill="#8B1513" d="M-461.945,524.702l2.002,3.338l-14.271,6.243l-3.581-4.298L-461.945,524.702 M-461.5,523.5l-18,6l5,6l16-7
			L-461.5,523.5L-461.5,523.5z"/>
	</g>
</g>
<g>
	<polygon fill="#BC2828" points="-457.86,528.247 -456.214,524.131 -440.272,529.758 -443.678,534.865 	"/>
	<g>
		<path fill="#8B1513" d="M-455.928,524.763l14.882,5.252l-2.81,4.216l-13.365-6.237L-455.928,524.763 M-456.5,523.5l-2,5l15,7l4-6
			L-456.5,523.5L-456.5,523.5z"/>
	</g>
</g>
</svg>
