<?xml version="1.0" encoding="utf-8"?>
<!-- Generator: Adobe Illustrator 16.0.0, SVG Export Plug-In . SVG Version: 6.00 Build 0)  -->
<!DOCTYPE svg PUBLIC "-//W3C//DTD SVG 1.1//EN" "http://www.w3.org/Graphics/SVG/1.1/DTD/svg11.dtd">
<svg version="1.1" id="Layer_1" xmlns="http://www.w3.org/2000/svg" xmlns:xlink="http://www.w3.org/1999/xlink" x="0px" y="0px"
	 width="40px" height="40px" viewBox="-479.5 520.5 40 40" enable-background="new -479.5 520.5 40 40" xml:space="preserve">
<g>
	<path fill="#3685D6" d="M-466.993,536.243c-1.87,0-3.629-0.739-4.952-2.083c-2.736-2.779-2.736-7.299,0-10.077
		c1.323-1.343,3.082-2.083,4.951-2.083c1.87,0,3.629,0.74,4.953,2.083c2.735,2.778,2.735,7.299,0,10.077
		C-463.365,535.504-465.124,536.243-466.993,536.243z"/>
	<g>
		<path fill="#15508C" d="M-466.994,522.5L-466.994,522.5c1.735,0,3.367,0.687,4.596,1.934c2.545,2.585,2.545,6.791,0,9.376
			c-1.229,1.247-2.86,1.934-4.595,1.934c-1.735,0-3.367-0.687-4.596-1.934c-2.545-2.586-2.545-6.791,0-9.376
			C-470.361,523.187-468.729,522.5-466.994,522.5 M-466.994,521.5c-1.92,0-3.841,0.744-5.307,2.232
			c-2.932,2.977-2.931,7.802,0,10.778c1.466,1.488,3.387,2.232,5.308,2.232c1.921,0,3.842-0.744,5.308-2.232
			c2.932-2.978,2.931-7.802,0-10.778C-463.151,522.244-465.072,521.5-466.994,521.5L-466.994,521.5z"/>
	</g>
</g>
<g>
	<g>
		<path fill="#3685D6" d="M-464.643,537.859c1.551-0.311,2.975-1.073,4.092-2.208c1.114-1.13,1.863-2.568,2.169-4.135l8.209,9.754
			l-4.856,4.93L-464.643,537.859z"/>
		<path fill="#15508C" d="M-458.139,532.582l7.291,8.662l-4.207,4.271l-8.543-7.413c1.279-0.413,2.447-1.129,3.404-2.1
			C-459.246,535.04-458.546,533.866-458.139,532.582 M-458.737,530.318c-0.095,1.821-0.813,3.604-2.17,4.982
			s-3.113,2.106-4.907,2.204l10.813,9.381l5.505-5.589L-458.737,530.318L-458.737,530.318z"/>
	</g>
	<g>
		<polygon fill="#3685D6" points="-452.364,548.513 -447.896,543.976 -445.825,546.436 -449.941,550.615 		"/>
		<path fill="#15508C" d="M-447.925,544.718l1.424,1.691l-3.467,3.521l-1.666-1.446L-447.925,544.718 M-447.867,543.233
			l-5.227,5.308l3.18,2.76l4.765-4.839L-447.867,543.233L-447.867,543.233z"/>
	</g>
</g>
<path fill="none" stroke="#15508C" stroke-miterlimit="10" d="M-469.838,555.779c0,0,5.411-7.063,11.596,0
	c6.184,7.063,9.276,3.14,12.368,0c3.092-3.14,0-6.279,0-6.279"/>
</svg>
