<?xml version="1.0" encoding="utf-8"?>
<!-- Generator: Adobe Illustrator 16.0.0, SVG Export Plug-In . SVG Version: 6.00 Build 0)  -->
<!DOCTYPE svg PUBLIC "-//W3C//DTD SVG 1.1//EN" "http://www.w3.org/Graphics/SVG/1.1/DTD/svg11.dtd">
<svg version="1.1" id="Layer_1" xmlns="http://www.w3.org/2000/svg" xmlns:xlink="http://www.w3.org/1999/xlink" x="0px" y="0px"
	 width="40px" height="40px" viewBox="15.5 25.5 40 40" enable-background="new 15.5 25.5 40 40" xml:space="preserve">
<g>
	<g>
		<g>
			<path fill="#3685D6" d="M49.499,65c-2.42,0-2.498-2.408-2.5-2.511V57h-23v5.5c-0.007,0.245-0.139,2.5-2.5,2.5
				c-2.42,0-2.498-2.408-2.5-2.511V57h-3V43.896l0.066-0.215c0.067-0.222,0.137-0.442,0.199-0.666
				c0.428-1.518,1.237-2.543,2.406-3.051c0.773-0.336,1.049-0.91,1.23-1.482c0.869-2.734,1.761-5.461,2.65-8.186l0.174-0.529
				c0.869-2.662,2.158-3.754,4.447-3.769h16.706c2.304,0.019,3.546,1.078,4.429,3.783l0.582,1.776
				c0.605,1.849,1.211,3.696,1.789,5.558c0.444,1.433,1.204,2.502,2.258,3.176c0.985,0.505,1.388,1.56,1.742,2.49
				c0.108,0.286,0.211,0.555,0.319,0.782V57h-3v5.5C51.992,62.745,51.86,65,49.499,65z M49.122,43.598
				c-1.941,0-3.087,1.012-3.145,2.776c-0.058,1.776,1.104,2.836,3.186,2.909l0.206,0.003c1.937,0,3.063-1.011,3.099-2.772
				c0.033-1.797-1.125-2.859-3.178-2.914L49.122,43.598z M21.8,43.596c-2.598,0.027-3.179,1.529-3.208,2.785
				c-0.02,0.846,0.212,1.523,0.689,2.021c0.547,0.568,1.39,0.865,2.503,0.883c0.001,0,0.002,0,0.003,0
				c2.108,0,3.263-1.032,3.265-2.83c0.002-0.846-0.248-1.521-0.74-2.018c-0.552-0.551-1.397-0.842-2.448-0.842h-0.005H21.8z
				 M27.343,29.002c-1.602,0.001-2.22,0.493-2.76,2.193c-0.578,1.83-1.145,3.662-1.71,5.494l-0.369,1.194
				c-0.065,0.216-0.13,0.487-0.194,0.771c-0.055,0.24-0.11,0.488-0.174,0.707L21.953,40h27.08l-0.123-0.602
				c-0.015-0.07-0.024-0.17-0.038-0.271c-0.021-0.196-0.051-0.397-0.087-0.514l-0.462-1.488c-0.619-1.994-1.238-3.989-1.872-5.976
				c-0.532-1.666-1.14-2.146-2.706-2.147L34.954,29L27.343,29.002z"/>
			<path fill="#15508C" d="M43.876,26.5c2.072,0.018,3.145,0.949,3.957,3.438l0.582,1.778c0.596,1.816,1.211,3.694,1.787,5.55
				c0.48,1.549,1.311,2.709,2.465,3.448l0.042,0.027l0.044,0.022c0.771,0.393,1.137,1.352,1.458,2.196
				c0.097,0.251,0.188,0.491,0.288,0.716V56.5h-2h-1v1v4.979c-0.004,0.207-0.098,2.021-2,2.021c-1.835,0-1.988-1.689-2-2v-5v-1h-1
				h-22h-1v1v4.979c-0.004,0.207-0.098,2.021-2,2.021c-1.835,0-1.988-1.689-2-2v-5v-1h-1h-2V43.973l0.043-0.143
				c0.07-0.227,0.139-0.451,0.203-0.678c0.385-1.366,1.1-2.284,2.125-2.729c0.959-0.416,1.301-1.138,1.508-1.789
				c0.867-2.733,1.773-5.504,2.65-8.184l0.172-0.527c0.813-2.481,1.889-3.409,3.97-3.424L43.876,26.5 M21.29,40.5h1.326H48.42h1.226
				l-0.246-1.201c-0.012-0.06-0.021-0.145-0.03-0.229c-0.024-0.206-0.05-0.42-0.106-0.604l-0.462-1.487
				c-0.618-1.996-1.237-3.992-1.874-5.979c-0.596-1.864-1.398-2.494-3.181-2.495c-2.931-0.002-5.861-0.003-8.792-0.003l-7.612,0.002
				c-1.815,0.001-2.633,0.644-3.235,2.544c-0.578,1.83-1.145,3.663-1.711,5.497l-0.369,1.194c-0.069,0.226-0.137,0.511-0.203,0.806
				c-0.053,0.231-0.106,0.47-0.168,0.683L21.29,40.5 M21.882,49.785c2.297,0,3.668-1.245,3.67-3.33
				c0.002-0.982-0.297-1.779-0.887-2.371c-0.646-0.646-1.616-0.988-2.803-0.988h-0.068c-3.154,0.033-3.674,2.065-3.702,3.273
				c-0.022,0.982,0.255,1.783,0.829,2.379c0.643,0.669,1.604,1.018,2.855,1.036L21.882,49.785 M49.369,49.786
				c2.214,0,3.56-1.22,3.599-3.265c0.039-2.08-1.33-3.359-3.662-3.424c-0.063,0-0.123-0.002-0.184-0.002
				c-2.216,0-3.578,1.219-3.645,3.262c-0.065,2.063,1.306,3.343,3.668,3.425C49.222,49.785,49.296,49.786,49.369,49.786 M43.88,25.5
				H27.171c-2.566,0.018-3.996,1.286-4.92,4.113c-0.949,2.902-1.9,5.805-2.825,8.719c-0.185,0.581-0.413,0.939-0.952,1.175
				c-1.342,0.581-2.233,1.755-2.689,3.374c-0.09,0.314-0.189,0.627-0.284,0.939c0,4.57,0,9.106,0,13.68h3v5c0,0,0.063,3,3,3s3-3,3-3
				v-5h22v5c0,0,0.063,3,3,3s3-3,3-3v-5h3c0-4.695,0-9.354,0-14.05c-0.493-0.96-0.813-2.825-2.293-3.578
				c-0.979-0.628-1.653-1.628-2.049-2.903c-0.765-2.459-1.576-4.896-2.373-7.341C47.854,26.781,46.454,25.52,43.88,25.5L43.88,25.5z
				 M22.616,39.5c0.136-0.475,0.242-1.072,0.365-1.468c0.688-2.229,1.375-4.46,2.078-6.685c0.475-1.496,0.916-1.846,2.282-1.847
				c2.537-0.001,5.074-0.002,7.611-0.002c2.93,0,5.86,0.001,8.791,0.003c1.328,0.001,1.762,0.336,2.229,1.8
				c0.791,2.479,1.56,4.972,2.332,7.46c0.053,0.166,0.072,0.543,0.112,0.737C39.823,39.5,31.269,39.5,22.616,39.5L22.616,39.5z
				 M21.882,48.785c-0.029,0-0.06-0.001-0.09-0.001c-1.491-0.022-2.743-0.595-2.701-2.392c0.042-1.795,1.268-2.283,2.713-2.299
				c0.021,0,0.038,0,0.059,0c1.436,0,2.691,0.586,2.688,2.358C24.55,48.225,23.319,48.785,21.882,48.785L21.882,48.785z
				 M49.369,48.786c-0.063,0-0.125-0.001-0.188-0.003c-1.483-0.053-2.759-0.651-2.703-2.393c0.058-1.748,1.26-2.295,2.646-2.295
				c0.051,0,0.103,0.002,0.153,0.002c1.471,0.041,2.726,0.629,2.691,2.404C51.935,48.236,50.751,48.786,49.369,48.786L49.369,48.786
				z"/>
		</g>
	</g>
</g>
</svg>
