<?xml version="1.0" encoding="utf-8"?>
<!-- Generator: Adobe Illustrator 16.0.0, SVG Export Plug-In . SVG Version: 6.00 Build 0)  -->
<!DOCTYPE svg PUBLIC "-//W3C//DTD SVG 1.1//EN" "http://www.w3.org/Graphics/SVG/1.1/DTD/svg11.dtd">
<svg version="1.1" id="Layer_1" xmlns="http://www.w3.org/2000/svg" xmlns:xlink="http://www.w3.org/1999/xlink" x="0px" y="0px"
	 width="40px" height="40px" viewBox="-479.5 520.5 40 40" enable-background="new -479.5 520.5 40 40" xml:space="preserve">
<g>
	<g>
		<path fill="#3685D6" d="M-459.5,560c-10.752,0-19.5-8.748-19.5-19.5s8.748-19.5,19.5-19.5s19.5,8.748,19.5,19.5
			S-448.748,560-459.5,560z M-459.5,530c-5.79,0-10.5,4.71-10.5,10.5s4.71,10.5,10.5,10.5s10.5-4.71,10.5-10.5
			S-453.71,530-459.5,530z"/>
	</g>
	<g>
		<path fill="#15508C" d="M-459.5,521.5c10.477,0,19,8.523,19,19s-8.523,19-19,19s-19-8.523-19-19S-469.977,521.5-459.5,521.5
			 M-459.5,551.5c6.065,0,11-4.935,11-11s-4.935-11-11-11s-11,4.935-11,11S-465.565,551.5-459.5,551.5 M-459.5,520.5
			c-11.046,0-20,8.954-20,20s8.954,20,20,20s20-8.954,20-20S-448.454,520.5-459.5,520.5L-459.5,520.5z M-459.5,550.5
			c-5.523,0-10-4.478-10-10s4.477-10,10-10s10,4.478,10,10S-453.977,550.5-459.5,550.5L-459.5,550.5z"/>
	</g>
</g>
<g>
	<g>
		<path fill="#3685D6" d="M-459.5,549c-4.687,0-8.5-3.813-8.5-8.5s3.813-8.5,8.5-8.5s8.5,3.813,8.5,8.5S-454.813,549-459.5,549z
			 M-459.5,535.5c-2.757,0-5,2.243-5,5s2.243,5,5,5s5-2.243,5-5S-456.743,535.5-459.5,535.5z"/>
	</g>
	<g>
		<path fill="#15508C" d="M-459.5,532.5c4.411,0,8,3.589,8,8s-3.589,8-8,8s-8-3.589-8-8S-463.911,532.5-459.5,532.5 M-459.5,546
			c3.033,0,5.5-2.468,5.5-5.5s-2.467-5.5-5.5-5.5s-5.5,2.468-5.5,5.5S-462.533,546-459.5,546 M-459.5,531.5c-4.971,0-9,4.03-9,9
			s4.029,9,9,9s9-4.03,9-9S-454.529,531.5-459.5,531.5L-459.5,531.5z M-459.5,545c-2.485,0-4.5-2.015-4.5-4.5s2.015-4.5,4.5-4.5
			s4.5,2.015,4.5,4.5S-457.015,545-459.5,545L-459.5,545z"/>
	</g>
</g>
<polygon fill="#15508C" points="-470,538.5 -478.5,536.5 -476.5,531.5 -469.5,536.5 "/>
<polygon fill="#15508C" points="-467.5,547.5 -474.5,552.5 -477.5,548.5 -478.5,544.5 -469.5,542.5 "/>
</svg>
