<?xml version="1.0" encoding="utf-8"?>
<!-- Generator: Adobe Illustrator 16.0.0, SVG Export Plug-In . SVG Version: 6.00 Build 0)  -->
<!DOCTYPE svg PUBLIC "-//W3C//DTD SVG 1.1//EN" "http://www.w3.org/Graphics/SVG/1.1/DTD/svg11.dtd">
<svg version="1.1" id="Layer_1" xmlns="http://www.w3.org/2000/svg" xmlns:xlink="http://www.w3.org/1999/xlink" x="0px" y="0px"
	 width="40px" height="40px" viewBox="15.5 25.5 40 40" enable-background="new 15.5 25.5 40 40" xml:space="preserve">
<g>
	<g>
		<g>
			<g>
				<path fill="#ED8937" d="M35.791,42.384c0.493,0.341,1.355-0.242,1.407-0.234c0.137-0.069,2.011-1.188,3.951-3.558
					c1.938-2.371,0.439-9.347-1.722-12.067c-0.405-0.517-0.887-0.812-1.524-0.278c-0.333,0.278-4.474,4.282-5.038,6.731
					c-0.564,2.451-0.438,3.492,0.082,5.29C33.465,40.064,35.771,42.325,35.791,42.384z"/>
				<path fill="#BB5F28" d="M36.171,42.953C36.17,42.953,36.17,42.953,36.171,42.953c-0.257,0-0.481-0.066-0.67-0.195l-0.225-0.229
					c-0.577-0.619-2.331-2.504-2.803-4.139c-0.559-1.929-0.656-3.051-0.088-5.511c0.588-2.549,4.739-6.601,5.191-6.979
					c0.317-0.265,0.647-0.399,0.979-0.399c0.68,0,1.121,0.564,1.267,0.749c2.178,2.741,3.85,10.018,1.716,12.626
					c-2.104,2.571-4.088,3.673-4.106,3.683l-0.12,0.056C37.026,42.757,36.603,42.953,36.171,42.953z M36.104,42.015l0.065,0.013
					c0.224,0.001,0.544-0.164,0.682-0.234c0.049-0.024,0.091-0.046,0.136-0.064c0.205-0.12,1.948-1.189,3.772-3.42
					c1.709-2.088,0.392-8.842-1.726-11.506c-0.321-0.411-0.492-0.47-0.806-0.21c-0.354,0.298-4.364,4.23-4.885,6.483
					c-0.557,2.423-0.405,3.404,0.077,5.069c0.272,0.948,1.146,2.217,2.593,3.77C36.048,41.954,36.08,41.987,36.104,42.015z"/>
			</g>
		</g>
		<g>
			<g>
				<path fill="#ED8937" d="M49.208,40.166c-2.366-0.71-4.731-0.89-7.063,0.033c-2.331,0.924-4.774,5.404-4.168,6.211
					c0.607,0.809,2.296,1.019,3.408,1.06c0.3,0,0.599,0,0.897,0c0.276,0.03,1.112-0.134,1.265-0.16
					c0.159,0.026,1.962-0.715,2.221-0.971c2.023-1.133,3.23-2.869,4.099-4.876C50.179,40.741,49.992,40.4,49.208,40.166z
					 M44.824,46.759"/>
				<path fill="#BB5F28" d="M42.362,47.938l-0.978-0.004c-1.356-0.051-3.097-0.309-3.808-1.256
					c-0.232-0.307-0.245-0.787-0.041-1.467c0.529-1.751,2.468-4.667,4.419-5.439c2.202-0.87,4.588-0.893,7.402-0.048
					c0.345,0.104,0.827,0.29,1.04,0.72c0.209,0.425,0.056,0.885-0.078,1.194c-1.04,2.409-2.397,4.024-4.269,5.081
					c-0.456,0.339-2.127,1.055-2.493,1.055l0,0C43.129,47.857,42.654,47.938,42.362,47.938z M42.282,47.007l0.08,0.003
					c0.237,0,0.815-0.104,1.005-0.14l0.136-0.02c0.291-0.057,1.701-0.658,1.916-0.837l0.098-0.073
					c1.695-0.949,2.933-2.428,3.895-4.653c0.138-0.319,0.109-0.427,0.096-0.452c-0.013-0.025-0.082-0.118-0.447-0.228
					c-2.607-0.781-4.726-0.772-6.725,0.019c-2.141,0.849-4.211,4.913-3.948,5.531c0.353,0.47,1.486,0.792,3.018,0.85H42.282z"/>
			</g>
		</g>
		<g>
			<g>
				<path fill="#ED8937" d="M36.319,48.35c-0.06-0.118-0.262-3.327,0.136-4.359c0.073-0.19,0.006-0.491-0.282-0.554
					c-0.325-0.07-0.48,0.156-0.572,0.416c-0.125,0.352-0.286,2.335-0.296,2.454c-0.004,0.17-0.006,0.339-0.009,0.509
					c-0.001,0.561,0.344,5.028,0.529,5.828c1.021,4.413,3.004,8.394,6.036,11.894c0.576,0.668,1.503,0.652,2.207,0.031
					c0.729-0.643,0.718-1.273,0.013-1.973C40.015,58.566,37.177,53.938,36.319,48.35z"/>
				<path fill="#BB5F28" d="M42.925,65.5L42.925,65.5c-0.559,0-1.07-0.238-1.444-0.669c-3.021-3.491-5.087-7.558-6.136-12.088
					c-0.199-0.86-0.54-5.368-0.54-5.929l0.009-0.519c0.187-2.21,0.288-2.497,0.321-2.592c0.229-0.647,0.677-0.743,0.924-0.743
					c0.072,0,0.149,0.008,0.224,0.024c0.25,0.054,0.454,0.2,0.574,0.41c0.132,0.229,0.153,0.509,0.061,0.752
					c-0.32,0.83-0.202,3.565-0.128,4.051l0.017,0.085c0.783,5.102,3.277,9.679,7.63,13.993c0.463,0.46,0.682,0.907,0.667,1.369
					c-0.013,0.439-0.248,0.864-0.697,1.261C43.971,65.289,43.444,65.5,42.925,65.5z M35.928,48.984
					c0.116,1.442,0.277,3.131,0.377,3.561c1.016,4.388,3.012,8.322,5.937,11.699c0.186,0.215,0.421,0.328,0.684,0.328l0,0
					c0.27,0,0.559-0.121,0.81-0.344c0.251-0.221,0.381-0.427,0.387-0.61c0.007-0.199-0.127-0.436-0.397-0.703
					C39.389,58.618,36.834,54.055,35.928,48.984z"/>
			</g>
		</g>
		<g>
		</g>
		<g>
		</g>
		<g>
			<g>
				<path fill="#ED8937" d="M31.251,49.912c-1.793-0.551-3.408-0.228-4.801,1.018c-0.336,0.3-0.399,0.536-0.153,0.938
					c0.892,1.472,2.199,2.252,4.001,2.274c1.357,0.009,2.577-0.398,3.726-1.049c0.604-0.342,0.771-0.682,0.222-1.245
					C33.396,50.981,32.435,50.276,31.251,49.912z"/>
				<path fill="#BB5F28" d="M30.342,54.606L30.342,54.606h-0.048c-1.941-0.024-3.43-0.868-4.424-2.507
					c-0.346-0.571-0.27-1.051,0.242-1.507c1.505-1.345,3.311-1.73,5.291-1.121c1.142,0.351,2.188,1.025,3.201,2.063
					c0.36,0.366,0.509,0.71,0.457,1.051c-0.07,0.454-0.481,0.734-0.784,0.906C32.951,54.241,31.665,54.606,30.342,54.606z
					 M29.623,50.117c-1.029,0-1.982,0.387-2.835,1.148c-0.19,0.169-0.188,0.173-0.067,0.372c0.823,1.354,1.995,2.021,3.584,2.041
					l0.037,0.464v-0.464c1.14,0,2.262-0.321,3.431-0.982c0.279-0.158,0.315-0.243,0.317-0.246l0,0c-0.001,0-0.014-0.09-0.206-0.287
					c-0.908-0.93-1.795-1.506-2.785-1.81C30.588,50.196,30.092,50.117,29.623,50.117z"/>
			</g>
		</g>
		<g>
			<g>
				<path fill="#ED8937" d="M44.091,49.782c0.266-0.907,0.202-1.007-0.81-1.081c-0.148-0.011-0.298-0.013-0.446-0.019
					c-2.422-0.032-4.138,1.239-4.42,3.23c-0.073,0.517,0.078,0.733,0.616,0.91C41.064,53.491,43.432,52.021,44.091,49.782z"/>
				<path fill="#BB5F28" d="M40.055,53.449C40.054,53.449,40.055,53.449,40.055,53.449c-0.408,0-0.806-0.063-1.185-0.188
					c-0.765-0.25-1.047-0.672-0.941-1.41c0.311-2.207,2.203-3.634,4.817-3.634l0.255,0.006c0.105,0.004,0.213,0.008,0.319,0.016
					c0.576,0.042,1.005,0.098,1.247,0.424c0.259,0.35,0.124,0.803-0.004,1.242C43.959,51.958,42.063,53.449,40.055,53.449z
					 M42.812,49.145c-2.189,0-3.664,1.084-3.91,2.831c-0.04,0.283-0.043,0.3,0.291,0.41c0.275,0.09,0.565,0.137,0.862,0.137
					c1.551,0,3.082-1.232,3.563-2.865c0.059-0.202,0.096-0.349,0.11-0.439c-0.098-0.02-0.259-0.037-0.485-0.055
					c-0.092-0.007-0.185-0.009-0.276-0.012L42.812,49.145z"/>
			</g>
		</g>
		<g>
			<g>
				<path fill="#ED8937" d="M30.765,47.828c0.49,0.019,2.911-0.798,3.422-0.697c0.208,0.042,0.207-0.232,0.207-0.393
					c0.007-1.325-0.032-2.645-0.735-3.849c0.001,0-0.763-1.461-0.91-1.523c-1.556-1.974-3.746-2.9-6.213-3.394
					c-1.412-0.281-2.827,0.009-4.246-0.069c-1.231-0.068-1.44,0.294-1.22,1.343c0.402,1.907,1.148,3.679,2.499,5.185
					c1.2,1.626,2.806,2.699,4.845,3.189C28.477,47.628,30.03,47.922,30.765,47.828z"/>
				<path fill="#BB5F28" d="M30.424,48.311c-0.49,0-1.174-0.075-2.034-0.224l-0.098-0.018c-2.128-0.512-3.853-1.646-5.127-3.374
					c-1.264-1.404-2.116-3.168-2.576-5.359c-0.114-0.537-0.172-1.087,0.172-1.481c0.33-0.379,0.879-0.423,1.263-0.423
					c0.091,0,0.189,0.002,0.295,0.009c0.54,0.031,1.079,0.005,1.617-0.021c0.98-0.047,1.938-0.051,2.7,0.101
					c2.988,0.596,5.057,1.729,6.506,3.568l-0.017,0.013c0.288,0.337,0.766,1.112,0.945,1.574l0.018-0.009
					c0.749,1.282,0.805,2.657,0.797,4.074c0,0.091,0,0.229-0.035,0.363c-0.096,0.365-0.396,0.494-0.623,0.494l-0.141-0.014
					c-0.302,0.001-1.135,0.218-1.744,0.378c-0.784,0.204-1.279,0.329-1.56,0.329C30.71,48.303,30.573,48.311,30.424,48.311z
					 M22.023,38.357c-0.426,0-0.5,0.081-0.504,0.084c-0.015,0.02-0.089,0.141,0.031,0.715c0.428,2.031,1.21,3.659,2.393,4.974
					c1.163,1.574,2.699,2.587,4.59,3.041c1.382,0.236,1.847,0.237,2.166,0.198c0.244-0.004,0.901-0.175,1.381-0.3
					c0.82-0.214,1.418-0.365,1.822-0.402c0.006-1.313-0.048-2.483-0.674-3.553l-0.141-0.24l0.009-0.011
					c-0.191-0.355-0.506-0.922-0.644-1.114l-0.022-0.011l-0.076-0.096c-1.298-1.647-3.181-2.669-5.923-3.216
					c-0.672-0.134-1.558-0.124-2.447-0.081c-0.573,0.025-1.148,0.052-1.724,0.02C22.176,38.36,22.097,38.357,22.023,38.357z"/>
			</g>
		</g>
	</g>
</g>
</svg>
