<?xml version="1.0" encoding="utf-8"?>
<!-- Generator: Adobe Illustrator 16.0.0, SVG Export Plug-In . SVG Version: 6.00 Build 0)  -->
<!DOCTYPE svg PUBLIC "-//W3C//DTD SVG 1.1//EN" "http://www.w3.org/Graphics/SVG/1.1/DTD/svg11.dtd">
<svg version="1.1" id="Layer_1" xmlns="http://www.w3.org/2000/svg" xmlns:xlink="http://www.w3.org/1999/xlink" x="0px" y="0px"
	 width="40px" height="40px" viewBox="15.5 25.5 40 40" enable-background="new 15.5 25.5 40 40" xml:space="preserve">
<g>
	<path fill="#DDA37C" d="M16,60v-8.5c0-2.481,2.019-4.5,4.5-4.5h4c2.481,0,4.5,2.019,4.5,4.5V60H16z"/>
	<g>
		<path fill="#BB5F28" d="M24.5,47.5c2.206,0,4,1.794,4,4v8h-12v-8c0-2.206,1.794-4,4-4H24.5 M24.5,46.5h-4c-2.762,0-5,2.238-5,5v9
			h14v-9C29.5,48.738,27.262,46.5,24.5,46.5L24.5,46.5z"/>
	</g>
</g>
<g>
	<path fill="#DDA37C" d="M42,60v-8.5c0-2.481,2.019-4.5,4.5-4.5h4c2.481,0,4.5,2.019,4.5,4.5V60H42z"/>
	<g>
		<path fill="#BB5F28" d="M50.5,47.5c2.206,0,4,1.794,4,4v8h-12v-8c0-2.206,1.794-4,4-4H50.5 M50.5,46.5h-4c-2.762,0-5,2.238-5,5v9
			h14v-9C55.5,48.738,53.262,46.5,50.5,46.5L50.5,46.5z"/>
	</g>
</g>
<g>
	<path fill="#ED8937" d="M28,65V45.5c0-2.481,2.019-4.5,4.5-4.5h6c2.481,0,4.5,2.019,4.5,4.5V65H28z"/>
	<path fill="#BB5F28" d="M38.5,41.5c2.206,0,4,1.794,4,4v19h-14v-19c0-2.206,1.794-4,4-4H38.5 M38.5,40.5h-6c-2.762,0-5,2.238-5,5
		v20h16v-20C43.5,42.738,41.262,40.5,38.5,40.5L38.5,40.5z"/>
</g>
<g>
	<path fill="#ED8937" d="M35.5,37c-3.032,0-5.5-2.468-5.5-5.5s2.468-5.5,5.5-5.5s5.5,2.468,5.5,5.5S38.532,37,35.5,37z"/>
	<path fill="#BB5F28" d="M35.5,26.5c2.757,0,5,2.243,5,5s-2.243,5-5,5s-5-2.243-5-5S32.743,26.5,35.5,26.5 M35.5,25.5
		c-3.313,0-6,2.687-6,6s2.687,6,6,6s6-2.687,6-6S38.813,25.5,35.5,25.5L35.5,25.5z"/>
</g>
<g>
	<path fill="#DDA37C" d="M22.5,44c-2.481,0-4.5-2.019-4.5-4.5s2.019-4.5,4.5-4.5s4.5,2.019,4.5,4.5S24.981,44,22.5,44z"/>
	<g>
		<path fill="#BB5F28" d="M22.5,35.5c2.206,0,4,1.794,4,4s-1.794,4-4,4c-2.206,0-4-1.794-4-4S20.294,35.5,22.5,35.5 M22.5,34.5
			c-2.761,0-5,2.238-5,5s2.239,5,5,5c2.762,0,5-2.238,5-5S25.262,34.5,22.5,34.5L22.5,34.5z"/>
	</g>
</g>
<g>
	<path fill="#DDA37C" d="M48.5,44c-2.481,0-4.5-2.019-4.5-4.5s2.019-4.5,4.5-4.5s4.5,2.019,4.5,4.5S50.981,44,48.5,44z"/>
	<g>
		<path fill="#BB5F28" d="M48.5,35.5c2.206,0,4,1.794,4,4s-1.794,4-4,4s-4-1.794-4-4S46.294,35.5,48.5,35.5 M48.5,34.5
			c-2.761,0-5,2.238-5,5s2.239,5,5,5c2.762,0,5-2.238,5-5S51.262,34.5,48.5,34.5L48.5,34.5z"/>
	</g>
</g>
</svg>
