<?xml version="1.0" encoding="utf-8"?>
<!-- Generator: Adobe Illustrator 16.0.0, SVG Export Plug-In . SVG Version: 6.00 Build 0)  -->
<!DOCTYPE svg PUBLIC "-//W3C//DTD SVG 1.1//EN" "http://www.w3.org/Graphics/SVG/1.1/DTD/svg11.dtd">
<svg version="1.1" id="Layer_1" xmlns="http://www.w3.org/2000/svg" xmlns:xlink="http://www.w3.org/1999/xlink" x="0px" y="0px"
	 width="40px" height="40px" viewBox="-479.5 520.5 40 40" enable-background="new -479.5 520.5 40 40" xml:space="preserve">
<g>
	<g>
		<g>
			<path fill-rule="evenodd" clip-rule="evenodd" fill="#ED8937" d="M-472.833,560c-0.938,0-1.853-0.137-2.719-0.405
				c-1.593-0.494-2.732-1.439-3.208-2.661c-0.43-1.105-0.285-2.329,0.419-3.538c1.313-2.255,3.498-3.633,6.679-4.213
				c0.658-0.121,1.292-0.182,1.884-0.182c0.946,0,1.811,0.147,2.642,0.452l0.389,0.143l0.212-0.355
				c0.218-0.364,0.193-0.708,0.175-0.958c-0.004-0.056-0.008-0.109-0.008-0.163l0.006-16.855c0.001-2.379,1.451-4.202,3.878-4.878
				l4.577-1.276c4.967-1.389,10.103-2.825,15.123-4.108c0.25,0.007,0.939,0.041,1.087,0.08c1.015,0.298,1.546,0.903,1.67,1.903
				c0.032,0.268,0.029,0.54,0.026,0.813l0,23.814c0,3.841-2.169,6.385-6.272,7.355c-0.954,0.226-1.872,0.34-2.73,0.34
				c-1.281,0-2.448-0.242-3.567-0.74c-1.304-0.58-2.228-1.511-2.601-2.618c-0.333-0.987-0.21-2.051,0.353-3.074
				c1.603-2.914,4.393-4.383,8.529-4.489l0.245-0.003c1.052,0,1.993,0.168,2.876,0.516l0.352,0.138l0.229-0.301
				c0.266-0.35,0.244-0.699,0.23-0.907l-0.005-0.107c0.005-3.772,0.005-7.545,0.002-11.316c-0.001-1.687-0.885-2.04-1.627-2.04
				c-0.292,0-0.623,0.053-1.01,0.162c-5.528,1.561-11.051,3.134-16.567,4.726c-1.649,0.476-2.451,1.504-2.451,3.143l-0.001,14.006
				c0,3.848-2.183,6.374-6.312,7.307C-471.19,559.901-472.033,560-472.833,560z"/>
			<path fill="#BB5F28" d="M-442.729,521.503c0.277,0.01,0.781,0.037,0.89,0.057c0.824,0.242,1.217,0.687,1.315,1.484
				c0.027,0.225,0.025,0.479,0.023,0.749l-0.001,0.237l0.001,18.864v4.717c0,3.634-1.98,5.944-5.887,6.869
				c-0.916,0.216-1.795,0.326-2.615,0.326c-1.209,0-2.31-0.228-3.363-0.697c-1.175-0.522-2.003-1.347-2.331-2.32
				c-0.287-0.852-0.177-1.776,0.317-2.675c1.509-2.744,4.16-4.128,8.103-4.229c0.078-0.002,0.156-0.003,0.233-0.003
				c0.988,0,1.869,0.157,2.694,0.48l0.703,0.276l0.458-0.602c0.379-0.498,0.347-1.001,0.332-1.242l-0.004-0.075
				c0.005-3.771,0.005-7.545,0.002-11.317c-0.001-2.292-1.488-2.539-2.127-2.539c-0.339,0-0.714,0.059-1.146,0.181
				c-5.865,1.655-11.285,3.201-16.57,4.727c-1.866,0.538-2.813,1.758-2.813,3.623c-0.001,3.89-0.001,7.78-0.001,11.672v2.334
				c0,3.586-2.048,5.944-5.923,6.818c-0.826,0.188-1.632,0.282-2.395,0.282c-0.888,0-1.753-0.129-2.571-0.383
				c-1.444-0.448-2.471-1.288-2.89-2.364c-0.373-0.959-0.24-2.033,0.386-3.106c1.235-2.12,3.308-3.419,6.337-3.973
				c0.628-0.115,1.231-0.173,1.794-0.173c0.887,0,1.695,0.138,2.47,0.422l0.777,0.284l0.425-0.711
				c0.298-0.499,0.265-0.969,0.245-1.25c-0.003-0.043-0.007-0.085-0.007-0.126c0.003-3.121,0.003-6.242,0.004-9.363l0.002-7.492
				c0.001-2.174,1.282-3.776,3.512-4.396c1.52-0.422,3.046-0.849,4.578-1.277C-452.829,524.209-447.718,522.779-442.729,521.503
				 M-442.84,520.5c-0.002,0-0.003,0-0.003,0c-6.574,1.68-13.244,3.593-19.774,5.404c-2.7,0.751-4.243,2.775-4.245,5.359
				c-0.004,5.618,0,11.236-0.006,16.855c0,0.274,0.083,0.563-0.096,0.864c-0.925-0.339-1.866-0.482-2.813-0.482
				c-0.655,0-1.314,0.068-1.974,0.189c-3.044,0.556-5.534,1.899-7.021,4.453c-1.689,2.898-0.34,5.87,3.072,6.929
				c0.949,0.295,1.906,0.428,2.867,0.428c0.871,0,1.744-0.109,2.616-0.307c4.361-0.984,6.702-3.721,6.702-7.794
				c0-4.669,0-9.338,0.001-14.006c0-1.39,0.624-2.239,2.09-2.662c5.515-1.592,11.037-3.165,16.564-4.725
				c0.338-0.096,0.628-0.144,0.875-0.144c0.789,0,1.126,0.497,1.127,1.54c0.002,3.771,0.002,7.544-0.002,11.315
				c0,0.22,0.07,0.459-0.124,0.713c-0.989-0.388-2.013-0.55-3.059-0.55c-0.085,0-0.172,0.001-0.258,0.003
				c-3.931,0.102-7.13,1.431-8.955,4.748c-1.381,2.511-0.288,5.157,2.483,6.391c1.23,0.547,2.491,0.783,3.77,0.783
				c0.941,0,1.892-0.128,2.845-0.354c4.346-1.028,6.657-3.771,6.657-7.842c0-7.861,0-15.722-0.001-23.581
				c0-0.369,0.016-0.742-0.029-1.107c-0.142-1.151-0.776-1.955-2.026-2.322C-441.791,520.531-442.775,520.5-442.84,520.5
				L-442.84,520.5z"/>
		</g>
	</g>
</g>
</svg>
