<?xml version="1.0" encoding="utf-8"?>
<!-- Generator: Adobe Illustrator 16.0.0, SVG Export Plug-In . SVG Version: 6.00 Build 0)  -->
<!DOCTYPE svg PUBLIC "-//W3C//DTD SVG 1.1//EN" "http://www.w3.org/Graphics/SVG/1.1/DTD/svg11.dtd">
<svg version="1.1" id="Layer_1" xmlns="http://www.w3.org/2000/svg" xmlns:xlink="http://www.w3.org/1999/xlink" x="0px" y="0px"
	 width="40px" height="40px" viewBox="15.5 25.5 40 40" enable-background="new 15.5 25.5 40 40" xml:space="preserve">
<g>
	<g>
		<g>
			<path fill-rule="evenodd" clip-rule="evenodd" fill="#ED8937" d="M49.709,65c-0.208,0-0.427-0.039-0.648-0.114
				c-1.028-0.351-2.053-1.051-2.743-1.871c-2.021-2.4-4.003-4.916-5.92-7.349c-0.76-0.965-1.521-1.93-2.284-2.891
				c-0.152-0.191-0.312-0.377-0.489-0.584l-0.687-0.809l-1.333,1.738c-0.797,1.038-1.572,2.05-2.353,3.057
				c-0.49,0.633-0.977,1.27-1.464,1.906c-1.272,1.666-2.588,3.389-3.957,4.997c-0.667,0.784-1.59,1.438-2.469,1.748
				c-0.275,0.099-0.547,0.148-0.806,0.148c-0.574,0-1.074-0.246-1.405-0.691c-0.424-0.566-0.521-1.38-0.267-2.231
				c0.297-0.999,0.907-2.034,1.674-2.84c2.135-2.252,4.362-4.481,6.516-6.637c0.848-0.848,1.694-1.696,2.539-2.548
				c0.19-0.193,0.909-0.947,0.909-0.947l0.316-0.329l-1.188-1.373c-0.852-0.989-1.656-1.925-2.508-2.83
				c-0.267-0.281-0.712-0.382-1.039-0.382c-0.161,0-0.397,0.024-0.601,0.141c-0.896,0.52-1.642,0.771-2.281,0.771
				c-0.922,0-1.76-0.519-2.718-1.682c-1.897-2.309-3.793-4.62-5.686-6.933c0.176,0.173,0.353,0.346,0.529,0.52
				c1.321,1.296,2.641,2.592,3.976,3.871c0.084,0.082,0.167,0.172,0.251,0.264c0.35,0.381,0.786,0.856,1.457,0.856
				c0.241,0,0.49-0.065,0.738-0.193l0.419-0.216l-0.19-0.431c-0.087-0.197-0.163-0.404-0.239-0.611
				c-0.183-0.496-0.372-1.009-0.706-1.432c-1.265-1.606-2.561-3.184-3.855-4.76c-0.176-0.213-0.351-0.426-0.525-0.64
				c0.473,0.462,0.944,0.925,1.416,1.387c1.13,1.106,2.259,2.212,3.393,3.313c0.406,0.392,0.836,0.729,1.279,1.003
				c0.213,0.131,0.461,0.15,0.591,0.15c0.303,0,0.552-0.1,0.701-0.279c0.271-0.329,0.277-0.929,0.114-1.263
				c-0.211-0.434-0.499-0.875-0.855-1.311c-0.981-1.208-1.969-2.412-2.956-3.617c-0.507-0.617-1.013-1.235-1.519-1.854
				c0.314,0.309,0.629,0.618,0.944,0.927c1.316,1.293,2.633,2.586,3.963,3.861c0.086,0.083,0.169,0.174,0.253,0.267
				c0.35,0.383,0.785,0.858,1.458,0.858c0.239,0,0.486-0.064,0.734-0.19l0.419-0.214l-0.188-0.431
				c-0.084-0.194-0.158-0.398-0.232-0.604c-0.182-0.499-0.369-1.016-0.706-1.44c-1.282-1.629-2.596-3.229-3.91-4.828
				c-0.163-0.198-0.325-0.396-0.487-0.594c2.279,2.246,4.558,4.496,6.817,6.768c1.545,1.552,1.755,3.293,0.643,5.324
				c-0.074,0.136-0.143,0.274-0.223,0.438l-0.291,0.584l4.771,4.957l0.734-0.73c0.263-0.257,0.512-0.502,0.749-0.762l3.72-4.067
				c4.113-4.499,8.228-8.998,12.346-13.49c0.185-0.201,0.404-0.379,0.638-0.562c-0.002,0.16-0.002,0.322-0.003,0.483
				c-0.001,0.746-0.002,1.451-0.133,2.121c-1.731,8.842-6.406,14.661-13.896,17.297c-0.434,0.152-0.813,0.417-1.216,0.695
				c-0.189,0.132-0.391,0.272-0.614,0.412l-0.546,0.34l4.377,4.188l6.773,6.444c0.995,0.945,1.525,1.933,1.669,3.106
				c0.104,0.831-0.088,1.591-0.524,2.084C50.567,64.815,50.164,65,49.709,65z"/>
			<path fill="#BB5F28" d="M54.479,28.455c-0.009,0.473-0.035,0.924-0.118,1.348c-1.719,8.777-6.158,14.313-13.571,16.922
				c-0.498,0.176-0.904,0.458-1.335,0.757c-0.183,0.127-0.378,0.263-0.594,0.397l-1.092,0.682l0.93,0.89l1.497,1.434
				c0.84,0.805,1.627,1.559,2.416,2.31c1.29,1.229,2.582,2.458,3.873,3.687l2.901,2.759c0.905,0.861,1.388,1.752,1.517,2.807
				c0.085,0.688-0.062,1.305-0.403,1.69c-0.213,0.242-0.479,0.364-0.791,0.364c-0.153,0-0.316-0.029-0.487-0.088
				c-0.945-0.322-1.888-0.965-2.522-1.721c-2.015-2.393-3.994-4.905-5.909-7.335c-0.761-0.966-1.521-1.932-2.285-2.892
				c-0.156-0.197-0.319-0.387-0.502-0.599l-0.283-0.332l-0.801-0.948l-0.756,0.984l-0.955,1.246
				c-0.796,1.038-1.571,2.049-2.351,3.055c-0.491,0.634-0.979,1.271-1.466,1.909c-1.27,1.661-2.581,3.378-3.941,4.977
				c-0.612,0.72-1.455,1.318-2.256,1.602c-0.222,0.079-0.436,0.119-0.638,0.119c-0.419,0-0.767-0.17-1.005-0.49
				c-0.327-0.439-0.396-1.092-0.188-1.79c0.272-0.912,0.854-1.898,1.559-2.64c2.13-2.246,4.354-4.474,6.507-6.627
				c0.848-0.848,1.694-1.696,2.541-2.55c0.192-0.194,0.382-0.394,0.592-0.614l0.322-0.337l0.632-0.659l-0.599-0.689
				c-0.302-0.347-0.596-0.688-0.886-1.026c-0.856-0.994-1.664-1.933-2.525-2.849c-0.472-0.498-1.192-0.537-1.401-0.537
				c-0.323,0-0.608,0.069-0.854,0.21c-0.815,0.472-1.478,0.701-2.027,0.701c-0.511,0-1.237-0.17-2.331-1.499
				c-0.212-0.258-0.424-0.517-0.636-0.774c0.227,0.104,0.483,0.17,0.776,0.17c0.322,0,0.647-0.084,0.968-0.248l0.838-0.432
				l-0.382-0.862c-0.082-0.188-0.154-0.385-0.228-0.582c-0.12-0.326-0.25-0.68-0.43-1.02c0.229,0.179,0.463,0.343,0.701,0.489
				c0.316,0.195,0.669,0.225,0.852,0.225c0.454,0,0.84-0.163,1.088-0.462c0.41-0.497,0.411-1.321,0.178-1.798
				c-0.084-0.172-0.178-0.344-0.283-0.517c0.301,0.208,0.669,0.366,1.121,0.366c0.319,0,0.643-0.082,0.961-0.245l0.839-0.427
				l-0.376-0.863c-0.081-0.185-0.15-0.379-0.222-0.574c-0.089-0.245-0.184-0.506-0.301-0.765c0.398,0.398,0.796,0.796,1.19,1.194
				c1.387,1.392,1.564,2.895,0.558,4.732c-0.077,0.141-0.148,0.285-0.231,0.455l-0.131,0.265l-0.317,0.632l0.49,0.51l1.354,1.407
				l2.818,2.928l0.707,0.735l0.721-0.723c0.126-0.126,0.25-0.247,0.37-0.365c0.27-0.265,0.525-0.516,0.769-0.781l3.72-4.067
				C46.406,37.272,50.44,32.86,54.479,28.455 M22.227,25.5c-0.063,0.076-0.124,0.153-0.188,0.229
				c0.385,0.531,0.747,1.081,1.156,1.587c1.965,2.418,3.965,4.801,5.895,7.252c0.416,0.525,0.589,1.282,0.872,1.933
				c-0.187,0.095-0.354,0.136-0.507,0.136c-0.586,0-0.957-0.595-1.365-0.985c-2.249-2.158-4.46-4.364-6.698-6.538
				c-0.463-0.449-0.986-0.826-1.481-1.237c0.267,0.77,0.66,1.358,1.102,1.901c1.965,2.417,3.948,4.816,5.913,7.233
				c0.302,0.369,0.581,0.778,0.793,1.214c0.094,0.191,0.07,0.578-0.05,0.724c-0.056,0.066-0.183,0.099-0.316,0.099
				c-0.121,0-0.247-0.026-0.328-0.076c-0.424-0.262-0.827-0.582-1.193-0.936c-2.238-2.173-4.459-4.366-6.696-6.539
				c-0.424-0.412-0.897-0.763-1.347-1.141c-0.058,0.072-0.117,0.143-0.175,0.212c0.383,0.529,0.746,1.081,1.155,1.585
				c1.963,2.418,3.965,4.8,5.895,7.251c0.417,0.528,0.593,1.284,0.881,1.936c-0.188,0.097-0.355,0.138-0.51,0.138
				c-0.583,0-0.956-0.592-1.362-0.98c-2.276-2.184-4.514-4.415-6.778-6.612c-0.433-0.42-0.925-0.765-1.392-1.145
				c0.042,0.423,0.187,0.688,0.374,0.915c2.745,3.357,5.492,6.712,8.246,10.062c1.039,1.262,2.004,1.864,3.104,1.864
				c0.757,0,1.577-0.285,2.528-0.836c0.09-0.052,0.218-0.075,0.354-0.075c0.255,0,0.541,0.083,0.675,0.225
				c1.136,1.207,2.203,2.486,3.383,3.844c-0.347,0.361-0.623,0.656-0.904,0.941c-3.029,3.056-6.098,6.064-9.062,9.191
				c-0.779,0.819-1.459,1.927-1.791,3.042c-0.587,1.968,0.51,3.565,2.151,3.565c0.308,0,0.635-0.057,0.973-0.177
				c0.985-0.349,1.974-1.063,2.683-1.896c1.893-2.225,3.636-4.601,5.436-6.921c1.089-1.405,2.169-2.82,3.309-4.305
				c0.298,0.353,0.539,0.622,0.766,0.907c2.727,3.426,5.399,6.907,8.213,10.249c0.767,0.912,1.882,1.653,2.964,2.022
				c0.281,0.097,0.553,0.142,0.811,0.142c1.426,0,2.408-1.393,2.187-3.178c-0.173-1.415-0.861-2.497-1.82-3.408
				c-2.257-2.148-4.518-4.295-6.773-6.444c-1.237-1.179-2.472-2.365-3.911-3.742c0.688-0.429,1.174-0.863,1.731-1.06
				c7.958-2.801,12.501-8.892,14.221-17.673c0.204-1.049,0.112-2.166,0.157-3.253c-0.122-0.068-0.242-0.137-0.364-0.206
				c-0.387,0.325-0.813,0.609-1.154,0.982c-5.36,5.847-10.712,11.704-16.066,17.559c-0.342,0.374-0.711,0.717-1.108,1.115
				c-1.437-1.491-2.806-2.916-4.171-4.335c0.144-0.286,0.239-0.492,0.347-0.689c1.211-2.211,0.996-4.188-0.727-5.917
				c-2.877-2.893-5.784-5.749-8.688-8.609C23.147,26.229,22.676,25.879,22.227,25.5L22.227,25.5z"/>
		</g>
	</g>
</g>
</svg>
